<?xml version="1.0" encoding="UTF-8" standalone="yes"?><svg xmlns="http://www.w3.org/2000/svg" xmlns:xlink="http://www.w3.org/1999/xlink" height="1017px" style="width:1347px;height:1017px;" version="1.1" viewBox="0 0 1347 1017" width="1347px"><defs><filter height="300%" id="f1" width="300%" x="-1" y="-1"><feGaussianBlur result="blurOut" stdDeviation="2.0"/><feColorMatrix in="blurOut" result="blurOut2" type="matrix" values="0 0 0 0 0 0 0 0 0 0 0 0 0 0 0 0 0 0 .4 0"/><feOffset dx="4.0" dy="4.0" in="blurOut2" result="blurOut3"/><feBlend in="SourceGraphic" in2="blurOut3" mode="normal"/></filter></defs><g><rect fill="#FEFECE" filter="url(#f1)" height="89.5078" style="stroke: #A80036; stroke-width: 1.5;" width="128" x="71.5" y="306.5"/><ellipse cx="109" cy="322.5" fill="#A9DCDF" rx="11" ry="11" style="stroke: #A80036; stroke-width: 1.0;"/><path d="M111.1875,324.2656 L107.0469,324.2656 L106.625,325.2969 L107.0469,325.2969 Q107.6563,325.2969 107.9219,325.5313 Q108.1875,325.7656 108.1875,326.1563 Q108.1875,326.5313 107.9219,326.7656 Q107.6563,327 107.0469,327 L104.75,327 Q104.1406,327 103.8828,326.7656 Q103.625,326.5313 103.625,326.1406 Q103.625,325.7656 103.8984,325.5234 Q104.1719,325.2813 104.7969,325.2969 L107.4688,318.6406 L106.3594,318.6406 Q105.75,318.6406 105.4844,318.4063 Q105.2188,318.1719 105.2188,317.7813 Q105.2188,317.4063 105.4844,317.1719 Q105.75,316.9375 106.3594,316.9375 L110.0313,316.9375 L113.4219,325.2969 Q114.0156,325.2969 114.2031,325.4375 Q114.5938,325.7031 114.5938,326.1563 Q114.5938,326.5313 114.3359,326.7656 Q114.0781,327 113.4688,327 L111.1719,327 Q110.5625,327 110.2969,326.7656 Q110.0313,326.5313 110.0313,326.1406 Q110.0313,325.7656 110.2969,325.5313 Q110.5625,325.2969 111.1719,325.2969 L111.5938,325.2969 L111.1875,324.2656 Z M110.4688,322.5625 L109.1094,319.1875 L107.7344,322.5625 L110.4688,322.5625 Z "/><text fill="#000000" font-family="sans-serif" font-size="12" font-style="italic" lengthAdjust="spacingAndGlyphs" textLength="46" x="128" y="327.4102">Request</text><line style="stroke: #A80036; stroke-width: 1.5;" x1="72.5" x2="198.5" y1="338.5" y2="338.5"/><ellipse cx="82.5" cy="350.918" fill="none" rx="3" ry="3" style="stroke: #038048; stroke-width: 1.0;"/><text fill="#000000" font-family="sans-serif" font-size="11" lengthAdjust="spacingAndGlyphs" textLength="43" x="91.5" y="353.9189">url:String</text><ellipse cx="82.5" cy="364.7539" fill="none" rx="3" ry="3" style="stroke: #038048; stroke-width: 1.0;"/><text fill="#000000" font-family="sans-serif" font-size="11" lengthAdjust="spacingAndGlyphs" textLength="80" x="91.5" y="367.7549">handler:Function</text><ellipse cx="82.5" cy="378.5898" fill="none" rx="3" ry="3" style="stroke: #038048; stroke-width: 1.0;"/><text fill="#000000" font-family="sans-serif" font-size="11" lengthAdjust="spacingAndGlyphs" textLength="102" x="91.5" y="381.5908">infoForHandler:String</text><line style="stroke: #A80036; stroke-width: 1.5;" x1="72.5" x2="198.5" y1="388.0078" y2="388.0078"/><rect fill="#FEFECE" filter="url(#f1)" height="48" style="stroke: #A80036; stroke-width: 1.5;" width="103" x="6" y="564.5"/><ellipse cx="21" cy="580.5" fill="#ADD1B2" rx="11" ry="11" style="stroke: #A80036; stroke-width: 1.0;"/><path d="M23.7656,576.375 Q23.9219,576.1563 24.1094,576.0469 Q24.2969,575.9375 24.5156,575.9375 Q24.8906,575.9375 25.125,576.1953 Q25.3594,576.4531 25.3594,577.0625 L25.3594,578.5156 Q25.3594,579.125 25.125,579.3906 Q24.8906,579.6563 24.5156,579.6563 Q24.1719,579.6563 23.9688,579.4531 Q23.7656,579.2656 23.6563,578.75 Q23.6094,578.3906 23.4219,578.2031 Q23.0938,577.8281 22.4844,577.6094 Q21.875,577.3906 21.25,577.3906 Q20.4844,577.3906 19.8516,577.7188 Q19.2188,578.0469 18.7266,578.7969 Q18.2344,579.5469 18.2344,580.5781 L18.2344,581.6719 Q18.2344,582.9063 19.125,583.7266 Q20.0156,584.5469 21.6094,584.5469 Q22.5469,584.5469 23.2031,584.2969 Q23.5938,584.1406 24.0156,583.7031 Q24.2813,583.4375 24.4297,583.3594 Q24.5781,583.2813 24.7813,583.2813 Q25.1094,583.2813 25.3672,583.5391 Q25.625,583.7969 25.625,584.1406 Q25.625,584.4844 25.2813,584.8906 Q24.7813,585.4688 23.9844,585.7969 Q22.9063,586.25 21.6094,586.25 Q20.0938,586.25 18.8906,585.625 Q17.9063,585.125 17.2188,584.0547 Q16.5313,582.9844 16.5313,581.7031 L16.5313,580.5469 Q16.5313,579.2188 17.1484,578.0703 Q17.7656,576.9219 18.8594,576.3047 Q19.9531,575.6875 21.1875,575.6875 Q21.9219,575.6875 22.5703,575.8516 Q23.2188,576.0156 23.7656,576.375 Z "/><text fill="#000000" font-family="sans-serif" font-size="12" lengthAdjust="spacingAndGlyphs" textLength="71" x="35" y="585.4102">GETRequest</text><line style="stroke: #A80036; stroke-width: 1.5;" x1="7" x2="108" y1="596.5" y2="596.5"/><line style="stroke: #A80036; stroke-width: 1.5;" x1="7" x2="108" y1="604.5" y2="604.5"/><rect fill="#FEFECE" filter="url(#f1)" height="61.8359" style="stroke: #A80036; stroke-width: 1.5;" width="205" x="144" y="557.5"/><ellipse cx="202.75" cy="573.5" fill="#ADD1B2" rx="11" ry="11" style="stroke: #A80036; stroke-width: 1.0;"/><path d="M205.5156,569.375 Q205.6719,569.1563 205.8594,569.0469 Q206.0469,568.9375 206.2656,568.9375 Q206.6406,568.9375 206.875,569.1953 Q207.1094,569.4531 207.1094,570.0625 L207.1094,571.5156 Q207.1094,572.125 206.875,572.3906 Q206.6406,572.6563 206.2656,572.6563 Q205.9219,572.6563 205.7188,572.4531 Q205.5156,572.2656 205.4063,571.75 Q205.3594,571.3906 205.1719,571.2031 Q204.8438,570.8281 204.2344,570.6094 Q203.625,570.3906 203,570.3906 Q202.2344,570.3906 201.6016,570.7188 Q200.9688,571.0469 200.4766,571.7969 Q199.9844,572.5469 199.9844,573.5781 L199.9844,574.6719 Q199.9844,575.9063 200.875,576.7266 Q201.7656,577.5469 203.3594,577.5469 Q204.2969,577.5469 204.9531,577.2969 Q205.3438,577.1406 205.7656,576.7031 Q206.0313,576.4375 206.1797,576.3594 Q206.3281,576.2813 206.5313,576.2813 Q206.8594,576.2813 207.1172,576.5391 Q207.375,576.7969 207.375,577.1406 Q207.375,577.4844 207.0313,577.8906 Q206.5313,578.4688 205.7344,578.7969 Q204.6563,579.25 203.3594,579.25 Q201.8438,579.25 200.6406,578.625 Q199.6563,578.125 198.9688,577.0547 Q198.2813,575.9844 198.2813,574.7031 L198.2813,573.5469 Q198.2813,572.2188 198.8984,571.0703 Q199.5156,569.9219 200.6094,569.3047 Q201.7031,568.6875 202.9375,568.6875 Q203.6719,568.6875 204.3203,568.8516 Q204.9688,569.0156 205.5156,569.375 Z "/><text fill="#000000" font-family="sans-serif" font-size="12" lengthAdjust="spacingAndGlyphs" textLength="79" x="223.25" y="578.4102">POSTRequest</text><line style="stroke: #A80036; stroke-width: 1.5;" x1="145" x2="348" y1="589.5" y2="589.5"/><ellipse cx="155" cy="601.918" fill="none" rx="3" ry="3" style="stroke: #038048; stroke-width: 1.0;"/><text fill="#000000" font-family="sans-serif" font-size="11" lengthAdjust="spacingAndGlyphs" textLength="179" x="164" y="604.9189">nameValuePairs:Array[pairsCount][2]</text><line style="stroke: #A80036; stroke-width: 1.5;" x1="145" x2="348" y1="611.3359" y2="611.3359"/><rect fill="#FEFECE" filter="url(#f1)" height="186.3594" style="stroke: #A80036; stroke-width: 1.5;" width="239" x="16" y="8"/><ellipse cx="87.25" cy="24" fill="#ADD1B2" rx="11" ry="11" style="stroke: #A80036; stroke-width: 1.0;"/><path d="M90.0156,19.875 Q90.1719,19.6563 90.3594,19.5469 Q90.5469,19.4375 90.7656,19.4375 Q91.1406,19.4375 91.375,19.6953 Q91.6094,19.9531 91.6094,20.5625 L91.6094,22.0156 Q91.6094,22.625 91.375,22.8906 Q91.1406,23.1563 90.7656,23.1563 Q90.4219,23.1563 90.2188,22.9531 Q90.0156,22.7656 89.9063,22.25 Q89.8594,21.8906 89.6719,21.7031 Q89.3438,21.3281 88.7344,21.1094 Q88.125,20.8906 87.5,20.8906 Q86.7344,20.8906 86.1016,21.2188 Q85.4688,21.5469 84.9766,22.2969 Q84.4844,23.0469 84.4844,24.0781 L84.4844,25.1719 Q84.4844,26.4063 85.375,27.2266 Q86.2656,28.0469 87.8594,28.0469 Q88.7969,28.0469 89.4531,27.7969 Q89.8438,27.6406 90.2656,27.2031 Q90.5313,26.9375 90.6797,26.8594 Q90.8281,26.7813 91.0313,26.7813 Q91.3594,26.7813 91.6172,27.0391 Q91.875,27.2969 91.875,27.6406 Q91.875,27.9844 91.5313,28.3906 Q91.0313,28.9688 90.2344,29.2969 Q89.1563,29.75 87.8594,29.75 Q86.3438,29.75 85.1406,29.125 Q84.1563,28.625 83.4688,27.5547 Q82.7813,26.4844 82.7813,25.2031 L82.7813,24.0469 Q82.7813,22.7188 83.3984,21.5703 Q84.0156,20.4219 85.1094,19.8047 Q86.2031,19.1875 87.4375,19.1875 Q88.1719,19.1875 88.8203,19.3516 Q89.4688,19.5156 90.0156,19.875 Z "/><text fill="#000000" font-family="sans-serif" font-size="12" lengthAdjust="spacingAndGlyphs" textLength="88" x="107.75" y="28.9102">RequestRunner</text><line style="stroke: #A80036; stroke-width: 1.5;" x1="17" x2="254" y1="40" y2="40"/><polygon fill="none" points="27,47.418,31,51.418,27,55.418,23,51.418" style="stroke: #B38D22; stroke-width: 1.0;"/><text fill="#000000" font-family="sans-serif" font-size="11" lengthAdjust="spacingAndGlyphs" textLength="66" x="36" y="55.4189">delay:Number</text><polygon fill="none" points="27,61.2539,31,65.2539,27,69.2539,23,65.2539" style="stroke: #B38D22; stroke-width: 1.0;"/><text fill="#000000" font-family="sans-serif" font-size="11" lengthAdjust="spacingAndGlyphs" textLength="94" x="36" y="69.2549">requestQ:Request[]</text><polygon fill="none" points="27,75.0898,31,79.0898,27,83.0898,23,79.0898" style="stroke: #B38D22; stroke-width: 1.0;"/><text fill="#000000" font-family="sans-serif" font-size="11" lengthAdjust="spacingAndGlyphs" textLength="73" x="36" y="83.0908">interval:Interval</text><line style="stroke: #A80036; stroke-width: 1.5;" x1="17" x2="254" y1="89.5078" y2="89.5078"/><ellipse cx="27" cy="101.9258" fill="#84BE84" rx="3" ry="3" style="stroke: #038048; stroke-width: 1.0;"/><text fill="#000000" font-family="sans-serif" font-size="11" lengthAdjust="spacingAndGlyphs" textLength="149" x="36" y="104.9268">RequestRunner(delay:Number)</text><ellipse cx="27" cy="115.7617" fill="#84BE84" rx="3" ry="3" style="stroke: #038048; stroke-width: 1.0;"/><text fill="#000000" font-family="sans-serif" font-size="11" lengthAdjust="spacingAndGlyphs" textLength="160" x="36" y="118.7627">void changeDelay(delay:Number)</text><ellipse cx="27" cy="129.5977" fill="#84BE84" rx="3" ry="3" style="stroke: #038048; stroke-width: 1.0;"/><text fill="#000000" font-family="sans-serif" font-size="11" lengthAdjust="spacingAndGlyphs" textLength="53" x="36" y="132.5986">void start()</text><ellipse cx="27" cy="143.4336" fill="#84BE84" rx="3" ry="3" style="stroke: #038048; stroke-width: 1.0;"/><text fill="#000000" font-family="sans-serif" font-size="11" lengthAdjust="spacingAndGlyphs" textLength="61" x="36" y="146.4346">void pause()</text><ellipse cx="27" cy="157.2695" fill="#84BE84" rx="3" ry="3" style="stroke: #038048; stroke-width: 1.0;"/><text fill="#000000" font-family="sans-serif" font-size="11" lengthAdjust="spacingAndGlyphs" textLength="92" x="36" y="160.2705">void emptyQueue()</text><ellipse cx="27" cy="171.1055" fill="#84BE84" rx="3" ry="3" style="stroke: #038048; stroke-width: 1.0;"/><text fill="#000000" font-family="sans-serif" font-size="11" lengthAdjust="spacingAndGlyphs" textLength="213" x="36" y="174.1064">void addRequestToQueue(request:Request)</text><polygon fill="#FFFF44" points="27,179.9414,31,183.9414,27,187.9414,23,183.9414" style="stroke: #B38D22; stroke-width: 1.0;"/><text fill="#000000" font-family="sans-serif" font-size="11" lengthAdjust="spacingAndGlyphs" textLength="154" x="36" y="187.9424">applyRequest(request:Request)</text><rect fill="#FEFECE" filter="url(#f1)" height="158.6875" style="stroke: #A80036; stroke-width: 1.5;" width="389" x="329" y="272"/><ellipse cx="480.75" cy="288" fill="#ADD1B2" rx="11" ry="11" style="stroke: #A80036; stroke-width: 1.0;"/><path d="M483.5156,283.875 Q483.6719,283.6563 483.8594,283.5469 Q484.0469,283.4375 484.2656,283.4375 Q484.6406,283.4375 484.875,283.6953 Q485.1094,283.9531 485.1094,284.5625 L485.1094,286.0156 Q485.1094,286.625 484.875,286.8906 Q484.6406,287.1563 484.2656,287.1563 Q483.9219,287.1563 483.7188,286.9531 Q483.5156,286.7656 483.4063,286.25 Q483.3594,285.8906 483.1719,285.7031 Q482.8438,285.3281 482.2344,285.1094 Q481.625,284.8906 481,284.8906 Q480.2344,284.8906 479.6016,285.2188 Q478.9688,285.5469 478.4766,286.2969 Q477.9844,287.0469 477.9844,288.0781 L477.9844,289.1719 Q477.9844,290.4063 478.875,291.2266 Q479.7656,292.0469 481.3594,292.0469 Q482.2969,292.0469 482.9531,291.7969 Q483.3438,291.6406 483.7656,291.2031 Q484.0313,290.9375 484.1797,290.8594 Q484.3281,290.7813 484.5313,290.7813 Q484.8594,290.7813 485.1172,291.0391 Q485.375,291.2969 485.375,291.6406 Q485.375,291.9844 485.0313,292.3906 Q484.5313,292.9688 483.7344,293.2969 Q482.6563,293.75 481.3594,293.75 Q479.8438,293.75 478.6406,293.125 Q477.6563,292.625 476.9688,291.5547 Q476.2813,290.4844 476.2813,289.2031 L476.2813,288.0469 Q476.2813,286.7188 476.8984,285.5703 Q477.5156,284.4219 478.6094,283.8047 Q479.7031,283.1875 480.9375,283.1875 Q481.6719,283.1875 482.3203,283.3516 Q482.9688,283.5156 483.5156,283.875 Z "/><text fill="#000000" font-family="sans-serif" font-size="12" lengthAdjust="spacingAndGlyphs" textLength="77" x="501.25" y="292.9102">PhaseRunner</text><line style="stroke: #A80036; stroke-width: 1.5;" x1="330" x2="717" y1="304" y2="304"/><polygon fill="none" points="340,311.418,344,315.418,340,319.418,336,315.418" style="stroke: #B38D22; stroke-width: 1.0;"/><text fill="#000000" font-family="sans-serif" font-size="11" lengthAdjust="spacingAndGlyphs" textLength="75" x="349" y="319.4189">phases:Phase[]</text><polygon fill="none" points="340,325.2539,344,329.2539,340,333.2539,336,329.2539" style="stroke: #B38D22; stroke-width: 1.0;"/><text fill="#000000" font-family="sans-serif" font-size="11" lengthAdjust="spacingAndGlyphs" textLength="82" x="349" y="333.2549">someInput:Result</text><polygon fill="none" points="340,339.0898,344,343.0898,340,347.0898,336,343.0898" style="stroke: #B38D22; stroke-width: 1.0;"/><text fill="#000000" font-family="sans-serif" font-size="11" lengthAdjust="spacingAndGlyphs" textLength="83" x="349" y="347.0908">callback:Function</text><polygon fill="none" points="340,352.9258,344,356.9258,340,360.9258,336,356.9258" style="stroke: #B38D22; stroke-width: 1.0;"/><text fill="#000000" font-family="sans-serif" font-size="11" lengthAdjust="spacingAndGlyphs" textLength="75" x="349" y="360.9268">currentIndex:Int</text><line style="stroke: #A80036; stroke-width: 1.5;" x1="330" x2="717" y1="367.3438" y2="367.3438"/><ellipse cx="340" cy="379.7617" fill="#84BE84" rx="3" ry="3" style="stroke: #038048; stroke-width: 1.0;"/><text fill="#000000" font-family="sans-serif" font-size="11" lengthAdjust="spacingAndGlyphs" textLength="363" x="349" y="382.7627">PhaseRunner(phases:Phase[], someInput:Result, callback:Function(Result))</text><ellipse cx="340" cy="393.5977" fill="#84BE84" rx="3" ry="3" style="stroke: #038048; stroke-width: 1.0;"/><text fill="#000000" font-family="sans-serif" font-size="11" lengthAdjust="spacingAndGlyphs" textLength="53" x="349" y="396.5986">void start()</text><ellipse cx="340" cy="407.4336" fill="#84BE84" rx="3" ry="3" style="stroke: #038048; stroke-width: 1.0;"/><text fill="#000000" font-family="sans-serif" font-size="11" lengthAdjust="spacingAndGlyphs" textLength="129" x="349" y="410.4346">void stopAndCallCallback()</text><polygon fill="#FFFF44" points="340,416.2695,344,420.2695,340,424.2695,336,420.2695" style="stroke: #B38D22; stroke-width: 1.0;"/><text fill="#000000" font-family="sans-serif" font-size="11" lengthAdjust="spacingAndGlyphs" textLength="140" x="349" y="424.2705">phaseCallback(index, Result)</text><rect fill="#FEFECE" filter="url(#f1)" height="158.6875" style="stroke: #A80036; stroke-width: 1.5;" width="210" x="418.5" y="509"/><ellipse cx="501.75" cy="525" fill="#A9DCDF" rx="11" ry="11" style="stroke: #A80036; stroke-width: 1.0;"/><path d="M503.9375,526.7656 L499.7969,526.7656 L499.375,527.7969 L499.7969,527.7969 Q500.4063,527.7969 500.6719,528.0313 Q500.9375,528.2656 500.9375,528.6563 Q500.9375,529.0313 500.6719,529.2656 Q500.4063,529.5 499.7969,529.5 L497.5,529.5 Q496.8906,529.5 496.6328,529.2656 Q496.375,529.0313 496.375,528.6406 Q496.375,528.2656 496.6484,528.0234 Q496.9219,527.7813 497.5469,527.7969 L500.2188,521.1406 L499.1094,521.1406 Q498.5,521.1406 498.2344,520.9063 Q497.9688,520.6719 497.9688,520.2813 Q497.9688,519.9063 498.2344,519.6719 Q498.5,519.4375 499.1094,519.4375 L502.7813,519.4375 L506.1719,527.7969 Q506.7656,527.7969 506.9531,527.9375 Q507.3438,528.2031 507.3438,528.6563 Q507.3438,529.0313 507.0859,529.2656 Q506.8281,529.5 506.2188,529.5 L503.9219,529.5 Q503.3125,529.5 503.0469,529.2656 Q502.7813,529.0313 502.7813,528.6406 Q502.7813,528.2656 503.0469,528.0313 Q503.3125,527.7969 503.9219,527.7969 L504.3438,527.7969 L503.9375,526.7656 Z M503.2188,525.0625 L501.8594,521.6875 L500.4844,525.0625 L503.2188,525.0625 Z "/><text fill="#000000" font-family="sans-serif" font-size="12" font-style="italic" lengthAdjust="spacingAndGlyphs" textLength="35" x="522.25" y="529.9102">Phase</text><line style="stroke: #A80036; stroke-width: 1.5;" x1="419.5" x2="627.5" y1="541" y2="541"/><polygon fill="none" points="429.5,548.418,433.5,552.418,429.5,556.418,425.5,552.418" style="stroke: #B38D22; stroke-width: 1.0;"/><text fill="#000000" font-family="sans-serif" font-size="11" lengthAdjust="spacingAndGlyphs" textLength="85" x="438.5" y="556.4189">prevResult:Result</text><polygon fill="none" points="429.5,562.2539,433.5,566.2539,429.5,570.2539,425.5,566.2539" style="stroke: #B38D22; stroke-width: 1.0;"/><text fill="#000000" font-family="sans-serif" font-size="11" lengthAdjust="spacingAndGlyphs" textLength="83" x="438.5" y="570.2549">callback:Function</text><polygon fill="none" points="429.5,576.0898,433.5,580.0898,429.5,584.0898,425.5,580.0898" style="stroke: #B38D22; stroke-width: 1.0;"/><text fill="#000000" font-family="sans-serif" font-size="11" lengthAdjust="spacingAndGlyphs" textLength="82" x="438.5" y="584.0908">state:PhaseState</text><polygon fill="none" points="429.5,589.9258,433.5,593.9258,429.5,597.9258,425.5,593.9258" style="stroke: #B38D22; stroke-width: 1.0;"/><text fill="#000000" font-family="sans-serif" font-size="11" lengthAdjust="spacingAndGlyphs" textLength="60" x="438.5" y="597.9268">result:Result</text><line style="stroke: #A80036; stroke-width: 1.5;" x1="419.5" x2="627.5" y1="604.3438" y2="604.3438"/><ellipse cx="429.5" cy="616.7617" fill="#84BE84" rx="3" ry="3" style="stroke: #038048; stroke-width: 1.0;"/><text fill="#000000" font-family="sans-serif" font-size="11" lengthAdjust="spacingAndGlyphs" textLength="123" x="438.5" y="619.7627">Phase(prevResult:Result)</text><ellipse cx="429.5" cy="630.5977" fill="#84BE84" rx="3" ry="3" style="stroke: #038048; stroke-width: 1.0;"/><text fill="#000000" font-family="sans-serif" font-size="11" lengthAdjust="spacingAndGlyphs" textLength="184" x="438.5" y="633.5986">setCallback(callback:Function(Result))</text><ellipse cx="429.5" cy="644.4336" fill="#84BE84" rx="3" ry="3" style="stroke: #038048; stroke-width: 1.0;"/><text fill="#000000" font-family="sans-serif" font-size="11" lengthAdjust="spacingAndGlyphs" textLength="53" x="438.5" y="647.4346">void start()</text><polygon fill="#FFFF44" points="429.5,653.2695,433.5,657.2695,429.5,661.2695,425.5,657.2695" style="stroke: #B38D22; stroke-width: 1.0;"/><text fill="#000000" font-family="sans-serif" font-size="11" lengthAdjust="spacingAndGlyphs" textLength="57" x="438.5" y="661.2705">void finish()</text><rect fill="#FEFECE" filter="url(#f1)" height="75.6719" style="stroke: #A80036; stroke-width: 1.5;" width="96" x="132.5" y="795.5"/><ellipse cx="147.5" cy="811.5" fill="#EB937F" rx="11" ry="11" style="stroke: #A80036; stroke-width: 1.0;"/><path d="M146.3594,812.2969 L146.3594,814.7969 L150.6875,814.7969 L150.6875,813.875 Q150.6875,813.2656 150.9297,813 Q151.1719,812.7344 151.5469,812.7344 Q151.9219,812.7344 152.1563,813 Q152.3906,813.2656 152.3906,813.875 L152.3906,816.5 L144.3906,816.5 Q143.7656,816.5 143.5078,816.2656 Q143.25,816.0313 143.25,815.6406 Q143.25,815.2656 143.5156,815.0313 Q143.7813,814.7969 144.3906,814.7969 L144.6563,814.7969 L144.6563,808.1406 L144.3906,808.1406 Q143.7656,808.1406 143.5078,807.9063 Q143.25,807.6719 143.25,807.2813 Q143.25,806.9063 143.5078,806.6719 Q143.7656,806.4375 144.3906,806.4375 L152.0156,806.4375 L152.0156,809.0313 Q152.0156,809.6406 151.7891,809.8984 Q151.5625,810.1563 151.1719,810.1563 Q150.7969,810.1563 150.5625,809.8984 Q150.3281,809.6406 150.3281,809.0313 L150.3281,808.1406 L146.3594,808.1406 L146.3594,810.5938 L147.8438,810.5938 Q147.8438,809.9375 147.9688,809.75 Q148.2344,809.3438 148.7031,809.3438 Q149.0781,809.3438 149.3125,809.6016 Q149.5469,809.8594 149.5469,810.4688 L149.5469,812.4375 Q149.5469,812.9844 149.4219,813.1719 Q149.1563,813.5625 148.7031,813.5625 Q148.2344,813.5625 147.9688,813.1563 Q147.8438,812.9688 147.8438,812.2969 L146.3594,812.2969 Z "/><text fill="#000000" font-family="sans-serif" font-size="12" lengthAdjust="spacingAndGlyphs" textLength="64" x="161.5" y="816.4102">PhaseState</text><line style="stroke: #A80036; stroke-width: 1.5;" x1="133.5" x2="227.5" y1="827.5" y2="827.5"/><ellipse cx="143.5" cy="839.918" fill="none" rx="3" ry="3" style="stroke: #038048; stroke-width: 1.0;"/><text fill="#000000" font-family="sans-serif" font-size="11" lengthAdjust="spacingAndGlyphs" textLength="68" x="152.5" y="842.9189">NotStartedYet</text><ellipse cx="143.5" cy="853.7539" fill="none" rx="3" ry="3" style="stroke: #038048; stroke-width: 1.0;"/><text fill="#000000" font-family="sans-serif" font-size="11" lengthAdjust="spacingAndGlyphs" textLength="25" x="152.5" y="856.7549">Done</text><line style="stroke: #A80036; stroke-width: 1.5;" x1="133.5" x2="227.5" y1="863.1719" y2="863.1719"/><rect fill="#FEFECE" filter="url(#f1)" height="85.5078" style="stroke: #A80036; stroke-width: 1.5;" width="152" x="263.5" y="790.5"/><ellipse cx="316.25" cy="806.5" fill="#ADD1B2" rx="11" ry="11" style="stroke: #A80036; stroke-width: 1.0;"/><path d="M319.0156,802.375 Q319.1719,802.1563 319.3594,802.0469 Q319.5469,801.9375 319.7656,801.9375 Q320.1406,801.9375 320.375,802.1953 Q320.6094,802.4531 320.6094,803.0625 L320.6094,804.5156 Q320.6094,805.125 320.375,805.3906 Q320.1406,805.6563 319.7656,805.6563 Q319.4219,805.6563 319.2188,805.4531 Q319.0156,805.2656 318.9063,804.75 Q318.8594,804.3906 318.6719,804.2031 Q318.3438,803.8281 317.7344,803.6094 Q317.125,803.3906 316.5,803.3906 Q315.7344,803.3906 315.1016,803.7188 Q314.4688,804.0469 313.9766,804.7969 Q313.4844,805.5469 313.4844,806.5781 L313.4844,807.6719 Q313.4844,808.9063 314.375,809.7266 Q315.2656,810.5469 316.8594,810.5469 Q317.7969,810.5469 318.4531,810.2969 Q318.8438,810.1406 319.2656,809.7031 Q319.5313,809.4375 319.6797,809.3594 Q319.8281,809.2813 320.0313,809.2813 Q320.3594,809.2813 320.6172,809.5391 Q320.875,809.7969 320.875,810.1406 Q320.875,810.4844 320.5313,810.8906 Q320.0313,811.4688 319.2344,811.7969 Q318.1563,812.25 316.8594,812.25 Q315.3438,812.25 314.1406,811.625 Q313.1563,811.125 312.4688,810.0547 Q311.7813,808.9844 311.7813,807.7031 L311.7813,806.5469 Q311.7813,805.2188 312.3984,804.0703 Q313.0156,802.9219 314.1094,802.3047 Q315.2031,801.6875 316.4375,801.6875 Q317.1719,801.6875 317.8203,801.8516 Q318.4688,802.0156 319.0156,802.375 Z "/><text fill="#000000" font-family="sans-serif" font-size="12" lengthAdjust="spacingAndGlyphs" textLength="38" x="336.75" y="811.4102">Logout</text><line style="stroke: #A80036; stroke-width: 1.5;" x1="264.5" x2="414.5" y1="822.5" y2="822.5"/><ellipse cx="274.5" cy="852.7539" fill="#84BE84" rx="3" ry="3" style="stroke: #038048; stroke-width: 1.0;"/><text fill="#000000" font-family="sans-serif" font-size="11" lengthAdjust="spacingAndGlyphs" textLength="126" x="283.5" y="855.7549">Logout(prevResult:Result)</text><polygon fill="#FFFF44" points="274.5,861.5898,278.5,865.5898,274.5,869.5898,270.5,865.5898" style="stroke: #B38D22; stroke-width: 1.0;"/><text fill="#000000" font-family="sans-serif" font-size="11" lengthAdjust="spacingAndGlyphs" textLength="90" x="283.5" y="869.5908">logoutHandler(xhr)</text><line style="stroke: #A80036; stroke-width: 1.0; stroke-dasharray: 1.0,2.0;" x1="264.5" x2="292" y1="837.418" y2="837.418"/><text fill="#000000" font-family="sans-serif" font-size="11" lengthAdjust="spacingAndGlyphs" textLength="95" x="292" y="841.4189">Needs no data at all</text><line style="stroke: #A80036; stroke-width: 1.0; stroke-dasharray: 1.0,2.0;" x1="387" x2="414.5" y1="837.418" y2="837.418"/><rect fill="#FEFECE" filter="url(#f1)" height="85.5078" style="stroke: #A80036; stroke-width: 1.5;" width="145" x="451" y="790.5"/><ellipse cx="503.75" cy="806.5" fill="#ADD1B2" rx="11" ry="11" style="stroke: #A80036; stroke-width: 1.0;"/><path d="M506.5156,802.375 Q506.6719,802.1563 506.8594,802.0469 Q507.0469,801.9375 507.2656,801.9375 Q507.6406,801.9375 507.875,802.1953 Q508.1094,802.4531 508.1094,803.0625 L508.1094,804.5156 Q508.1094,805.125 507.875,805.3906 Q507.6406,805.6563 507.2656,805.6563 Q506.9219,805.6563 506.7188,805.4531 Q506.5156,805.2656 506.4063,804.75 Q506.3594,804.3906 506.1719,804.2031 Q505.8438,803.8281 505.2344,803.6094 Q504.625,803.3906 504,803.3906 Q503.2344,803.3906 502.6016,803.7188 Q501.9688,804.0469 501.4766,804.7969 Q500.9844,805.5469 500.9844,806.5781 L500.9844,807.6719 Q500.9844,808.9063 501.875,809.7266 Q502.7656,810.5469 504.3594,810.5469 Q505.2969,810.5469 505.9531,810.2969 Q506.3438,810.1406 506.7656,809.7031 Q507.0313,809.4375 507.1797,809.3594 Q507.3281,809.2813 507.5313,809.2813 Q507.8594,809.2813 508.1172,809.5391 Q508.375,809.7969 508.375,810.1406 Q508.375,810.4844 508.0313,810.8906 Q507.5313,811.4688 506.7344,811.7969 Q505.6563,812.25 504.3594,812.25 Q502.8438,812.25 501.6406,811.625 Q500.6563,811.125 499.9688,810.0547 Q499.2813,808.9844 499.2813,807.7031 L499.2813,806.5469 Q499.2813,805.2188 499.8984,804.0703 Q500.5156,802.9219 501.6094,802.3047 Q502.7031,801.6875 503.9375,801.6875 Q504.6719,801.6875 505.3203,801.8516 Q505.9688,802.0156 506.5156,802.375 Z "/><text fill="#000000" font-family="sans-serif" font-size="12" lengthAdjust="spacingAndGlyphs" textLength="31" x="524.25" y="811.4102">Login</text><line style="stroke: #A80036; stroke-width: 1.5;" x1="452" x2="595" y1="822.5" y2="822.5"/><ellipse cx="462" cy="852.7539" fill="#84BE84" rx="3" ry="3" style="stroke: #038048; stroke-width: 1.0;"/><text fill="#000000" font-family="sans-serif" font-size="11" lengthAdjust="spacingAndGlyphs" textLength="119" x="471" y="855.7549">Login(prevResult:Result)</text><polygon fill="#FFFF44" points="462,861.5898,466,865.5898,462,869.5898,458,865.5898" style="stroke: #B38D22; stroke-width: 1.0;"/><text fill="#000000" font-family="sans-serif" font-size="11" lengthAdjust="spacingAndGlyphs" textLength="83" x="471" y="869.5908">loginHandler(xhr)</text><line style="stroke: #A80036; stroke-width: 1.0; stroke-dasharray: 1.0,2.0;" x1="452" x2="493.5" y1="837.418" y2="837.418"/><text fill="#000000" font-family="sans-serif" font-size="11" lengthAdjust="spacingAndGlyphs" textLength="60" x="493.5" y="841.4189">{user, pass}</text><line style="stroke: #A80036; stroke-width: 1.0; stroke-dasharray: 1.0,2.0;" x1="553.5" x2="595" y1="837.418" y2="837.418"/><rect fill="#FEFECE" filter="url(#f1)" height="175.4414" style="stroke: #A80036; stroke-width: 1.5;" width="166" x="631.5" y="746"/><ellipse cx="684.75" cy="762" fill="#ADD1B2" rx="11" ry="11" style="stroke: #A80036; stroke-width: 1.0;"/><path d="M687.5156,757.875 Q687.6719,757.6563 687.8594,757.5469 Q688.0469,757.4375 688.2656,757.4375 Q688.6406,757.4375 688.875,757.6953 Q689.1094,757.9531 689.1094,758.5625 L689.1094,760.0156 Q689.1094,760.625 688.875,760.8906 Q688.6406,761.1563 688.2656,761.1563 Q687.9219,761.1563 687.7188,760.9531 Q687.5156,760.7656 687.4063,760.25 Q687.3594,759.8906 687.1719,759.7031 Q686.8438,759.3281 686.2344,759.1094 Q685.625,758.8906 685,758.8906 Q684.2344,758.8906 683.6016,759.2188 Q682.9688,759.5469 682.4766,760.2969 Q681.9844,761.0469 681.9844,762.0781 L681.9844,763.1719 Q681.9844,764.4063 682.875,765.2266 Q683.7656,766.0469 685.3594,766.0469 Q686.2969,766.0469 686.9531,765.7969 Q687.3438,765.6406 687.7656,765.2031 Q688.0313,764.9375 688.1797,764.8594 Q688.3281,764.7813 688.5313,764.7813 Q688.8594,764.7813 689.1172,765.0391 Q689.375,765.2969 689.375,765.6406 Q689.375,765.9844 689.0313,766.3906 Q688.5313,766.9688 687.7344,767.2969 Q686.6563,767.75 685.3594,767.75 Q683.8438,767.75 682.6406,767.125 Q681.6563,766.625 680.9688,765.5547 Q680.2813,764.4844 680.2813,763.2031 L680.2813,762.0469 Q680.2813,760.7188 680.8984,759.5703 Q681.5156,758.4219 682.6094,757.8047 Q683.7031,757.1875 684.9375,757.1875 Q685.6719,757.1875 686.3203,757.3516 Q686.9688,757.5156 687.5156,757.875 Z "/><text fill="#000000" font-family="sans-serif" font-size="12" lengthAdjust="spacingAndGlyphs" textLength="51" x="705.25" y="766.9102">GetYears</text><line style="stroke: #A80036; stroke-width: 1.5;" x1="632.5" x2="796.5" y1="778" y2="778"/><line style="stroke: #A80036; stroke-width: 1.0; stroke-dasharray: 1.0,2.0;" x1="632.5" x2="668.5" y1="792.918" y2="792.918"/><text fill="#000000" font-family="sans-serif" font-size="11" lengthAdjust="spacingAndGlyphs" textLength="92" x="668.5" y="796.9189">Assumes logged in</text><line style="stroke: #A80036; stroke-width: 1.0; stroke-dasharray: 1.0,2.0;" x1="760.5" x2="796.5" y1="792.918" y2="792.918"/><polygon fill="none" points="642.5,824.0078,646.5,828.0078,642.5,832.0078,638.5,828.0078" style="stroke: #B38D22; stroke-width: 1.0;"/><text fill="#000000" font-family="sans-serif" font-size="11" lengthAdjust="spacingAndGlyphs" textLength="69" x="651.5" y="832.0088">termsCount:Int</text><polygon fill="none" points="642.5,837.8438,646.5,841.8438,642.5,845.8438,638.5,841.8438" style="stroke: #B38D22; stroke-width: 1.0;"/><text fill="#000000" font-family="sans-serif" font-size="11" lengthAdjust="spacingAndGlyphs" textLength="108" x="651.5" y="845.8447">years:String Array[3][]</text><ellipse cx="642.5" cy="856.6797" fill="#84BE84" rx="3" ry="3" style="stroke: #038048; stroke-width: 1.0;"/><text fill="#000000" font-family="sans-serif" font-size="11" lengthAdjust="spacingAndGlyphs" textLength="140" x="651.5" y="859.6807">GetYears(prevResult:Result)</text><polygon fill="#FFFF44" points="642.5,865.5156,646.5,869.5156,642.5,873.5156,638.5,869.5156" style="stroke: #B38D22; stroke-width: 1.0;"/><text fill="#000000" font-family="sans-serif" font-size="11" lengthAdjust="spacingAndGlyphs" textLength="106" x="651.5" y="873.5166">getYearsHandler(xhr)</text><line style="stroke: #A80036; stroke-width: 1.0; stroke-dasharray: 1.0,2.0;" x1="632.5" x2="699.5" y1="813.6719" y2="813.6719"/><text fill="#000000" font-family="sans-serif" font-size="11" lengthAdjust="spacingAndGlyphs" textLength="30" x="699.5" y="817.6729">{user}</text><line style="stroke: #A80036; stroke-width: 1.0; stroke-dasharray: 1.0,2.0;" x1="729.5" x2="796.5" y1="813.6719" y2="813.6719"/><line style="stroke: #A80036; stroke-width: 1.0; stroke-dasharray: 1.0,2.0;" x1="632.5" x2="645.5" y1="886.8516" y2="886.8516"/><text fill="#000000" font-family="sans-serif" font-size="11" lengthAdjust="spacingAndGlyphs" textLength="138" x="645.5" y="890.8525">result:years:String Array[3][]</text><line style="stroke: #A80036; stroke-width: 1.0; stroke-dasharray: 1.0,2.0;" x1="783.5" x2="796.5" y1="886.8516" y2="886.8516"/><line style="stroke: #A80036; stroke-width: 1.0; stroke-dasharray: 1.0,2.0;" x1="632.5" x2="646.5" y1="907.6055" y2="907.6055"/><text fill="#000000" font-family="sans-serif" font-size="11" lengthAdjust="spacingAndGlyphs" textLength="136" x="646.5" y="911.6064">Example: [['12', '11'], [], ['10']]</text><line style="stroke: #A80036; stroke-width: 1.0; stroke-dasharray: 1.0,2.0;" x1="782.5" x2="796.5" y1="907.6055" y2="907.6055"/><rect fill="#FEFECE" filter="url(#f1)" height="175.4414" style="stroke: #A80036; stroke-width: 1.5;" width="313" x="833" y="746"/><ellipse cx="945.25" cy="762" fill="#ADD1B2" rx="11" ry="11" style="stroke: #A80036; stroke-width: 1.0;"/><path d="M948.0156,757.875 Q948.1719,757.6563 948.3594,757.5469 Q948.5469,757.4375 948.7656,757.4375 Q949.1406,757.4375 949.375,757.6953 Q949.6094,757.9531 949.6094,758.5625 L949.6094,760.0156 Q949.6094,760.625 949.375,760.8906 Q949.1406,761.1563 948.7656,761.1563 Q948.4219,761.1563 948.2188,760.9531 Q948.0156,760.7656 947.9063,760.25 Q947.8594,759.8906 947.6719,759.7031 Q947.3438,759.3281 946.7344,759.1094 Q946.125,758.8906 945.5,758.8906 Q944.7344,758.8906 944.1016,759.2188 Q943.4688,759.5469 942.9766,760.2969 Q942.4844,761.0469 942.4844,762.0781 L942.4844,763.1719 Q942.4844,764.4063 943.375,765.2266 Q944.2656,766.0469 945.8594,766.0469 Q946.7969,766.0469 947.4531,765.7969 Q947.8438,765.6406 948.2656,765.2031 Q948.5313,764.9375 948.6797,764.8594 Q948.8281,764.7813 949.0313,764.7813 Q949.3594,764.7813 949.6172,765.0391 Q949.875,765.2969 949.875,765.6406 Q949.875,765.9844 949.5313,766.3906 Q949.0313,766.9688 948.2344,767.2969 Q947.1563,767.75 945.8594,767.75 Q944.3438,767.75 943.1406,767.125 Q942.1563,766.625 941.4688,765.5547 Q940.7813,764.4844 940.7813,763.2031 L940.7813,762.0469 Q940.7813,760.7188 941.3984,759.5703 Q942.0156,758.4219 943.1094,757.8047 Q944.2031,757.1875 945.4375,757.1875 Q946.1719,757.1875 946.8203,757.3516 Q947.4688,757.5156 948.0156,757.875 Z "/><text fill="#000000" font-family="sans-serif" font-size="12" lengthAdjust="spacingAndGlyphs" textLength="80" x="965.75" y="766.9102">ScrapeGrades</text><line style="stroke: #A80036; stroke-width: 1.5;" x1="834" x2="1145" y1="778" y2="778"/><line style="stroke: #A80036; stroke-width: 1.0; stroke-dasharray: 1.0,2.0;" x1="834" x2="943.5" y1="792.918" y2="792.918"/><text fill="#000000" font-family="sans-serif" font-size="11" lengthAdjust="spacingAndGlyphs" textLength="92" x="943.5" y="796.9189">Assumes logged in</text><line style="stroke: #A80036; stroke-width: 1.0; stroke-dasharray: 1.0,2.0;" x1="1035.5" x2="1145" y1="792.918" y2="792.918"/><polygon fill="none" points="844,824.0078,848,828.0078,844,832.0078,840,828.0078" style="stroke: #B38D22; stroke-width: 1.0;"/><text fill="#000000" font-family="sans-serif" font-size="11" lengthAdjust="spacingAndGlyphs" textLength="111" x="853" y="832.0088">termsYearsCount:Int[3]</text><polygon fill="none" points="844,837.8438,848,841.8438,844,845.8438,840,841.8438" style="stroke: #B38D22; stroke-width: 1.0;"/><text fill="#000000" font-family="sans-serif" font-size="11" lengthAdjust="spacingAndGlyphs" textLength="138" x="853" y="845.8447">doneTermsYearsCount:Int[3]</text><ellipse cx="844" cy="856.6797" fill="#84BE84" rx="3" ry="3" style="stroke: #038048; stroke-width: 1.0;"/><text fill="#000000" font-family="sans-serif" font-size="11" lengthAdjust="spacingAndGlyphs" textLength="164" x="853" y="859.6807">ScrapeGrades(prevResult:Result)</text><polygon fill="#FFFF44" points="844,865.5156,848,869.5156,844,873.5156,840,869.5156" style="stroke: #B38D22; stroke-width: 1.0;"/><text fill="#000000" font-family="sans-serif" font-size="11" lengthAdjust="spacingAndGlyphs" textLength="119" x="853" y="873.5166">scrapeTermHandler(xhr)</text><line style="stroke: #A80036; stroke-width: 1.0; stroke-dasharray: 1.0,2.0;" x1="834" x2="917.5" y1="813.6719" y2="813.6719"/><text fill="#000000" font-family="sans-serif" font-size="11" lengthAdjust="spacingAndGlyphs" textLength="144" x="917.5" y="817.6729">{user, years:String Array[3][]}</text><line style="stroke: #A80036; stroke-width: 1.0; stroke-dasharray: 1.0,2.0;" x1="1061.5" x2="1145" y1="813.6719" y2="813.6719"/><line style="stroke: #A80036; stroke-width: 1.0; stroke-dasharray: 1.0,2.0;" x1="834" x2="837" y1="886.8516" y2="886.8516"/><text fill="#000000" font-family="sans-serif" font-size="11" lengthAdjust="spacingAndGlyphs" textLength="305" x="837" y="890.8525">result:{0..*String:Array[3] each either HTML Table or undefined}</text><line style="stroke: #A80036; stroke-width: 1.0; stroke-dasharray: 1.0,2.0;" x1="1142" x2="1145" y1="886.8516" y2="886.8516"/><line style="stroke: #A80036; stroke-width: 1.0; stroke-dasharray: 1.0,2.0;" x1="834" x2="866" y1="907.6055" y2="907.6055"/><text fill="#000000" font-family="sans-serif" font-size="11" lengthAdjust="spacingAndGlyphs" textLength="247" x="866" y="911.6064">Example: {'12':[HT, undefined, HT], '10':[HT, HT, HT]}</text><line style="stroke: #A80036; stroke-width: 1.0; stroke-dasharray: 1.0,2.0;" x1="1113" x2="1145" y1="907.6055" y2="907.6055"/><polygon fill="#FBFB77" filter="url(#f1)" points="180,982,180,1008.3516,499,1008.3516,499,992,489,982,180,982" style="stroke: #A80036; stroke-width: 1.0;"/><polygon fill="#FBFB77" points="180,982,180,1008.3516,499,1008.3516,499,992,489,982,343.5,982,339.5,876.824,335.5,982,180,982" style="stroke: #A80036; stroke-width: 1.0;"/><line style="stroke: #A80036; stroke-width: 1.0;" x1="489" x2="489" y1="982" y2="992"/><line style="stroke: #A80036; stroke-width: 1.0;" x1="499" x2="489" y1="992" y2="992"/><text fill="#000000" font-family="sans-serif" font-size="13" lengthAdjust="spacingAndGlyphs" textLength="298" x="186" y="1000.4951">Only class that does the work even if err.length &gt; 0.</text><polygon fill="#FBFB77" filter="url(#f1)" points="367,88,367,114.3516,680,114.3516,680,98,670,88,367,88" style="stroke: #A80036; stroke-width: 1.0;"/><polygon fill="#FBFB77" points="367,88,367,114.3516,519.5,114.3516,523.5,271.817,527.5,114.3516,680,114.3516,680,98,670,88,367,88" style="stroke: #A80036; stroke-width: 1.0;"/><line style="stroke: #A80036; stroke-width: 1.0;" x1="670" x2="670" y1="88" y2="98"/><line style="stroke: #A80036; stroke-width: 1.0;" x1="680" x2="670" y1="98" y2="98"/><text fill="#000000" font-family="sans-serif" font-size="13" lengthAdjust="spacingAndGlyphs" textLength="292" x="373" y="106.4951">PhaseRunner is a Singleton. No impl. details here.</text><rect fill="#FEFECE" filter="url(#f1)" height="75.6719" style="stroke: #A80036; stroke-width: 1.5;" width="219" x="715" y="63"/><ellipse cx="802.25" cy="79" fill="#ADD1B2" rx="11" ry="11" style="stroke: #A80036; stroke-width: 1.0;"/><path d="M805.0156,74.875 Q805.1719,74.6563 805.3594,74.5469 Q805.5469,74.4375 805.7656,74.4375 Q806.1406,74.4375 806.375,74.6953 Q806.6094,74.9531 806.6094,75.5625 L806.6094,77.0156 Q806.6094,77.625 806.375,77.8906 Q806.1406,78.1563 805.7656,78.1563 Q805.4219,78.1563 805.2188,77.9531 Q805.0156,77.7656 804.9063,77.25 Q804.8594,76.8906 804.6719,76.7031 Q804.3438,76.3281 803.7344,76.1094 Q803.125,75.8906 802.5,75.8906 Q801.7344,75.8906 801.1016,76.2188 Q800.4688,76.5469 799.9766,77.2969 Q799.4844,78.0469 799.4844,79.0781 L799.4844,80.1719 Q799.4844,81.4063 800.375,82.2266 Q801.2656,83.0469 802.8594,83.0469 Q803.7969,83.0469 804.4531,82.7969 Q804.8438,82.6406 805.2656,82.2031 Q805.5313,81.9375 805.6797,81.8594 Q805.8281,81.7813 806.0313,81.7813 Q806.3594,81.7813 806.6172,82.0391 Q806.875,82.2969 806.875,82.6406 Q806.875,82.9844 806.5313,83.3906 Q806.0313,83.9688 805.2344,84.2969 Q804.1563,84.75 802.8594,84.75 Q801.3438,84.75 800.1406,84.125 Q799.1563,83.625 798.4688,82.5547 Q797.7813,81.4844 797.7813,80.2031 L797.7813,79.0469 Q797.7813,77.7188 798.3984,76.5703 Q799.0156,75.4219 800.1094,74.8047 Q801.2031,74.1875 802.4375,74.1875 Q803.1719,74.1875 803.8203,74.3516 Q804.4688,74.5156 805.0156,74.875 Z "/><text fill="#000000" font-family="sans-serif" font-size="12" lengthAdjust="spacingAndGlyphs" textLength="36" x="822.75" y="83.9102">Result</text><line style="stroke: #A80036; stroke-width: 1.5;" x1="716" x2="933" y1="95" y2="95"/><ellipse cx="726" cy="107.418" fill="none" rx="3" ry="3" style="stroke: #038048; stroke-width: 1.0;"/><text fill="#000000" font-family="sans-serif" font-size="11" lengthAdjust="spacingAndGlyphs" textLength="51" x="735" y="110.4189">err:String[]</text><ellipse cx="726" cy="121.2539" fill="none" rx="3" ry="3" style="stroke: #038048; stroke-width: 1.0;"/><text fill="#000000" font-family="sans-serif" font-size="11" lengthAdjust="spacingAndGlyphs" textLength="193" x="735" y="124.2549">user:String, for checking on most pages</text><line style="stroke: #A80036; stroke-width: 1.5;" x1="716" x2="933" y1="130.6719" y2="130.6719"/><rect fill="#FEFECE" filter="url(#f1)" height="158.6875" style="stroke: #A80036; stroke-width: 1.5;" width="369" x="969" y="21.5"/><ellipse cx="1128.75" cy="37.5" fill="#ADD1B2" rx="11" ry="11" style="stroke: #A80036; stroke-width: 1.0;"/><path d="M1131.5156,33.375 Q1131.6719,33.1563 1131.8594,33.0469 Q1132.0469,32.9375 1132.2656,32.9375 Q1132.6406,32.9375 1132.875,33.1953 Q1133.1094,33.4531 1133.1094,34.0625 L1133.1094,35.5156 Q1133.1094,36.125 1132.875,36.3906 Q1132.6406,36.6563 1132.2656,36.6563 Q1131.9219,36.6563 1131.7188,36.4531 Q1131.5156,36.2656 1131.4063,35.75 Q1131.3594,35.3906 1131.1719,35.2031 Q1130.8438,34.8281 1130.2344,34.6094 Q1129.625,34.3906 1129,34.3906 Q1128.2344,34.3906 1127.6016,34.7188 Q1126.9688,35.0469 1126.4766,35.7969 Q1125.9844,36.5469 1125.9844,37.5781 L1125.9844,38.6719 Q1125.9844,39.9063 1126.875,40.7266 Q1127.7656,41.5469 1129.3594,41.5469 Q1130.2969,41.5469 1130.9531,41.2969 Q1131.3438,41.1406 1131.7656,40.7031 Q1132.0313,40.4375 1132.1797,40.3594 Q1132.3281,40.2813 1132.5313,40.2813 Q1132.8594,40.2813 1133.1172,40.5391 Q1133.375,40.7969 1133.375,41.1406 Q1133.375,41.4844 1133.0313,41.8906 Q1132.5313,42.4688 1131.7344,42.7969 Q1130.6563,43.25 1129.3594,43.25 Q1127.8438,43.25 1126.6406,42.625 Q1125.6563,42.125 1124.9688,41.0547 Q1124.2813,39.9844 1124.2813,38.7031 L1124.2813,37.5469 Q1124.2813,36.2188 1124.8984,35.0703 Q1125.5156,33.9219 1126.6094,33.3047 Q1127.7031,32.6875 1128.9375,32.6875 Q1129.6719,32.6875 1130.3203,32.8516 Q1130.9688,33.0156 1131.5156,33.375 Z "/><text fill="#000000" font-family="sans-serif" font-size="12" lengthAdjust="spacingAndGlyphs" textLength="41" x="1149.25" y="42.4102">Utilities</text><line style="stroke: #A80036; stroke-width: 1.5;" x1="970" x2="1337" y1="53.5" y2="53.5"/><line style="stroke: #A80036; stroke-width: 1.5;" x1="970" x2="1337" y1="61.5" y2="61.5"/><ellipse cx="980" cy="73.918" fill="#84BE84" rx="3" ry="3" style="stroke: #038048; stroke-width: 1.0;"/><text fill="#000000" font-family="sans-serif" font-size="11" lengthAdjust="spacingAndGlyphs" textLength="315" x="989" y="76.9189">void sendGET(url:String, handler:Function, infoForHandler:Object)</text><ellipse cx="980" cy="87.7539" fill="#84BE84" rx="3" ry="3" style="stroke: #038048; stroke-width: 1.0;"/><text fill="#000000" font-family="sans-serif" font-size="11" lengthAdjust="spacingAndGlyphs" textLength="343" x="989" y="90.7549">void sendPOST(url:String, nameValuePairs:Array[][2], handler:Function,</text><text fill="#000000" font-family="sans-serif" font-size="11" lengthAdjust="spacingAndGlyphs" textLength="109" x="1019" y="104.5908">infoForHandler:Object)</text><ellipse cx="980" cy="115.4258" fill="#84BE84" rx="3" ry="3" style="stroke: #038048; stroke-width: 1.0;"/><text fill="#000000" font-family="sans-serif" font-size="11" lengthAdjust="spacingAndGlyphs" textLength="218" x="989" y="118.4268">DOMObject parseHTML(anHTMLString:String)</text><ellipse cx="980" cy="129.2617" fill="#84BE84" rx="3" ry="3" style="stroke: #038048; stroke-width: 1.0;"/><text fill="#000000" font-family="sans-serif" font-size="11" lengthAdjust="spacingAndGlyphs" textLength="249" x="989" y="132.2627">Bool/String checkUser(user:String, doc:DOMObject)</text><ellipse cx="980" cy="143.0977" fill="#84BE84" rx="3" ry="3" style="stroke: #038048; stroke-width: 1.0;"/><text fill="#000000" font-family="sans-serif" font-size="11" lengthAdjust="spacingAndGlyphs" textLength="237" x="989" y="146.0986">Function curryOneParam(fn:Function, param:var)</text><ellipse cx="980" cy="156.9336" fill="#84BE84" rx="3" ry="3" style="stroke: #038048; stroke-width: 1.0;"/><text fill="#000000" font-family="sans-serif" font-size="11" lengthAdjust="spacingAndGlyphs" textLength="166" x="989" y="159.9346">Bool/DOMObject handlerBase(xhr)</text><polygon fill="#FFFF44" points="980,165.7695,984,169.7695,980,173.7695,976,169.7695" style="stroke: #B38D22; stroke-width: 1.0;"/><text fill="#000000" font-family="sans-serif" font-size="11" lengthAdjust="spacingAndGlyphs" textLength="303" x="989" y="173.7705">void initReq(url:String, handler:Function, infoForHandler:Object)</text><path d="M114.448,415.926 C98.1773,464.947 76.5765,530.026 65.2249,564.226 " fill="none" style="stroke: #A80036; stroke-width: 1.0;"/><polygon fill="none" points="107.885,413.478,120.829,396.702,121.172,417.889,107.885,413.478" style="stroke: #A80036; stroke-width: 1.0;"/><path d="M164.923,414.791 C186.665,460.822 215.317,521.483 232.238,557.306 " fill="none" style="stroke: #A80036; stroke-width: 1.0;"/><polygon fill="none" points="158.591,417.776,156.378,396.702,171.25,411.796,158.591,417.776" style="stroke: #A80036; stroke-width: 1.0;"/><path d="M135.5,194.179 C135.5,230.478 135.5,270.697 135.5,301.249 " fill="none" style="stroke: #A80036; stroke-width: 1.0;"/><polygon fill="#A80036" points="135.5,306.452,139.5,297.452,135.5,301.452,131.5,297.452,135.5,306.452" style="stroke: #A80036; stroke-width: 1.0;"/><text fill="#000000" font-family="sans-serif" font-size="13" lengthAdjust="spacingAndGlyphs" textLength="125" x="136.5" y="238.4951">at any times contains</text><text fill="#000000" font-family="sans-serif" font-size="13" lengthAdjust="spacingAndGlyphs" textLength="20" x="113.9063" y="295.5598">0..*</text><path d="M523.5,431.078 C523.5,454.497 523.5,480.242 523.5,503.966 " fill="none" style="stroke: #A80036; stroke-width: 1.0;"/><polygon fill="#A80036" points="523.5,508.996,527.5,499.996,523.5,503.996,519.5,499.996,523.5,508.996" style="stroke: #A80036; stroke-width: 1.0;"/><text fill="#000000" font-family="sans-serif" font-size="13" lengthAdjust="spacingAndGlyphs" textLength="21" x="524.5" y="475.4951">has</text><text fill="#000000" font-family="sans-serif" font-size="13" lengthAdjust="spacingAndGlyphs" textLength="20" x="502.5469" y="498.1825">0..*</text><path d="M418.355,642.923 C352.212,677.619 274.138,720.905 245.5,746 C230.778,758.9 217.272,775.63 206.43,790.935 " fill="none" style="stroke: #A80036; stroke-width: 1.0;"/><polygon fill="#A80036" points="203.444,795.21,211.8782,790.1242,206.3081,791.1116,205.3208,785.5416,203.444,795.21" style="stroke: #A80036; stroke-width: 1.0;"/><text fill="#000000" font-family="sans-serif" font-size="13" lengthAdjust="spacingAndGlyphs" textLength="21" x="316.5" y="712.4951">has</text><path d="M451.875,684.091 C424.065,720.819 393.639,761.001 371.469,790.281 " fill="none" style="stroke: #A80036; stroke-width: 1.0;"/><polygon fill="none" points="446.361,679.779,464.015,668.06,457.522,688.23,446.361,679.779" style="stroke: #A80036; stroke-width: 1.0;"/><path d="M523.5,688.554 C523.5,724.045 523.5,762.183 523.5,790.281 " fill="none" style="stroke: #A80036; stroke-width: 1.0;"/><polygon fill="none" points="516.5,688.06,523.5,668.06,530.5,688.06,516.5,688.06" style="stroke: #A80036; stroke-width: 1.0;"/><path d="M597.608,683.784 C613.655,704.199 630.55,725.695 646.354,745.801 " fill="none" style="stroke: #A80036; stroke-width: 1.0;"/><polygon fill="none" points="592.104,688.109,585.248,668.06,603.111,679.458,592.104,688.109" style="stroke: #A80036; stroke-width: 1.0;"/><path d="M646.394,653.584 C703.536,683.382 772.151,719.162 832.954,750.868 " fill="none" style="stroke: #A80036; stroke-width: 1.0;"/><polygon fill="none" points="643.158,659.791,628.661,644.337,649.631,647.378,643.158,659.791" style="stroke: #A80036; stroke-width: 1.0;"/></g></svg>