<?xml version="1.0" encoding="UTF-8" standalone="yes"?><svg xmlns="http://www.w3.org/2000/svg" xmlns:xlink="http://www.w3.org/1999/xlink" height="438px" style="width:816px;height:438px;" version="1.1" viewBox="0 0 816 438" width="816px"><defs><filter height="300%" id="f1" width="300%" x="-1" y="-1"><feGaussianBlur result="blurOut" stdDeviation="2.0"/><feColorMatrix in="blurOut" result="blurOut2" type="matrix" values="0 0 0 0 0 0 0 0 0 0 0 0 0 0 0 0 0 0 .4 0"/><feOffset dx="4.0" dy="4.0" in="blurOut2" result="blurOut3"/><feBlend in="SourceGraphic" in2="blurOut3" mode="normal"/></filter></defs><g><rect fill="#FEFECE" filter="url(#f1)" height="89.5078" style="stroke: #A80036; stroke-width: 1.5;" width="128" x="87.5" y="217"/><ellipse cx="124.55" cy="233" fill="#ADD1B2" rx="11" ry="11" style="stroke: #A80036; stroke-width: 1.0;"/><path d="M127.3156,228.875 Q127.4719,228.6563 127.6594,228.5469 Q127.8469,228.4375 128.0656,228.4375 Q128.4406,228.4375 128.675,228.6953 Q128.9094,228.9531 128.9094,229.5625 L128.9094,231.0156 Q128.9094,231.625 128.675,231.8906 Q128.4406,232.1563 128.0656,232.1563 Q127.7219,232.1563 127.5188,231.9531 Q127.3156,231.7656 127.2063,231.25 Q127.1594,230.8906 126.9719,230.7031 Q126.6438,230.3281 126.0344,230.1094 Q125.425,229.8906 124.8,229.8906 Q124.0344,229.8906 123.4016,230.2188 Q122.7688,230.5469 122.2766,231.2969 Q121.7844,232.0469 121.7844,233.0781 L121.7844,234.1719 Q121.7844,235.4063 122.675,236.2266 Q123.5656,237.0469 125.1594,237.0469 Q126.0969,237.0469 126.7531,236.7969 Q127.1438,236.6406 127.5656,236.2031 Q127.8313,235.9375 127.9797,235.8594 Q128.1281,235.7813 128.3313,235.7813 Q128.6594,235.7813 128.9172,236.0391 Q129.175,236.2969 129.175,236.6406 Q129.175,236.9844 128.8313,237.3906 Q128.3313,237.9688 127.5344,238.2969 Q126.4563,238.75 125.1594,238.75 Q123.6438,238.75 122.4406,238.125 Q121.4563,237.625 120.7688,236.5547 Q120.0813,235.4844 120.0813,234.2031 L120.0813,233.0469 Q120.0813,231.7188 120.6984,230.5703 Q121.3156,229.4219 122.4094,228.8047 Q123.5031,228.1875 124.7375,228.1875 Q125.4719,228.1875 126.1203,228.3516 Q126.7688,228.5156 127.3156,228.875 Z "/><text fill="#000000" font-family="sans-serif" font-size="12" lengthAdjust="spacingAndGlyphs" textLength="47" x="143.45" y="237.9102">Request</text><line style="stroke: #A80036; stroke-width: 1.5;" x1="88.5" x2="214.5" y1="249" y2="249"/><ellipse cx="98.5" cy="261.418" fill="none" rx="3" ry="3" style="stroke: #038048; stroke-width: 1.0;"/><text fill="#000000" font-family="sans-serif" font-size="11" lengthAdjust="spacingAndGlyphs" textLength="43" x="107.5" y="264.4189">url:String</text><ellipse cx="98.5" cy="275.2539" fill="none" rx="3" ry="3" style="stroke: #038048; stroke-width: 1.0;"/><text fill="#000000" font-family="sans-serif" font-size="11" lengthAdjust="spacingAndGlyphs" textLength="80" x="107.5" y="278.2549">handler:Function</text><ellipse cx="98.5" cy="289.0898" fill="none" rx="3" ry="3" style="stroke: #038048; stroke-width: 1.0;"/><text fill="#000000" font-family="sans-serif" font-size="11" lengthAdjust="spacingAndGlyphs" textLength="102" x="107.5" y="292.0908">infoForHandler:String</text><line style="stroke: #A80036; stroke-width: 1.5;" x1="88.5" x2="214.5" y1="298.5078" y2="298.5078"/><rect fill="#FEFECE" filter="url(#f1)" height="48" style="stroke: #A80036; stroke-width: 1.5;" width="103" x="6" y="375"/><ellipse cx="21" cy="391" fill="#ADD1B2" rx="11" ry="11" style="stroke: #A80036; stroke-width: 1.0;"/><path d="M23.7656,386.875 Q23.9219,386.6563 24.1094,386.5469 Q24.2969,386.4375 24.5156,386.4375 Q24.8906,386.4375 25.125,386.6953 Q25.3594,386.9531 25.3594,387.5625 L25.3594,389.0156 Q25.3594,389.625 25.125,389.8906 Q24.8906,390.1563 24.5156,390.1563 Q24.1719,390.1563 23.9688,389.9531 Q23.7656,389.7656 23.6563,389.25 Q23.6094,388.8906 23.4219,388.7031 Q23.0938,388.3281 22.4844,388.1094 Q21.875,387.8906 21.25,387.8906 Q20.4844,387.8906 19.8516,388.2188 Q19.2188,388.5469 18.7266,389.2969 Q18.2344,390.0469 18.2344,391.0781 L18.2344,392.1719 Q18.2344,393.4063 19.125,394.2266 Q20.0156,395.0469 21.6094,395.0469 Q22.5469,395.0469 23.2031,394.7969 Q23.5938,394.6406 24.0156,394.2031 Q24.2813,393.9375 24.4297,393.8594 Q24.5781,393.7813 24.7813,393.7813 Q25.1094,393.7813 25.3672,394.0391 Q25.625,394.2969 25.625,394.6406 Q25.625,394.9844 25.2813,395.3906 Q24.7813,395.9688 23.9844,396.2969 Q22.9063,396.75 21.6094,396.75 Q20.0938,396.75 18.8906,396.125 Q17.9063,395.625 17.2188,394.5547 Q16.5313,393.4844 16.5313,392.2031 L16.5313,391.0469 Q16.5313,389.7188 17.1484,388.5703 Q17.7656,387.4219 18.8594,386.8047 Q19.9531,386.1875 21.1875,386.1875 Q21.9219,386.1875 22.5703,386.3516 Q23.2188,386.5156 23.7656,386.875 Z "/><text fill="#000000" font-family="sans-serif" font-size="12" lengthAdjust="spacingAndGlyphs" textLength="71" x="35" y="395.9102">GETRequest</text><line style="stroke: #A80036; stroke-width: 1.5;" x1="7" x2="108" y1="407" y2="407"/><line style="stroke: #A80036; stroke-width: 1.5;" x1="7" x2="108" y1="415" y2="415"/><rect fill="#FEFECE" filter="url(#f1)" height="61.8359" style="stroke: #A80036; stroke-width: 1.5;" width="205" x="144" y="368"/><ellipse cx="202.75" cy="384" fill="#ADD1B2" rx="11" ry="11" style="stroke: #A80036; stroke-width: 1.0;"/><path d="M205.5156,379.875 Q205.6719,379.6563 205.8594,379.5469 Q206.0469,379.4375 206.2656,379.4375 Q206.6406,379.4375 206.875,379.6953 Q207.1094,379.9531 207.1094,380.5625 L207.1094,382.0156 Q207.1094,382.625 206.875,382.8906 Q206.6406,383.1563 206.2656,383.1563 Q205.9219,383.1563 205.7188,382.9531 Q205.5156,382.7656 205.4063,382.25 Q205.3594,381.8906 205.1719,381.7031 Q204.8438,381.3281 204.2344,381.1094 Q203.625,380.8906 203,380.8906 Q202.2344,380.8906 201.6016,381.2188 Q200.9688,381.5469 200.4766,382.2969 Q199.9844,383.0469 199.9844,384.0781 L199.9844,385.1719 Q199.9844,386.4063 200.875,387.2266 Q201.7656,388.0469 203.3594,388.0469 Q204.2969,388.0469 204.9531,387.7969 Q205.3438,387.6406 205.7656,387.2031 Q206.0313,386.9375 206.1797,386.8594 Q206.3281,386.7813 206.5313,386.7813 Q206.8594,386.7813 207.1172,387.0391 Q207.375,387.2969 207.375,387.6406 Q207.375,387.9844 207.0313,388.3906 Q206.5313,388.9688 205.7344,389.2969 Q204.6563,389.75 203.3594,389.75 Q201.8438,389.75 200.6406,389.125 Q199.6563,388.625 198.9688,387.5547 Q198.2813,386.4844 198.2813,385.2031 L198.2813,384.0469 Q198.2813,382.7188 198.8984,381.5703 Q199.5156,380.4219 200.6094,379.8047 Q201.7031,379.1875 202.9375,379.1875 Q203.6719,379.1875 204.3203,379.3516 Q204.9688,379.5156 205.5156,379.875 Z "/><text fill="#000000" font-family="sans-serif" font-size="12" lengthAdjust="spacingAndGlyphs" textLength="79" x="223.25" y="388.9102">POSTRequest</text><line style="stroke: #A80036; stroke-width: 1.5;" x1="145" x2="348" y1="400" y2="400"/><ellipse cx="155" cy="412.418" fill="none" rx="3" ry="3" style="stroke: #038048; stroke-width: 1.0;"/><text fill="#000000" font-family="sans-serif" font-size="11" lengthAdjust="spacingAndGlyphs" textLength="179" x="164" y="415.4189">nameValuePairs:Array[pairsCount][2]</text><line style="stroke: #A80036; stroke-width: 1.5;" x1="145" x2="348" y1="421.8359" y2="421.8359"/><rect fill="#FEFECE" filter="url(#f1)" height="131.0156" style="stroke: #A80036; stroke-width: 1.5;" width="239" x="32" y="8"/><ellipse cx="103.75" cy="24" fill="#B4A7E5" rx="11" ry="11" style="stroke: #A80036; stroke-width: 1.0;"/><path d="M104.7031,20.6406 L104.7031,27.2969 L106.4219,27.2969 Q107.0313,27.2969 107.2969,27.5313 Q107.5625,27.7656 107.5625,28.1563 Q107.5625,28.5313 107.2969,28.7656 Q107.0313,29 106.4219,29 L101.2813,29 Q100.6719,29 100.4063,28.7656 Q100.1406,28.5313 100.1406,28.1406 Q100.1406,27.7656 100.4063,27.5313 Q100.6719,27.2969 101.2813,27.2969 L103,27.2969 L103,20.6406 L101.2813,20.6406 Q100.6719,20.6406 100.4063,20.4063 Q100.1406,20.1719 100.1406,19.7813 Q100.1406,19.4063 100.4063,19.1719 Q100.6719,18.9375 101.2813,18.9375 L106.4219,18.9375 Q107.0313,18.9375 107.2969,19.1719 Q107.5625,19.4063 107.5625,19.7813 Q107.5625,20.1719 107.2969,20.4063 Q107.0313,20.6406 106.4219,20.6406 L104.7031,20.6406 Z "/><text fill="#000000" font-family="sans-serif" font-size="12" font-style="italic" lengthAdjust="spacingAndGlyphs" textLength="87" x="124.25" y="28.9102">RequestRunner</text><line style="stroke: #A80036; stroke-width: 1.5;" x1="33" x2="270" y1="40" y2="40"/><line style="stroke: #A80036; stroke-width: 1.5;" x1="33" x2="270" y1="48" y2="48"/><ellipse cx="43" cy="60.418" fill="#84BE84" rx="3" ry="3" style="stroke: #038048; stroke-width: 1.0;"/><text fill="#000000" font-family="sans-serif" font-size="11" lengthAdjust="spacingAndGlyphs" textLength="149" x="52" y="63.4189">RequestRunner(delay:Number)</text><ellipse cx="43" cy="74.2539" fill="#84BE84" rx="3" ry="3" style="stroke: #038048; stroke-width: 1.0;"/><text fill="#000000" font-family="sans-serif" font-size="11" lengthAdjust="spacingAndGlyphs" textLength="139" x="52" y="77.2549">void setDelay(delay:Number)</text><ellipse cx="43" cy="88.0898" fill="#84BE84" rx="3" ry="3" style="stroke: #038048; stroke-width: 1.0;"/><text fill="#000000" font-family="sans-serif" font-size="11" lengthAdjust="spacingAndGlyphs" textLength="53" x="52" y="91.0908">void start()</text><ellipse cx="43" cy="101.9258" fill="#84BE84" rx="3" ry="3" style="stroke: #038048; stroke-width: 1.0;"/><text fill="#000000" font-family="sans-serif" font-size="11" lengthAdjust="spacingAndGlyphs" textLength="61" x="52" y="104.9268">void pause()</text><ellipse cx="43" cy="115.7617" fill="#84BE84" rx="3" ry="3" style="stroke: #038048; stroke-width: 1.0;"/><text fill="#000000" font-family="sans-serif" font-size="11" lengthAdjust="spacingAndGlyphs" textLength="92" x="52" y="118.7627">void emptyQueue()</text><ellipse cx="43" cy="129.5977" fill="#84BE84" rx="3" ry="3" style="stroke: #038048; stroke-width: 1.0;"/><text fill="#000000" font-family="sans-serif" font-size="11" lengthAdjust="spacingAndGlyphs" textLength="213" x="52" y="132.5986">void addRequestToQueue(request:Request)</text><rect fill="#FEFECE" filter="url(#f1)" height="89.5078" style="stroke: #A80036; stroke-width: 1.5;" width="389" x="306" y="28.5"/><ellipse cx="458.25" cy="44.5" fill="#B4A7E5" rx="11" ry="11" style="stroke: #A80036; stroke-width: 1.0;"/><path d="M459.2031,41.1406 L459.2031,47.7969 L460.9219,47.7969 Q461.5313,47.7969 461.7969,48.0313 Q462.0625,48.2656 462.0625,48.6563 Q462.0625,49.0313 461.7969,49.2656 Q461.5313,49.5 460.9219,49.5 L455.7813,49.5 Q455.1719,49.5 454.9063,49.2656 Q454.6406,49.0313 454.6406,48.6406 Q454.6406,48.2656 454.9063,48.0313 Q455.1719,47.7969 455.7813,47.7969 L457.5,47.7969 L457.5,41.1406 L455.7813,41.1406 Q455.1719,41.1406 454.9063,40.9063 Q454.6406,40.6719 454.6406,40.2813 Q454.6406,39.9063 454.9063,39.6719 Q455.1719,39.4375 455.7813,39.4375 L460.9219,39.4375 Q461.5313,39.4375 461.7969,39.6719 Q462.0625,39.9063 462.0625,40.2813 Q462.0625,40.6719 461.7969,40.9063 Q461.5313,41.1406 460.9219,41.1406 L459.2031,41.1406 Z "/><text fill="#000000" font-family="sans-serif" font-size="12" font-style="italic" lengthAdjust="spacingAndGlyphs" textLength="76" x="478.75" y="49.4102">PhaseRunner</text><line style="stroke: #A80036; stroke-width: 1.5;" x1="307" x2="694" y1="60.5" y2="60.5"/><line style="stroke: #A80036; stroke-width: 1.5;" x1="307" x2="694" y1="68.5" y2="68.5"/><ellipse cx="317" cy="80.918" fill="#84BE84" rx="3" ry="3" style="stroke: #038048; stroke-width: 1.0;"/><text fill="#000000" font-family="sans-serif" font-size="11" lengthAdjust="spacingAndGlyphs" textLength="363" x="326" y="83.9189">PhaseRunner(phases:Phase[], someInput:Result, callback:Function(Result))</text><ellipse cx="317" cy="94.7539" fill="#84BE84" rx="3" ry="3" style="stroke: #038048; stroke-width: 1.0;"/><text fill="#000000" font-family="sans-serif" font-size="11" lengthAdjust="spacingAndGlyphs" textLength="53" x="326" y="97.7549">void start()</text><ellipse cx="317" cy="108.5898" fill="#84BE84" rx="3" ry="3" style="stroke: #038048; stroke-width: 1.0;"/><text fill="#000000" font-family="sans-serif" font-size="11" lengthAdjust="spacingAndGlyphs" textLength="129" x="326" y="111.5908">void stopAndCallCallback()</text><rect fill="#FEFECE" filter="url(#f1)" height="75.6719" style="stroke: #A80036; stroke-width: 1.5;" width="276" x="362.5" y="224"/><ellipse cx="478.75" cy="240" fill="#B4A7E5" rx="11" ry="11" style="stroke: #A80036; stroke-width: 1.0;"/><path d="M479.7031,236.6406 L479.7031,243.2969 L481.4219,243.2969 Q482.0313,243.2969 482.2969,243.5313 Q482.5625,243.7656 482.5625,244.1563 Q482.5625,244.5313 482.2969,244.7656 Q482.0313,245 481.4219,245 L476.2813,245 Q475.6719,245 475.4063,244.7656 Q475.1406,244.5313 475.1406,244.1406 Q475.1406,243.7656 475.4063,243.5313 Q475.6719,243.2969 476.2813,243.2969 L478,243.2969 L478,236.6406 L476.2813,236.6406 Q475.6719,236.6406 475.4063,236.4063 Q475.1406,236.1719 475.1406,235.7813 Q475.1406,235.4063 475.4063,235.1719 Q475.6719,234.9375 476.2813,234.9375 L481.4219,234.9375 Q482.0313,234.9375 482.2969,235.1719 Q482.5625,235.4063 482.5625,235.7813 Q482.5625,236.1719 482.2969,236.4063 Q482.0313,236.6406 481.4219,236.6406 L479.7031,236.6406 Z "/><text fill="#000000" font-family="sans-serif" font-size="12" font-style="italic" lengthAdjust="spacingAndGlyphs" textLength="35" x="499.25" y="244.9102">Phase</text><line style="stroke: #A80036; stroke-width: 1.5;" x1="363.5" x2="637.5" y1="256" y2="256"/><line style="stroke: #A80036; stroke-width: 1.5;" x1="363.5" x2="637.5" y1="264" y2="264"/><ellipse cx="373.5" cy="276.418" fill="#84BE84" rx="3" ry="3" style="stroke: #038048; stroke-width: 1.0;"/><text fill="#000000" font-family="sans-serif" font-size="11" lengthAdjust="spacingAndGlyphs" textLength="250" x="382.5" y="279.4189">Phase(prevResult:Result, callback:Function(Result))</text><ellipse cx="373.5" cy="290.2539" fill="#84BE84" rx="3" ry="3" style="stroke: #038048; stroke-width: 1.0;"/><text fill="#000000" font-family="sans-serif" font-size="11" lengthAdjust="spacingAndGlyphs" textLength="53" x="382.5" y="293.2549">void start()</text><rect fill="#FEFECE" filter="url(#f1)" height="61.8359" style="stroke: #A80036; stroke-width: 1.5;" width="77" x="730" y="42.5"/><ellipse cx="749.5" cy="58.5" fill="#B4A7E5" rx="11" ry="11" style="stroke: #A80036; stroke-width: 1.0;"/><path d="M750.4531,55.1406 L750.4531,61.7969 L752.1719,61.7969 Q752.7813,61.7969 753.0469,62.0313 Q753.3125,62.2656 753.3125,62.6563 Q753.3125,63.0313 753.0469,63.2656 Q752.7813,63.5 752.1719,63.5 L747.0313,63.5 Q746.4219,63.5 746.1563,63.2656 Q745.8906,63.0313 745.8906,62.6406 Q745.8906,62.2656 746.1563,62.0313 Q746.4219,61.7969 747.0313,61.7969 L748.75,61.7969 L748.75,55.1406 L747.0313,55.1406 Q746.4219,55.1406 746.1563,54.9063 Q745.8906,54.6719 745.8906,54.2813 Q745.8906,53.9063 746.1563,53.6719 Q746.4219,53.4375 747.0313,53.4375 L752.1719,53.4375 Q752.7813,53.4375 753.0469,53.6719 Q753.3125,53.9063 753.3125,54.2813 Q753.3125,54.6719 753.0469,54.9063 Q752.7813,55.1406 752.1719,55.1406 L750.4531,55.1406 Z "/><text fill="#000000" font-family="sans-serif" font-size="12" font-style="italic" lengthAdjust="spacingAndGlyphs" textLength="35" x="764.5" y="63.4102">Result</text><line style="stroke: #A80036; stroke-width: 1.5;" x1="731" x2="806" y1="74.5" y2="74.5"/><ellipse cx="741" cy="86.918" fill="none" rx="3" ry="3" style="stroke: #038048; stroke-width: 1.0;"/><text fill="#000000" font-family="sans-serif" font-size="11" lengthAdjust="spacingAndGlyphs" textLength="51" x="750" y="89.9189">err:String[]</text><line style="stroke: #A80036; stroke-width: 1.5;" x1="731" x2="806" y1="96.3359" y2="96.3359"/><path d="M109.11,323.88 C96.4764,342.0233 83.3944,360.8112 73.5624,374.9317 " fill="none" style="stroke: #A80036; stroke-width: 1.0;"/><polygon fill="none" points="103.5478,319.617,120.721,307.204,115.037,327.617,103.5478,319.617" style="stroke: #A80036; stroke-width: 1.0;"/><path d="M194.425,323.999 C205.114,339.1887 216.115,354.8214 225.236,367.7822 " fill="none" style="stroke: #A80036; stroke-width: 1.0;"/><polygon fill="none" points="188.392,327.589,182.607,307.204,199.841,319.532,188.392,327.589" style="stroke: #A80036; stroke-width: 1.0;"/><path d="M151.5,139.205 C151.5,162.97 151.5,189.473 151.5,211.672 " fill="none" style="stroke: #A80036; stroke-width: 1.0;"/><polygon fill="#A80036" points="151.5,216.924,155.5,207.924,151.5,211.924,147.5,207.924,151.5,216.924" style="stroke: #A80036; stroke-width: 1.0;"/><text fill="#000000" font-family="sans-serif" font-size="13" lengthAdjust="spacingAndGlyphs" textLength="125" x="152.5" y="183.4951">at any times contains</text><text fill="#000000" font-family="sans-serif" font-size="13" lengthAdjust="spacingAndGlyphs" textLength="20" x="129.9063" y="206.0274">0..*</text><path d="M500.5,118.698 C500.5,148.94 500.5,188.805 500.5,218.645 " fill="none" style="stroke: #A80036; stroke-width: 1.0;"/><polygon fill="#A80036" points="500.5,223.719,504.5,214.719,500.5,218.719,496.5,214.719,500.5,223.719" style="stroke: #A80036; stroke-width: 1.0;"/><text fill="#000000" font-family="sans-serif" font-size="13" lengthAdjust="spacingAndGlyphs" textLength="21" x="501.5" y="183.4951">has</text><text fill="#000000" font-family="sans-serif" font-size="13" lengthAdjust="spacingAndGlyphs" textLength="20" x="478.7188" y="213.0308">0..*</text></g></svg>