<?xml version="1.0" encoding="UTF-8" standalone="yes"?><svg xmlns="http://www.w3.org/2000/svg" xmlns:xlink="http://www.w3.org/1999/xlink" height="1507px" style="width:1347px;height:1507px;" version="1.1" viewBox="0 0 1347 1507" width="1347px"><defs><filter height="300%" id="f1" width="300%" x="-1" y="-1"><feGaussianBlur result="blurOut" stdDeviation="2.0"/><feColorMatrix in="blurOut" result="blurOut2" type="matrix" values="0 0 0 0 0 0 0 0 0 0 0 0 0 0 0 0 0 0 .4 0"/><feOffset dx="4.0" dy="4.0" in="blurOut2" result="blurOut3"/><feBlend in="SourceGraphic" in2="blurOut3" mode="normal"/></filter></defs><g><text fill="#000000" font-family="sans-serif" font-size="18" lengthAdjust="spacingAndGlyphs" textLength="432" x="462" y="18.6855">Class Diagram. Doesn't have to represent actual truth!</text><rect fill="#FEFECE" filter="url(#f1)" height="89.5078" style="stroke: #A80036; stroke-width: 1.5;" width="128" x="71.5" y="302.1406"/><ellipse cx="109" cy="318.1406" fill="#A9DCDF" rx="11" ry="11" style="stroke: #A80036; stroke-width: 1.0;"/><path d="M111.1875,319.9063 L107.0469,319.9063 L106.625,320.9375 L107.0469,320.9375 Q107.6563,320.9375 107.9219,321.1719 Q108.1875,321.4063 108.1875,321.7969 Q108.1875,322.1719 107.9219,322.4063 Q107.6563,322.6406 107.0469,322.6406 L104.75,322.6406 Q104.1406,322.6406 103.8828,322.4063 Q103.625,322.1719 103.625,321.7813 Q103.625,321.4063 103.8984,321.1641 Q104.1719,320.9219 104.7969,320.9375 L107.4688,314.2813 L106.3594,314.2813 Q105.75,314.2813 105.4844,314.0469 Q105.2188,313.8125 105.2188,313.4219 Q105.2188,313.0469 105.4844,312.8125 Q105.75,312.5781 106.3594,312.5781 L110.0313,312.5781 L113.4219,320.9375 Q114.0156,320.9375 114.2031,321.0781 Q114.5938,321.3438 114.5938,321.7969 Q114.5938,322.1719 114.3359,322.4063 Q114.0781,322.6406 113.4688,322.6406 L111.1719,322.6406 Q110.5625,322.6406 110.2969,322.4063 Q110.0313,322.1719 110.0313,321.7813 Q110.0313,321.4063 110.2969,321.1719 Q110.5625,320.9375 111.1719,320.9375 L111.5938,320.9375 L111.1875,319.9063 Z M110.4688,318.2031 L109.1094,314.8281 L107.7344,318.2031 L110.4688,318.2031 Z "/><text fill="#000000" font-family="sans-serif" font-size="12" font-style="italic" lengthAdjust="spacingAndGlyphs" textLength="46" x="128" y="323.0508">Request</text><line style="stroke: #A80036; stroke-width: 1.5;" x1="72.5" x2="198.5" y1="334.1406" y2="334.1406"/><ellipse cx="82.5" cy="346.5586" fill="none" rx="3" ry="3" style="stroke: #038048; stroke-width: 1.0;"/><text fill="#000000" font-family="sans-serif" font-size="11" lengthAdjust="spacingAndGlyphs" textLength="43" x="91.5" y="349.5596">url:String</text><ellipse cx="82.5" cy="360.3945" fill="none" rx="3" ry="3" style="stroke: #038048; stroke-width: 1.0;"/><text fill="#000000" font-family="sans-serif" font-size="11" lengthAdjust="spacingAndGlyphs" textLength="80" x="91.5" y="363.3955">handler:Function</text><ellipse cx="82.5" cy="374.2305" fill="none" rx="3" ry="3" style="stroke: #038048; stroke-width: 1.0;"/><text fill="#000000" font-family="sans-serif" font-size="11" lengthAdjust="spacingAndGlyphs" textLength="102" x="91.5" y="377.2314">infoForHandler:String</text><line style="stroke: #A80036; stroke-width: 1.5;" x1="72.5" x2="198.5" y1="383.6484" y2="383.6484"/><rect fill="#FEFECE" filter="url(#f1)" height="48" style="stroke: #A80036; stroke-width: 1.5;" width="103" x="6" y="560.1406"/><ellipse cx="21" cy="576.1406" fill="#ADD1B2" rx="11" ry="11" style="stroke: #A80036; stroke-width: 1.0;"/><path d="M23.7656,572.0156 Q23.9219,571.7969 24.1094,571.6875 Q24.2969,571.5781 24.5156,571.5781 Q24.8906,571.5781 25.125,571.8359 Q25.3594,572.0938 25.3594,572.7031 L25.3594,574.1563 Q25.3594,574.7656 25.125,575.0313 Q24.8906,575.2969 24.5156,575.2969 Q24.1719,575.2969 23.9688,575.0938 Q23.7656,574.9063 23.6563,574.3906 Q23.6094,574.0313 23.4219,573.8438 Q23.0938,573.4688 22.4844,573.25 Q21.875,573.0313 21.25,573.0313 Q20.4844,573.0313 19.8516,573.3594 Q19.2188,573.6875 18.7266,574.4375 Q18.2344,575.1875 18.2344,576.2188 L18.2344,577.3125 Q18.2344,578.5469 19.125,579.3672 Q20.0156,580.1875 21.6094,580.1875 Q22.5469,580.1875 23.2031,579.9375 Q23.5938,579.7813 24.0156,579.3438 Q24.2813,579.0781 24.4297,579 Q24.5781,578.9219 24.7813,578.9219 Q25.1094,578.9219 25.3672,579.1797 Q25.625,579.4375 25.625,579.7813 Q25.625,580.125 25.2813,580.5313 Q24.7813,581.1094 23.9844,581.4375 Q22.9063,581.8906 21.6094,581.8906 Q20.0938,581.8906 18.8906,581.2656 Q17.9063,580.7656 17.2188,579.6953 Q16.5313,578.625 16.5313,577.3438 L16.5313,576.1875 Q16.5313,574.8594 17.1484,573.7109 Q17.7656,572.5625 18.8594,571.9453 Q19.9531,571.3281 21.1875,571.3281 Q21.9219,571.3281 22.5703,571.4922 Q23.2188,571.6563 23.7656,572.0156 Z "/><text fill="#000000" font-family="sans-serif" font-size="12" lengthAdjust="spacingAndGlyphs" textLength="71" x="35" y="581.0508">GETRequest</text><line style="stroke: #A80036; stroke-width: 1.5;" x1="7" x2="108" y1="592.1406" y2="592.1406"/><line style="stroke: #A80036; stroke-width: 1.5;" x1="7" x2="108" y1="600.1406" y2="600.1406"/><rect fill="#FEFECE" filter="url(#f1)" height="61.8359" style="stroke: #A80036; stroke-width: 1.5;" width="205" x="144" y="553.1406"/><ellipse cx="202.75" cy="569.1406" fill="#ADD1B2" rx="11" ry="11" style="stroke: #A80036; stroke-width: 1.0;"/><path d="M205.5156,565.0156 Q205.6719,564.7969 205.8594,564.6875 Q206.0469,564.5781 206.2656,564.5781 Q206.6406,564.5781 206.875,564.8359 Q207.1094,565.0938 207.1094,565.7031 L207.1094,567.1563 Q207.1094,567.7656 206.875,568.0313 Q206.6406,568.2969 206.2656,568.2969 Q205.9219,568.2969 205.7188,568.0938 Q205.5156,567.9063 205.4063,567.3906 Q205.3594,567.0313 205.1719,566.8438 Q204.8438,566.4688 204.2344,566.25 Q203.625,566.0313 203,566.0313 Q202.2344,566.0313 201.6016,566.3594 Q200.9688,566.6875 200.4766,567.4375 Q199.9844,568.1875 199.9844,569.2188 L199.9844,570.3125 Q199.9844,571.5469 200.875,572.3672 Q201.7656,573.1875 203.3594,573.1875 Q204.2969,573.1875 204.9531,572.9375 Q205.3438,572.7813 205.7656,572.3438 Q206.0313,572.0781 206.1797,572 Q206.3281,571.9219 206.5313,571.9219 Q206.8594,571.9219 207.1172,572.1797 Q207.375,572.4375 207.375,572.7813 Q207.375,573.125 207.0313,573.5313 Q206.5313,574.1094 205.7344,574.4375 Q204.6563,574.8906 203.3594,574.8906 Q201.8438,574.8906 200.6406,574.2656 Q199.6563,573.7656 198.9688,572.6953 Q198.2813,571.625 198.2813,570.3438 L198.2813,569.1875 Q198.2813,567.8594 198.8984,566.7109 Q199.5156,565.5625 200.6094,564.9453 Q201.7031,564.3281 202.9375,564.3281 Q203.6719,564.3281 204.3203,564.4922 Q204.9688,564.6563 205.5156,565.0156 Z "/><text fill="#000000" font-family="sans-serif" font-size="12" lengthAdjust="spacingAndGlyphs" textLength="79" x="223.25" y="574.0508">POSTRequest</text><line style="stroke: #A80036; stroke-width: 1.5;" x1="145" x2="348" y1="585.1406" y2="585.1406"/><ellipse cx="155" cy="597.5586" fill="none" rx="3" ry="3" style="stroke: #038048; stroke-width: 1.0;"/><text fill="#000000" font-family="sans-serif" font-size="11" lengthAdjust="spacingAndGlyphs" textLength="179" x="164" y="600.5596">nameValuePairs:Array[pairsCount][2]</text><line style="stroke: #A80036; stroke-width: 1.5;" x1="145" x2="348" y1="606.9766" y2="606.9766"/><rect fill="#FEFECE" filter="url(#f1)" height="158.6875" style="stroke: #A80036; stroke-width: 1.5;" width="239" x="16" y="30.6406"/><ellipse cx="87.25" cy="46.6406" fill="#ADD1B2" rx="11" ry="11" style="stroke: #A80036; stroke-width: 1.0;"/><path d="M90.0156,42.5156 Q90.1719,42.2969 90.3594,42.1875 Q90.5469,42.0781 90.7656,42.0781 Q91.1406,42.0781 91.375,42.3359 Q91.6094,42.5938 91.6094,43.2031 L91.6094,44.6563 Q91.6094,45.2656 91.375,45.5313 Q91.1406,45.7969 90.7656,45.7969 Q90.4219,45.7969 90.2188,45.5938 Q90.0156,45.4063 89.9063,44.8906 Q89.8594,44.5313 89.6719,44.3438 Q89.3438,43.9688 88.7344,43.75 Q88.125,43.5313 87.5,43.5313 Q86.7344,43.5313 86.1016,43.8594 Q85.4688,44.1875 84.9766,44.9375 Q84.4844,45.6875 84.4844,46.7188 L84.4844,47.8125 Q84.4844,49.0469 85.375,49.8672 Q86.2656,50.6875 87.8594,50.6875 Q88.7969,50.6875 89.4531,50.4375 Q89.8438,50.2813 90.2656,49.8438 Q90.5313,49.5781 90.6797,49.5 Q90.8281,49.4219 91.0313,49.4219 Q91.3594,49.4219 91.6172,49.6797 Q91.875,49.9375 91.875,50.2813 Q91.875,50.625 91.5313,51.0313 Q91.0313,51.6094 90.2344,51.9375 Q89.1563,52.3906 87.8594,52.3906 Q86.3438,52.3906 85.1406,51.7656 Q84.1563,51.2656 83.4688,50.1953 Q82.7813,49.125 82.7813,47.8438 L82.7813,46.6875 Q82.7813,45.3594 83.3984,44.2109 Q84.0156,43.0625 85.1094,42.4453 Q86.2031,41.8281 87.4375,41.8281 Q88.1719,41.8281 88.8203,41.9922 Q89.4688,42.1563 90.0156,42.5156 Z "/><text fill="#000000" font-family="sans-serif" font-size="12" lengthAdjust="spacingAndGlyphs" textLength="88" x="107.75" y="51.5508">RequestRunner</text><line style="stroke: #A80036; stroke-width: 1.5;" x1="17" x2="254" y1="62.6406" y2="62.6406"/><polygon fill="none" points="27,70.0586,31,74.0586,27,78.0586,23,74.0586" style="stroke: #B38D22; stroke-width: 1.0;"/><text fill="#000000" font-family="sans-serif" font-size="11" lengthAdjust="spacingAndGlyphs" textLength="66" x="36" y="78.0596">delay:Number</text><polygon fill="none" points="27,83.8945,31,87.8945,27,91.8945,23,87.8945" style="stroke: #B38D22; stroke-width: 1.0;"/><text fill="#000000" font-family="sans-serif" font-size="11" lengthAdjust="spacingAndGlyphs" textLength="94" x="36" y="91.8955">requestQ:Request[]</text><polygon fill="none" points="27,97.7305,31,101.7305,27,105.7305,23,101.7305" style="stroke: #B38D22; stroke-width: 1.0;"/><text fill="#000000" font-family="sans-serif" font-size="11" lengthAdjust="spacingAndGlyphs" textLength="73" x="36" y="105.7314">interval:Interval</text><line style="stroke: #A80036; stroke-width: 1.5;" x1="17" x2="254" y1="112.1484" y2="112.1484"/><ellipse cx="27" cy="124.5664" fill="#84BE84" rx="3" ry="3" style="stroke: #038048; stroke-width: 1.0;"/><text fill="#000000" font-family="sans-serif" font-size="11" lengthAdjust="spacingAndGlyphs" textLength="149" x="36" y="127.5674">RequestRunner(delay:Number)</text><ellipse cx="27" cy="138.4023" fill="#84BE84" rx="3" ry="3" style="stroke: #038048; stroke-width: 1.0;"/><text fill="#000000" font-family="sans-serif" font-size="11" lengthAdjust="spacingAndGlyphs" textLength="160" x="36" y="141.4033">void changeDelay(delay:Number)</text><ellipse cx="27" cy="152.2383" fill="#84BE84" rx="3" ry="3" style="stroke: #038048; stroke-width: 1.0;"/><text fill="#000000" font-family="sans-serif" font-size="11" lengthAdjust="spacingAndGlyphs" textLength="92" x="36" y="155.2393">void emptyQueue()</text><ellipse cx="27" cy="166.0742" fill="#84BE84" rx="3" ry="3" style="stroke: #038048; stroke-width: 1.0;"/><text fill="#000000" font-family="sans-serif" font-size="11" lengthAdjust="spacingAndGlyphs" textLength="213" x="36" y="169.0752">void addRequestToQueue(request:Request)</text><polygon fill="#FFFF44" points="27,174.9102,31,178.9102,27,182.9102,23,178.9102" style="stroke: #B38D22; stroke-width: 1.0;"/><text fill="#000000" font-family="sans-serif" font-size="11" lengthAdjust="spacingAndGlyphs" textLength="154" x="36" y="182.9111">applyRequest(request:Request)</text><rect fill="#FEFECE" filter="url(#f1)" height="158.6875" style="stroke: #A80036; stroke-width: 1.5;" width="389" x="329" y="267.6406"/><ellipse cx="480.75" cy="283.6406" fill="#ADD1B2" rx="11" ry="11" style="stroke: #A80036; stroke-width: 1.0;"/><path d="M483.5156,279.5156 Q483.6719,279.2969 483.8594,279.1875 Q484.0469,279.0781 484.2656,279.0781 Q484.6406,279.0781 484.875,279.3359 Q485.1094,279.5938 485.1094,280.2031 L485.1094,281.6563 Q485.1094,282.2656 484.875,282.5313 Q484.6406,282.7969 484.2656,282.7969 Q483.9219,282.7969 483.7188,282.5938 Q483.5156,282.4063 483.4063,281.8906 Q483.3594,281.5313 483.1719,281.3438 Q482.8438,280.9688 482.2344,280.75 Q481.625,280.5313 481,280.5313 Q480.2344,280.5313 479.6016,280.8594 Q478.9688,281.1875 478.4766,281.9375 Q477.9844,282.6875 477.9844,283.7188 L477.9844,284.8125 Q477.9844,286.0469 478.875,286.8672 Q479.7656,287.6875 481.3594,287.6875 Q482.2969,287.6875 482.9531,287.4375 Q483.3438,287.2813 483.7656,286.8438 Q484.0313,286.5781 484.1797,286.5 Q484.3281,286.4219 484.5313,286.4219 Q484.8594,286.4219 485.1172,286.6797 Q485.375,286.9375 485.375,287.2813 Q485.375,287.625 485.0313,288.0313 Q484.5313,288.6094 483.7344,288.9375 Q482.6563,289.3906 481.3594,289.3906 Q479.8438,289.3906 478.6406,288.7656 Q477.6563,288.2656 476.9688,287.1953 Q476.2813,286.125 476.2813,284.8438 L476.2813,283.6875 Q476.2813,282.3594 476.8984,281.2109 Q477.5156,280.0625 478.6094,279.4453 Q479.7031,278.8281 480.9375,278.8281 Q481.6719,278.8281 482.3203,278.9922 Q482.9688,279.1563 483.5156,279.5156 Z "/><text fill="#000000" font-family="sans-serif" font-size="12" lengthAdjust="spacingAndGlyphs" textLength="77" x="501.25" y="288.5508">PhaseRunner</text><line style="stroke: #A80036; stroke-width: 1.5;" x1="330" x2="717" y1="299.6406" y2="299.6406"/><polygon fill="none" points="340,307.0586,344,311.0586,340,315.0586,336,311.0586" style="stroke: #B38D22; stroke-width: 1.0;"/><text fill="#000000" font-family="sans-serif" font-size="11" lengthAdjust="spacingAndGlyphs" textLength="75" x="349" y="315.0596">phases:Phase[]</text><polygon fill="none" points="340,320.8945,344,324.8945,340,328.8945,336,324.8945" style="stroke: #B38D22; stroke-width: 1.0;"/><text fill="#000000" font-family="sans-serif" font-size="11" lengthAdjust="spacingAndGlyphs" textLength="82" x="349" y="328.8955">someInput:Result</text><polygon fill="none" points="340,334.7305,344,338.7305,340,342.7305,336,338.7305" style="stroke: #B38D22; stroke-width: 1.0;"/><text fill="#000000" font-family="sans-serif" font-size="11" lengthAdjust="spacingAndGlyphs" textLength="83" x="349" y="342.7314">callback:Function</text><polygon fill="none" points="340,348.5664,344,352.5664,340,356.5664,336,352.5664" style="stroke: #B38D22; stroke-width: 1.0;"/><text fill="#000000" font-family="sans-serif" font-size="11" lengthAdjust="spacingAndGlyphs" textLength="75" x="349" y="356.5674">currentIndex:Int</text><line style="stroke: #A80036; stroke-width: 1.5;" x1="330" x2="717" y1="362.9844" y2="362.9844"/><ellipse cx="340" cy="375.4023" fill="#84BE84" rx="3" ry="3" style="stroke: #038048; stroke-width: 1.0;"/><text fill="#000000" font-family="sans-serif" font-size="11" lengthAdjust="spacingAndGlyphs" textLength="363" x="349" y="378.4033">PhaseRunner(phases:Phase[], someInput:Result, callback:Function(Result))</text><ellipse cx="340" cy="389.2383" fill="#84BE84" rx="3" ry="3" style="stroke: #038048; stroke-width: 1.0;"/><text fill="#000000" font-family="sans-serif" font-size="11" lengthAdjust="spacingAndGlyphs" textLength="53" x="349" y="392.2393">void start()</text><ellipse cx="340" cy="403.0742" fill="#84BE84" rx="3" ry="3" style="stroke: #038048; stroke-width: 1.0;"/><text fill="#000000" font-family="sans-serif" font-size="11" lengthAdjust="spacingAndGlyphs" textLength="129" x="349" y="406.0752">void stopAndCallCallback()</text><polygon fill="#FFFF44" points="340,411.9102,344,415.9102,340,419.9102,336,415.9102" style="stroke: #B38D22; stroke-width: 1.0;"/><text fill="#000000" font-family="sans-serif" font-size="11" lengthAdjust="spacingAndGlyphs" textLength="140" x="349" y="419.9111">phaseCallback(index, Result)</text><rect fill="#FEFECE" filter="url(#f1)" height="158.6875" style="stroke: #A80036; stroke-width: 1.5;" width="210" x="418.5" y="504.6406"/><ellipse cx="501.75" cy="520.6406" fill="#A9DCDF" rx="11" ry="11" style="stroke: #A80036; stroke-width: 1.0;"/><path d="M503.9375,522.4063 L499.7969,522.4063 L499.375,523.4375 L499.7969,523.4375 Q500.4063,523.4375 500.6719,523.6719 Q500.9375,523.9063 500.9375,524.2969 Q500.9375,524.6719 500.6719,524.9063 Q500.4063,525.1406 499.7969,525.1406 L497.5,525.1406 Q496.8906,525.1406 496.6328,524.9063 Q496.375,524.6719 496.375,524.2813 Q496.375,523.9063 496.6484,523.6641 Q496.9219,523.4219 497.5469,523.4375 L500.2188,516.7813 L499.1094,516.7813 Q498.5,516.7813 498.2344,516.5469 Q497.9688,516.3125 497.9688,515.9219 Q497.9688,515.5469 498.2344,515.3125 Q498.5,515.0781 499.1094,515.0781 L502.7813,515.0781 L506.1719,523.4375 Q506.7656,523.4375 506.9531,523.5781 Q507.3438,523.8438 507.3438,524.2969 Q507.3438,524.6719 507.0859,524.9063 Q506.8281,525.1406 506.2188,525.1406 L503.9219,525.1406 Q503.3125,525.1406 503.0469,524.9063 Q502.7813,524.6719 502.7813,524.2813 Q502.7813,523.9063 503.0469,523.6719 Q503.3125,523.4375 503.9219,523.4375 L504.3438,523.4375 L503.9375,522.4063 Z M503.2188,520.7031 L501.8594,517.3281 L500.4844,520.7031 L503.2188,520.7031 Z "/><text fill="#000000" font-family="sans-serif" font-size="12" font-style="italic" lengthAdjust="spacingAndGlyphs" textLength="35" x="522.25" y="525.5508">Phase</text><line style="stroke: #A80036; stroke-width: 1.5;" x1="419.5" x2="627.5" y1="536.6406" y2="536.6406"/><polygon fill="none" points="429.5,544.0586,433.5,548.0586,429.5,552.0586,425.5,548.0586" style="stroke: #B38D22; stroke-width: 1.0;"/><text fill="#000000" font-family="sans-serif" font-size="11" lengthAdjust="spacingAndGlyphs" textLength="85" x="438.5" y="552.0596">prevResult:Result</text><polygon fill="none" points="429.5,557.8945,433.5,561.8945,429.5,565.8945,425.5,561.8945" style="stroke: #B38D22; stroke-width: 1.0;"/><text fill="#000000" font-family="sans-serif" font-size="11" lengthAdjust="spacingAndGlyphs" textLength="83" x="438.5" y="565.8955">callback:Function</text><polygon fill="none" points="429.5,571.7305,433.5,575.7305,429.5,579.7305,425.5,575.7305" style="stroke: #B38D22; stroke-width: 1.0;"/><text fill="#000000" font-family="sans-serif" font-size="11" lengthAdjust="spacingAndGlyphs" textLength="82" x="438.5" y="579.7314">state:PhaseState</text><polygon fill="none" points="429.5,585.5664,433.5,589.5664,429.5,593.5664,425.5,589.5664" style="stroke: #B38D22; stroke-width: 1.0;"/><text fill="#000000" font-family="sans-serif" font-size="11" lengthAdjust="spacingAndGlyphs" textLength="60" x="438.5" y="593.5674">result:Result</text><line style="stroke: #A80036; stroke-width: 1.5;" x1="419.5" x2="627.5" y1="599.9844" y2="599.9844"/><ellipse cx="429.5" cy="612.4023" fill="#84BE84" rx="3" ry="3" style="stroke: #038048; stroke-width: 1.0;"/><text fill="#000000" font-family="sans-serif" font-size="11" lengthAdjust="spacingAndGlyphs" textLength="123" x="438.5" y="615.4033">Phase(prevResult:Result)</text><ellipse cx="429.5" cy="626.2383" fill="#84BE84" rx="3" ry="3" style="stroke: #038048; stroke-width: 1.0;"/><text fill="#000000" font-family="sans-serif" font-size="11" lengthAdjust="spacingAndGlyphs" textLength="184" x="438.5" y="629.2393">setCallback(callback:Function(Result))</text><ellipse cx="429.5" cy="640.0742" fill="#84BE84" rx="3" ry="3" style="stroke: #038048; stroke-width: 1.0;"/><text fill="#000000" font-family="sans-serif" font-size="11" lengthAdjust="spacingAndGlyphs" textLength="53" x="438.5" y="643.0752">void start()</text><polygon fill="#FFFF44" points="429.5,648.9102,433.5,652.9102,429.5,656.9102,425.5,652.9102" style="stroke: #B38D22; stroke-width: 1.0;"/><text fill="#000000" font-family="sans-serif" font-size="11" lengthAdjust="spacingAndGlyphs" textLength="57" x="438.5" y="656.9111">void finish()</text><rect fill="#FEFECE" filter="url(#f1)" height="75.6719" style="stroke: #A80036; stroke-width: 1.5;" width="96" x="187.5" y="746.6406"/><ellipse cx="202.5" cy="762.6406" fill="#EB937F" rx="11" ry="11" style="stroke: #A80036; stroke-width: 1.0;"/><path d="M201.3594,763.4375 L201.3594,765.9375 L205.6875,765.9375 L205.6875,765.0156 Q205.6875,764.4063 205.9297,764.1406 Q206.1719,763.875 206.5469,763.875 Q206.9219,763.875 207.1563,764.1406 Q207.3906,764.4063 207.3906,765.0156 L207.3906,767.6406 L199.3906,767.6406 Q198.7656,767.6406 198.5078,767.4063 Q198.25,767.1719 198.25,766.7813 Q198.25,766.4063 198.5156,766.1719 Q198.7813,765.9375 199.3906,765.9375 L199.6563,765.9375 L199.6563,759.2813 L199.3906,759.2813 Q198.7656,759.2813 198.5078,759.0469 Q198.25,758.8125 198.25,758.4219 Q198.25,758.0469 198.5078,757.8125 Q198.7656,757.5781 199.3906,757.5781 L207.0156,757.5781 L207.0156,760.1719 Q207.0156,760.7813 206.7891,761.0391 Q206.5625,761.2969 206.1719,761.2969 Q205.7969,761.2969 205.5625,761.0391 Q205.3281,760.7813 205.3281,760.1719 L205.3281,759.2813 L201.3594,759.2813 L201.3594,761.7344 L202.8438,761.7344 Q202.8438,761.0781 202.9688,760.8906 Q203.2344,760.4844 203.7031,760.4844 Q204.0781,760.4844 204.3125,760.7422 Q204.5469,761 204.5469,761.6094 L204.5469,763.5781 Q204.5469,764.125 204.4219,764.3125 Q204.1563,764.7031 203.7031,764.7031 Q203.2344,764.7031 202.9688,764.2969 Q202.8438,764.1094 202.8438,763.4375 L201.3594,763.4375 Z "/><text fill="#000000" font-family="sans-serif" font-size="12" lengthAdjust="spacingAndGlyphs" textLength="64" x="216.5" y="767.5508">PhaseState</text><line style="stroke: #A80036; stroke-width: 1.5;" x1="188.5" x2="282.5" y1="778.6406" y2="778.6406"/><ellipse cx="198.5" cy="791.0586" fill="none" rx="3" ry="3" style="stroke: #038048; stroke-width: 1.0;"/><text fill="#000000" font-family="sans-serif" font-size="11" lengthAdjust="spacingAndGlyphs" textLength="68" x="207.5" y="794.0596">NotStartedYet</text><ellipse cx="198.5" cy="804.8945" fill="none" rx="3" ry="3" style="stroke: #038048; stroke-width: 1.0;"/><text fill="#000000" font-family="sans-serif" font-size="11" lengthAdjust="spacingAndGlyphs" textLength="25" x="207.5" y="807.8955">Done</text><line style="stroke: #A80036; stroke-width: 1.5;" x1="188.5" x2="282.5" y1="814.3125" y2="814.3125"/><rect fill="#FEFECE" filter="url(#f1)" height="85.5078" style="stroke: #A80036; stroke-width: 1.5;" width="152" x="318.5" y="741.6406"/><ellipse cx="371.25" cy="757.6406" fill="#ADD1B2" rx="11" ry="11" style="stroke: #A80036; stroke-width: 1.0;"/><path d="M374.0156,753.5156 Q374.1719,753.2969 374.3594,753.1875 Q374.5469,753.0781 374.7656,753.0781 Q375.1406,753.0781 375.375,753.3359 Q375.6094,753.5938 375.6094,754.2031 L375.6094,755.6563 Q375.6094,756.2656 375.375,756.5313 Q375.1406,756.7969 374.7656,756.7969 Q374.4219,756.7969 374.2188,756.5938 Q374.0156,756.4063 373.9063,755.8906 Q373.8594,755.5313 373.6719,755.3438 Q373.3438,754.9688 372.7344,754.75 Q372.125,754.5313 371.5,754.5313 Q370.7344,754.5313 370.1016,754.8594 Q369.4688,755.1875 368.9766,755.9375 Q368.4844,756.6875 368.4844,757.7188 L368.4844,758.8125 Q368.4844,760.0469 369.375,760.8672 Q370.2656,761.6875 371.8594,761.6875 Q372.7969,761.6875 373.4531,761.4375 Q373.8438,761.2813 374.2656,760.8438 Q374.5313,760.5781 374.6797,760.5 Q374.8281,760.4219 375.0313,760.4219 Q375.3594,760.4219 375.6172,760.6797 Q375.875,760.9375 375.875,761.2813 Q375.875,761.625 375.5313,762.0313 Q375.0313,762.6094 374.2344,762.9375 Q373.1563,763.3906 371.8594,763.3906 Q370.3438,763.3906 369.1406,762.7656 Q368.1563,762.2656 367.4688,761.1953 Q366.7813,760.125 366.7813,758.8438 L366.7813,757.6875 Q366.7813,756.3594 367.3984,755.2109 Q368.0156,754.0625 369.1094,753.4453 Q370.2031,752.8281 371.4375,752.8281 Q372.1719,752.8281 372.8203,752.9922 Q373.4688,753.1563 374.0156,753.5156 Z "/><text fill="#000000" font-family="sans-serif" font-size="12" lengthAdjust="spacingAndGlyphs" textLength="38" x="391.75" y="762.5508">Logout</text><line style="stroke: #A80036; stroke-width: 1.5;" x1="319.5" x2="469.5" y1="773.6406" y2="773.6406"/><ellipse cx="329.5" cy="803.8945" fill="#84BE84" rx="3" ry="3" style="stroke: #038048; stroke-width: 1.0;"/><text fill="#000000" font-family="sans-serif" font-size="11" lengthAdjust="spacingAndGlyphs" textLength="126" x="338.5" y="806.8955">Logout(prevResult:Result)</text><polygon fill="#FFFF44" points="329.5,812.7305,333.5,816.7305,329.5,820.7305,325.5,816.7305" style="stroke: #B38D22; stroke-width: 1.0;"/><text fill="#000000" font-family="sans-serif" font-size="11" lengthAdjust="spacingAndGlyphs" textLength="90" x="338.5" y="820.7314">logoutHandler(xhr)</text><line style="stroke: #A80036; stroke-width: 1.0; stroke-dasharray: 1.0,2.0;" x1="319.5" x2="347" y1="788.5586" y2="788.5586"/><text fill="#000000" font-family="sans-serif" font-size="11" lengthAdjust="spacingAndGlyphs" textLength="95" x="347" y="792.5596">Needs no data at all</text><line style="stroke: #A80036; stroke-width: 1.0; stroke-dasharray: 1.0,2.0;" x1="442" x2="469.5" y1="788.5586" y2="788.5586"/><rect fill="#FEFECE" filter="url(#f1)" height="85.5078" style="stroke: #A80036; stroke-width: 1.5;" width="145" x="396" y="905.6406"/><ellipse cx="448.75" cy="921.6406" fill="#ADD1B2" rx="11" ry="11" style="stroke: #A80036; stroke-width: 1.0;"/><path d="M451.5156,917.5156 Q451.6719,917.2969 451.8594,917.1875 Q452.0469,917.0781 452.2656,917.0781 Q452.6406,917.0781 452.875,917.3359 Q453.1094,917.5938 453.1094,918.2031 L453.1094,919.6563 Q453.1094,920.2656 452.875,920.5313 Q452.6406,920.7969 452.2656,920.7969 Q451.9219,920.7969 451.7188,920.5938 Q451.5156,920.4063 451.4063,919.8906 Q451.3594,919.5313 451.1719,919.3438 Q450.8438,918.9688 450.2344,918.75 Q449.625,918.5313 449,918.5313 Q448.2344,918.5313 447.6016,918.8594 Q446.9688,919.1875 446.4766,919.9375 Q445.9844,920.6875 445.9844,921.7188 L445.9844,922.8125 Q445.9844,924.0469 446.875,924.8672 Q447.7656,925.6875 449.3594,925.6875 Q450.2969,925.6875 450.9531,925.4375 Q451.3438,925.2813 451.7656,924.8438 Q452.0313,924.5781 452.1797,924.5 Q452.3281,924.4219 452.5313,924.4219 Q452.8594,924.4219 453.1172,924.6797 Q453.375,924.9375 453.375,925.2813 Q453.375,925.625 453.0313,926.0313 Q452.5313,926.6094 451.7344,926.9375 Q450.6563,927.3906 449.3594,927.3906 Q447.8438,927.3906 446.6406,926.7656 Q445.6563,926.2656 444.9688,925.1953 Q444.2813,924.125 444.2813,922.8438 L444.2813,921.6875 Q444.2813,920.3594 444.8984,919.2109 Q445.5156,918.0625 446.6094,917.4453 Q447.7031,916.8281 448.9375,916.8281 Q449.6719,916.8281 450.3203,916.9922 Q450.9688,917.1563 451.5156,917.5156 Z "/><text fill="#000000" font-family="sans-serif" font-size="12" lengthAdjust="spacingAndGlyphs" textLength="31" x="469.25" y="926.5508">Login</text><line style="stroke: #A80036; stroke-width: 1.5;" x1="397" x2="540" y1="937.6406" y2="937.6406"/><ellipse cx="407" cy="967.8945" fill="#84BE84" rx="3" ry="3" style="stroke: #038048; stroke-width: 1.0;"/><text fill="#000000" font-family="sans-serif" font-size="11" lengthAdjust="spacingAndGlyphs" textLength="119" x="416" y="970.8955">Login(prevResult:Result)</text><polygon fill="#FFFF44" points="407,976.7305,411,980.7305,407,984.7305,403,980.7305" style="stroke: #B38D22; stroke-width: 1.0;"/><text fill="#000000" font-family="sans-serif" font-size="11" lengthAdjust="spacingAndGlyphs" textLength="83" x="416" y="984.7314">loginHandler(xhr)</text><line style="stroke: #A80036; stroke-width: 1.0; stroke-dasharray: 1.0,2.0;" x1="397" x2="438.5" y1="952.5586" y2="952.5586"/><text fill="#000000" font-family="sans-serif" font-size="11" lengthAdjust="spacingAndGlyphs" textLength="60" x="438.5" y="956.5596">{user, pass}</text><line style="stroke: #A80036; stroke-width: 1.0; stroke-dasharray: 1.0,2.0;" x1="498.5" x2="540" y1="952.5586" y2="952.5586"/><rect fill="#FEFECE" filter="url(#f1)" height="175.4414" style="stroke: #A80036; stroke-width: 1.5;" width="166" x="446.5" y="1069.6406"/><ellipse cx="499.75" cy="1085.6406" fill="#ADD1B2" rx="11" ry="11" style="stroke: #A80036; stroke-width: 1.0;"/><path d="M502.5156,1081.5156 Q502.6719,1081.2969 502.8594,1081.1875 Q503.0469,1081.0781 503.2656,1081.0781 Q503.6406,1081.0781 503.875,1081.3359 Q504.1094,1081.5938 504.1094,1082.2031 L504.1094,1083.6563 Q504.1094,1084.2656 503.875,1084.5313 Q503.6406,1084.7969 503.2656,1084.7969 Q502.9219,1084.7969 502.7188,1084.5938 Q502.5156,1084.4063 502.4063,1083.8906 Q502.3594,1083.5313 502.1719,1083.3438 Q501.8438,1082.9688 501.2344,1082.75 Q500.625,1082.5313 500,1082.5313 Q499.2344,1082.5313 498.6016,1082.8594 Q497.9688,1083.1875 497.4766,1083.9375 Q496.9844,1084.6875 496.9844,1085.7188 L496.9844,1086.8125 Q496.9844,1088.0469 497.875,1088.8672 Q498.7656,1089.6875 500.3594,1089.6875 Q501.2969,1089.6875 501.9531,1089.4375 Q502.3438,1089.2813 502.7656,1088.8438 Q503.0313,1088.5781 503.1797,1088.5 Q503.3281,1088.4219 503.5313,1088.4219 Q503.8594,1088.4219 504.1172,1088.6797 Q504.375,1088.9375 504.375,1089.2813 Q504.375,1089.625 504.0313,1090.0313 Q503.5313,1090.6094 502.7344,1090.9375 Q501.6563,1091.3906 500.3594,1091.3906 Q498.8438,1091.3906 497.6406,1090.7656 Q496.6563,1090.2656 495.9688,1089.1953 Q495.2813,1088.125 495.2813,1086.8438 L495.2813,1085.6875 Q495.2813,1084.3594 495.8984,1083.2109 Q496.5156,1082.0625 497.6094,1081.4453 Q498.7031,1080.8281 499.9375,1080.8281 Q500.6719,1080.8281 501.3203,1080.9922 Q501.9688,1081.1563 502.5156,1081.5156 Z "/><text fill="#000000" font-family="sans-serif" font-size="12" lengthAdjust="spacingAndGlyphs" textLength="51" x="520.25" y="1090.5508">GetYears</text><line style="stroke: #A80036; stroke-width: 1.5;" x1="447.5" x2="611.5" y1="1101.6406" y2="1101.6406"/><line style="stroke: #A80036; stroke-width: 1.0; stroke-dasharray: 1.0,2.0;" x1="447.5" x2="483.5" y1="1116.5586" y2="1116.5586"/><text fill="#000000" font-family="sans-serif" font-size="11" lengthAdjust="spacingAndGlyphs" textLength="92" x="483.5" y="1120.5596">Assumes logged in</text><line style="stroke: #A80036; stroke-width: 1.0; stroke-dasharray: 1.0,2.0;" x1="575.5" x2="611.5" y1="1116.5586" y2="1116.5586"/><polygon fill="none" points="457.5,1147.6484,461.5,1151.6484,457.5,1155.6484,453.5,1151.6484" style="stroke: #B38D22; stroke-width: 1.0;"/><text fill="#000000" font-family="sans-serif" font-size="11" lengthAdjust="spacingAndGlyphs" textLength="69" x="466.5" y="1155.6494">termsCount:Int</text><polygon fill="none" points="457.5,1161.4844,461.5,1165.4844,457.5,1169.4844,453.5,1165.4844" style="stroke: #B38D22; stroke-width: 1.0;"/><text fill="#000000" font-family="sans-serif" font-size="11" lengthAdjust="spacingAndGlyphs" textLength="108" x="466.5" y="1169.4854">years:String Array[3][]</text><ellipse cx="457.5" cy="1180.3203" fill="#84BE84" rx="3" ry="3" style="stroke: #038048; stroke-width: 1.0;"/><text fill="#000000" font-family="sans-serif" font-size="11" lengthAdjust="spacingAndGlyphs" textLength="140" x="466.5" y="1183.3213">GetYears(prevResult:Result)</text><polygon fill="#FFFF44" points="457.5,1189.1563,461.5,1193.1563,457.5,1197.1563,453.5,1193.1563" style="stroke: #B38D22; stroke-width: 1.0;"/><text fill="#000000" font-family="sans-serif" font-size="11" lengthAdjust="spacingAndGlyphs" textLength="106" x="466.5" y="1197.1572">getYearsHandler(xhr)</text><line style="stroke: #A80036; stroke-width: 1.0; stroke-dasharray: 1.0,2.0;" x1="447.5" x2="514.5" y1="1137.3125" y2="1137.3125"/><text fill="#000000" font-family="sans-serif" font-size="11" lengthAdjust="spacingAndGlyphs" textLength="30" x="514.5" y="1141.3135">{user}</text><line style="stroke: #A80036; stroke-width: 1.0; stroke-dasharray: 1.0,2.0;" x1="544.5" x2="611.5" y1="1137.3125" y2="1137.3125"/><line style="stroke: #A80036; stroke-width: 1.0; stroke-dasharray: 1.0,2.0;" x1="447.5" x2="460.5" y1="1210.4922" y2="1210.4922"/><text fill="#000000" font-family="sans-serif" font-size="11" lengthAdjust="spacingAndGlyphs" textLength="138" x="460.5" y="1214.4932">result:years:String Array[3][]</text><line style="stroke: #A80036; stroke-width: 1.0; stroke-dasharray: 1.0,2.0;" x1="598.5" x2="611.5" y1="1210.4922" y2="1210.4922"/><line style="stroke: #A80036; stroke-width: 1.0; stroke-dasharray: 1.0,2.0;" x1="447.5" x2="461.5" y1="1231.2461" y2="1231.2461"/><text fill="#000000" font-family="sans-serif" font-size="11" lengthAdjust="spacingAndGlyphs" textLength="136" x="461.5" y="1235.2471">Example: [['12', '11'], [], ['10']]</text><line style="stroke: #A80036; stroke-width: 1.0; stroke-dasharray: 1.0,2.0;" x1="597.5" x2="611.5" y1="1231.2461" y2="1231.2461"/><rect fill="#FEFECE" filter="url(#f1)" height="175.4414" style="stroke: #A80036; stroke-width: 1.5;" width="313" x="444" y="1322.6406"/><ellipse cx="556.25" cy="1338.6406" fill="#ADD1B2" rx="11" ry="11" style="stroke: #A80036; stroke-width: 1.0;"/><path d="M559.0156,1334.5156 Q559.1719,1334.2969 559.3594,1334.1875 Q559.5469,1334.0781 559.7656,1334.0781 Q560.1406,1334.0781 560.375,1334.3359 Q560.6094,1334.5938 560.6094,1335.2031 L560.6094,1336.6563 Q560.6094,1337.2656 560.375,1337.5313 Q560.1406,1337.7969 559.7656,1337.7969 Q559.4219,1337.7969 559.2188,1337.5938 Q559.0156,1337.4063 558.9063,1336.8906 Q558.8594,1336.5313 558.6719,1336.3438 Q558.3438,1335.9688 557.7344,1335.75 Q557.125,1335.5313 556.5,1335.5313 Q555.7344,1335.5313 555.1016,1335.8594 Q554.4688,1336.1875 553.9766,1336.9375 Q553.4844,1337.6875 553.4844,1338.7188 L553.4844,1339.8125 Q553.4844,1341.0469 554.375,1341.8672 Q555.2656,1342.6875 556.8594,1342.6875 Q557.7969,1342.6875 558.4531,1342.4375 Q558.8438,1342.2813 559.2656,1341.8438 Q559.5313,1341.5781 559.6797,1341.5 Q559.8281,1341.4219 560.0313,1341.4219 Q560.3594,1341.4219 560.6172,1341.6797 Q560.875,1341.9375 560.875,1342.2813 Q560.875,1342.625 560.5313,1343.0313 Q560.0313,1343.6094 559.2344,1343.9375 Q558.1563,1344.3906 556.8594,1344.3906 Q555.3438,1344.3906 554.1406,1343.7656 Q553.1563,1343.2656 552.4688,1342.1953 Q551.7813,1341.125 551.7813,1339.8438 L551.7813,1338.6875 Q551.7813,1337.3594 552.3984,1336.2109 Q553.0156,1335.0625 554.1094,1334.4453 Q555.2031,1333.8281 556.4375,1333.8281 Q557.1719,1333.8281 557.8203,1333.9922 Q558.4688,1334.1563 559.0156,1334.5156 Z "/><text fill="#000000" font-family="sans-serif" font-size="12" lengthAdjust="spacingAndGlyphs" textLength="80" x="576.75" y="1343.5508">ScrapeGrades</text><line style="stroke: #A80036; stroke-width: 1.5;" x1="445" x2="756" y1="1354.6406" y2="1354.6406"/><line style="stroke: #A80036; stroke-width: 1.0; stroke-dasharray: 1.0,2.0;" x1="445" x2="554.5" y1="1369.5586" y2="1369.5586"/><text fill="#000000" font-family="sans-serif" font-size="11" lengthAdjust="spacingAndGlyphs" textLength="92" x="554.5" y="1373.5596">Assumes logged in</text><line style="stroke: #A80036; stroke-width: 1.0; stroke-dasharray: 1.0,2.0;" x1="646.5" x2="756" y1="1369.5586" y2="1369.5586"/><polygon fill="none" points="455,1400.6484,459,1404.6484,455,1408.6484,451,1404.6484" style="stroke: #B38D22; stroke-width: 1.0;"/><text fill="#000000" font-family="sans-serif" font-size="11" lengthAdjust="spacingAndGlyphs" textLength="111" x="464" y="1408.6494">termsYearsCount:Int[3]</text><polygon fill="none" points="455,1414.4844,459,1418.4844,455,1422.4844,451,1418.4844" style="stroke: #B38D22; stroke-width: 1.0;"/><text fill="#000000" font-family="sans-serif" font-size="11" lengthAdjust="spacingAndGlyphs" textLength="138" x="464" y="1422.4854">doneTermsYearsCount:Int[3]</text><ellipse cx="455" cy="1433.3203" fill="#84BE84" rx="3" ry="3" style="stroke: #038048; stroke-width: 1.0;"/><text fill="#000000" font-family="sans-serif" font-size="11" lengthAdjust="spacingAndGlyphs" textLength="164" x="464" y="1436.3213">ScrapeGrades(prevResult:Result)</text><polygon fill="#FFFF44" points="455,1442.1563,459,1446.1563,455,1450.1563,451,1446.1563" style="stroke: #B38D22; stroke-width: 1.0;"/><text fill="#000000" font-family="sans-serif" font-size="11" lengthAdjust="spacingAndGlyphs" textLength="119" x="464" y="1450.1572">scrapeTermHandler(xhr)</text><line style="stroke: #A80036; stroke-width: 1.0; stroke-dasharray: 1.0,2.0;" x1="445" x2="528.5" y1="1390.3125" y2="1390.3125"/><text fill="#000000" font-family="sans-serif" font-size="11" lengthAdjust="spacingAndGlyphs" textLength="144" x="528.5" y="1394.3135">{user, years:String Array[3][]}</text><line style="stroke: #A80036; stroke-width: 1.0; stroke-dasharray: 1.0,2.0;" x1="672.5" x2="756" y1="1390.3125" y2="1390.3125"/><line style="stroke: #A80036; stroke-width: 1.0; stroke-dasharray: 1.0,2.0;" x1="445" x2="448" y1="1463.4922" y2="1463.4922"/><text fill="#000000" font-family="sans-serif" font-size="11" lengthAdjust="spacingAndGlyphs" textLength="305" x="448" y="1467.4932">result:{0..*String:Array[3] each either HTML Table or undefined}</text><line style="stroke: #A80036; stroke-width: 1.0; stroke-dasharray: 1.0,2.0;" x1="753" x2="756" y1="1463.4922" y2="1463.4922"/><line style="stroke: #A80036; stroke-width: 1.0; stroke-dasharray: 1.0,2.0;" x1="445" x2="477" y1="1484.2461" y2="1484.2461"/><text fill="#000000" font-family="sans-serif" font-size="11" lengthAdjust="spacingAndGlyphs" textLength="247" x="477" y="1488.2471">Example: {'12':[HT, undefined, HT], '10':[HT, HT, HT]}</text><line style="stroke: #A80036; stroke-width: 1.0; stroke-dasharray: 1.0,2.0;" x1="724" x2="756" y1="1484.2461" y2="1484.2461"/><polygon fill="#FBFB77" filter="url(#f1)" points="42,935.6406,42,961.9922,361,961.9922,361,945.6406,351,935.6406,42,935.6406" style="stroke: #A80036; stroke-width: 1.0;"/><polygon fill="#FBFB77" points="42,935.6406,42,961.9922,361,961.9922,361,945.6406,351,935.6406,220.191,935.6406,344.295,827.7816,212.191,935.6406,42,935.6406" style="stroke: #A80036; stroke-width: 1.0;"/><line style="stroke: #A80036; stroke-width: 1.0;" x1="351" x2="351" y1="935.6406" y2="945.6406"/><line style="stroke: #A80036; stroke-width: 1.0;" x1="361" x2="351" y1="945.6406" y2="945.6406"/><text fill="#000000" font-family="sans-serif" font-size="13" lengthAdjust="spacingAndGlyphs" textLength="298" x="48" y="954.1357">Only class that does the work even if err.length &gt; 0.</text><polygon fill="#FBFB77" filter="url(#f1)" points="367,97.1406,367,123.4922,680,123.4922,680,107.1406,670,97.1406,367,97.1406" style="stroke: #A80036; stroke-width: 1.0;"/><polygon fill="#FBFB77" points="367,97.1406,367,123.4922,519.5,123.4922,523.5,267.5406,527.5,123.4922,680,123.4922,680,107.1406,670,97.1406,367,97.1406" style="stroke: #A80036; stroke-width: 1.0;"/><line style="stroke: #A80036; stroke-width: 1.0;" x1="670" x2="670" y1="97.1406" y2="107.1406"/><line style="stroke: #A80036; stroke-width: 1.0;" x1="680" x2="670" y1="107.1406" y2="107.1406"/><text fill="#000000" font-family="sans-serif" font-size="13" lengthAdjust="spacingAndGlyphs" textLength="292" x="373" y="115.6357">PhaseRunner is a Singleton. No impl. details here.</text><rect fill="#FEFECE" filter="url(#f1)" height="75.6719" style="stroke: #A80036; stroke-width: 1.5;" width="219" x="715" y="72.1406"/><ellipse cx="802.25" cy="88.1406" fill="#ADD1B2" rx="11" ry="11" style="stroke: #A80036; stroke-width: 1.0;"/><path d="M805.0156,84.0156 Q805.1719,83.7969 805.3594,83.6875 Q805.5469,83.5781 805.7656,83.5781 Q806.1406,83.5781 806.375,83.8359 Q806.6094,84.0938 806.6094,84.7031 L806.6094,86.1563 Q806.6094,86.7656 806.375,87.0313 Q806.1406,87.2969 805.7656,87.2969 Q805.4219,87.2969 805.2188,87.0938 Q805.0156,86.9063 804.9063,86.3906 Q804.8594,86.0313 804.6719,85.8438 Q804.3438,85.4688 803.7344,85.25 Q803.125,85.0313 802.5,85.0313 Q801.7344,85.0313 801.1016,85.3594 Q800.4688,85.6875 799.9766,86.4375 Q799.4844,87.1875 799.4844,88.2188 L799.4844,89.3125 Q799.4844,90.5469 800.375,91.3672 Q801.2656,92.1875 802.8594,92.1875 Q803.7969,92.1875 804.4531,91.9375 Q804.8438,91.7813 805.2656,91.3438 Q805.5313,91.0781 805.6797,91 Q805.8281,90.9219 806.0313,90.9219 Q806.3594,90.9219 806.6172,91.1797 Q806.875,91.4375 806.875,91.7813 Q806.875,92.125 806.5313,92.5313 Q806.0313,93.1094 805.2344,93.4375 Q804.1563,93.8906 802.8594,93.8906 Q801.3438,93.8906 800.1406,93.2656 Q799.1563,92.7656 798.4688,91.6953 Q797.7813,90.625 797.7813,89.3438 L797.7813,88.1875 Q797.7813,86.8594 798.3984,85.7109 Q799.0156,84.5625 800.1094,83.9453 Q801.2031,83.3281 802.4375,83.3281 Q803.1719,83.3281 803.8203,83.4922 Q804.4688,83.6563 805.0156,84.0156 Z "/><text fill="#000000" font-family="sans-serif" font-size="12" lengthAdjust="spacingAndGlyphs" textLength="36" x="822.75" y="93.0508">Result</text><line style="stroke: #A80036; stroke-width: 1.5;" x1="716" x2="933" y1="104.1406" y2="104.1406"/><ellipse cx="726" cy="116.5586" fill="none" rx="3" ry="3" style="stroke: #038048; stroke-width: 1.0;"/><text fill="#000000" font-family="sans-serif" font-size="11" lengthAdjust="spacingAndGlyphs" textLength="47" x="735" y="119.5596">err:Error[]</text><ellipse cx="726" cy="130.3945" fill="none" rx="3" ry="3" style="stroke: #038048; stroke-width: 1.0;"/><text fill="#000000" font-family="sans-serif" font-size="11" lengthAdjust="spacingAndGlyphs" textLength="193" x="735" y="133.3955">user:String, for checking on most pages</text><line style="stroke: #A80036; stroke-width: 1.5;" x1="716" x2="933" y1="139.8125" y2="139.8125"/><rect fill="#FEFECE" filter="url(#f1)" height="158.6875" style="stroke: #A80036; stroke-width: 1.5;" width="369" x="969" y="30.6406"/><ellipse cx="1128.75" cy="46.6406" fill="#ADD1B2" rx="11" ry="11" style="stroke: #A80036; stroke-width: 1.0;"/><path d="M1131.5156,42.5156 Q1131.6719,42.2969 1131.8594,42.1875 Q1132.0469,42.0781 1132.2656,42.0781 Q1132.6406,42.0781 1132.875,42.3359 Q1133.1094,42.5938 1133.1094,43.2031 L1133.1094,44.6563 Q1133.1094,45.2656 1132.875,45.5313 Q1132.6406,45.7969 1132.2656,45.7969 Q1131.9219,45.7969 1131.7188,45.5938 Q1131.5156,45.4063 1131.4063,44.8906 Q1131.3594,44.5313 1131.1719,44.3438 Q1130.8438,43.9688 1130.2344,43.75 Q1129.625,43.5313 1129,43.5313 Q1128.2344,43.5313 1127.6016,43.8594 Q1126.9688,44.1875 1126.4766,44.9375 Q1125.9844,45.6875 1125.9844,46.7188 L1125.9844,47.8125 Q1125.9844,49.0469 1126.875,49.8672 Q1127.7656,50.6875 1129.3594,50.6875 Q1130.2969,50.6875 1130.9531,50.4375 Q1131.3438,50.2813 1131.7656,49.8438 Q1132.0313,49.5781 1132.1797,49.5 Q1132.3281,49.4219 1132.5313,49.4219 Q1132.8594,49.4219 1133.1172,49.6797 Q1133.375,49.9375 1133.375,50.2813 Q1133.375,50.625 1133.0313,51.0313 Q1132.5313,51.6094 1131.7344,51.9375 Q1130.6563,52.3906 1129.3594,52.3906 Q1127.8438,52.3906 1126.6406,51.7656 Q1125.6563,51.2656 1124.9688,50.1953 Q1124.2813,49.125 1124.2813,47.8438 L1124.2813,46.6875 Q1124.2813,45.3594 1124.8984,44.2109 Q1125.5156,43.0625 1126.6094,42.4453 Q1127.7031,41.8281 1128.9375,41.8281 Q1129.6719,41.8281 1130.3203,41.9922 Q1130.9688,42.1563 1131.5156,42.5156 Z "/><text fill="#000000" font-family="sans-serif" font-size="12" lengthAdjust="spacingAndGlyphs" textLength="41" x="1149.25" y="51.5508">Utilities</text><line style="stroke: #A80036; stroke-width: 1.5;" x1="970" x2="1337" y1="62.6406" y2="62.6406"/><line style="stroke: #A80036; stroke-width: 1.5;" x1="970" x2="1337" y1="70.6406" y2="70.6406"/><ellipse cx="980" cy="83.0586" fill="#84BE84" rx="3" ry="3" style="stroke: #038048; stroke-width: 1.0;"/><text fill="#000000" font-family="sans-serif" font-size="11" lengthAdjust="spacingAndGlyphs" textLength="315" x="989" y="86.0596">void sendGET(url:String, handler:Function, infoForHandler:Object)</text><ellipse cx="980" cy="96.8945" fill="#84BE84" rx="3" ry="3" style="stroke: #038048; stroke-width: 1.0;"/><text fill="#000000" font-family="sans-serif" font-size="11" lengthAdjust="spacingAndGlyphs" textLength="343" x="989" y="99.8955">void sendPOST(url:String, nameValuePairs:Array[][2], handler:Function,</text><text fill="#000000" font-family="sans-serif" font-size="11" lengthAdjust="spacingAndGlyphs" textLength="109" x="1019" y="113.7314">infoForHandler:Object)</text><ellipse cx="980" cy="124.5664" fill="#84BE84" rx="3" ry="3" style="stroke: #038048; stroke-width: 1.0;"/><text fill="#000000" font-family="sans-serif" font-size="11" lengthAdjust="spacingAndGlyphs" textLength="218" x="989" y="127.5674">DOMObject parseHTML(anHTMLString:String)</text><ellipse cx="980" cy="138.4023" fill="#84BE84" rx="3" ry="3" style="stroke: #038048; stroke-width: 1.0;"/><text fill="#000000" font-family="sans-serif" font-size="11" lengthAdjust="spacingAndGlyphs" textLength="249" x="989" y="141.4033">Bool/String checkUser(user:String, doc:DOMObject)</text><ellipse cx="980" cy="152.2383" fill="#84BE84" rx="3" ry="3" style="stroke: #038048; stroke-width: 1.0;"/><text fill="#000000" font-family="sans-serif" font-size="11" lengthAdjust="spacingAndGlyphs" textLength="237" x="989" y="155.2393">Function curryOneParam(fn:Function, param:var)</text><ellipse cx="980" cy="166.0742" fill="#84BE84" rx="3" ry="3" style="stroke: #038048; stroke-width: 1.0;"/><text fill="#000000" font-family="sans-serif" font-size="11" lengthAdjust="spacingAndGlyphs" textLength="166" x="989" y="169.0752">Bool/DOMObject handlerBase(xhr)</text><polygon fill="#FFFF44" points="980,174.9102,984,178.9102,980,182.9102,976,178.9102" style="stroke: #B38D22; stroke-width: 1.0;"/><text fill="#000000" font-family="sans-serif" font-size="11" lengthAdjust="spacingAndGlyphs" textLength="303" x="989" y="182.9111">void initReq(url:String, handler:Function, infoForHandler:Object)</text><path d="M114.448,411.5706 C98.1773,460.5906 76.5765,525.6666 65.2249,559.8666 " fill="none" style="stroke: #A80036; stroke-width: 1.0;"/><polygon fill="none" points="107.885,409.1206,120.829,392.3406,121.172,413.5306,107.885,409.1206" style="stroke: #A80036; stroke-width: 1.0;"/><path d="M164.923,410.4306 C186.665,456.4606 215.317,517.1236 232.238,552.9466 " fill="none" style="stroke: #A80036; stroke-width: 1.0;"/><polygon fill="none" points="158.591,413.4206,156.378,392.3406,171.25,407.4406,158.591,413.4206" style="stroke: #A80036; stroke-width: 1.0;"/><path d="M135.5,189.7206 C135.5,225.0406 135.5,265.6406 135.5,296.6306 " fill="none" style="stroke: #A80036; stroke-width: 1.0;"/><polygon fill="#A80036" points="135.5,301.9106,139.5,292.9106,135.5,296.9106,131.5,292.9106,135.5,301.9106" style="stroke: #A80036; stroke-width: 1.0;"/><text fill="#000000" font-family="sans-serif" font-size="13" lengthAdjust="spacingAndGlyphs" textLength="125" x="136.5" y="234.1357">at any times contains</text><text fill="#000000" font-family="sans-serif" font-size="13" lengthAdjust="spacingAndGlyphs" textLength="20" x="113.9688" y="291.3195">0..*</text><path d="M523.5,426.7206 C523.5,450.1406 523.5,475.8806 523.5,499.6066 " fill="none" style="stroke: #A80036; stroke-width: 1.0;"/><polygon fill="#A80036" points="523.5,504.6366,527.5,495.6366,523.5,499.6366,519.5,495.6366,523.5,504.6366" style="stroke: #A80036; stroke-width: 1.0;"/><text fill="#000000" font-family="sans-serif" font-size="13" lengthAdjust="spacingAndGlyphs" textLength="21" x="524.5" y="471.1357">has</text><text fill="#000000" font-family="sans-serif" font-size="13" lengthAdjust="spacingAndGlyphs" textLength="20" x="502.5469" y="493.8275">0..*</text><path d="M418.303,657.6466 C373.988,688.1896 324.374,722.3856 288.028,747.4366 " fill="none" style="stroke: #A80036; stroke-width: 1.0;"/><polygon fill="#A80036" points="283.662,750.4456,293.3425,748.6325,287.7791,747.6085,288.8031,742.0451,283.662,750.4456" style="stroke: #A80036; stroke-width: 1.0;"/><text fill="#000000" font-family="sans-serif" font-size="13" lengthAdjust="spacingAndGlyphs" textLength="21" x="363.5" y="708.1357">has</text><path d="M461.296,680.8576 C447.439,702.1806 433.439,723.7226 421.862,741.5376 " fill="none" style="stroke: #A80036; stroke-width: 1.0;"/><polygon fill="none" points="455.563,676.8336,472.331,663.8786,467.302,684.4626,455.563,676.8336" style="stroke: #A80036; stroke-width: 1.0;"/><path d="M524.624,683.9356 C523.149,740.8046 517.632,813.1606 501.5,875.6406 C498.922,885.6256 495.022,895.9406 490.796,905.5336 " fill="none" style="stroke: #A80036; stroke-width: 1.0;"/><polygon fill="none" points="517.629,683.5986,524.997,663.7316,531.627,683.8566,517.629,683.5986" style="stroke: #A80036; stroke-width: 1.0;"/><path d="M550.132,683.5486 C571.37,775.9846 594.249,917.9066 572.5,1039.6406 C570.737,1049.5096 568.195,1059.6366 565.217,1069.6036 " fill="none" style="stroke: #A80036; stroke-width: 1.0;"/><polygon fill="none" points="543.306,685.1036,545.501,664.0276,556.928,681.8716,543.306,685.1036" style="stroke: #A80036; stroke-width: 1.0;"/><path d="M625.622,679.7676 C648.172,710.1066 665.5,745.7486 665.5,783.6406 C665.5,783.6406 665.5,783.6406 665.5,1158.1406 C665.5,1214.0706 650.188,1274.8356 634.428,1322.5686 " fill="none" style="stroke: #A80036; stroke-width: 1.0;"/><polygon fill="none" points="620.004,683.9496,613.028,663.9406,630.959,675.2326,620.004,683.9496" style="stroke: #A80036; stroke-width: 1.0;"/><path d="M390.231,827.8096 C390.215,843.3946 392.11,860.8526 398.5,875.6406 C402.482,884.8556 408.213,893.5676 414.706,901.5366 " fill="none" style="stroke: #A80036; stroke-width: 1.0; stroke-dasharray: 7.0,7.0;"/><polygon fill="#A80036" points="417.951,905.3876,415.2141,895.9267,414.7306,901.5628,409.0944,901.0794,417.951,905.3876" style="stroke: #A80036; stroke-width: 1.0;"/><text fill="#000000" font-family="sans-serif" font-size="13" lengthAdjust="spacingAndGlyphs" textLength="97" x="399.5" y="872.1357">prepares data for</text><path d="M464.974,991.8226 C464.739,1007.0836 465.697,1024.3236 469.5,1039.6406 C471.543,1047.8686 474.262,1056.1706 477.418,1064.3496 " fill="none" style="stroke: #A80036; stroke-width: 1.0; stroke-dasharray: 7.0,7.0;"/><polygon fill="#A80036" points="479.438,1069.4246,479.8271,1059.5835,477.5894,1064.7789,472.394,1062.5412,479.438,1069.4246" style="stroke: #A80036; stroke-width: 1.0;"/><text fill="#000000" font-family="sans-serif" font-size="13" lengthAdjust="spacingAndGlyphs" textLength="97" x="470.5" y="1036.1357">prepares data for</text><path d="M531.535,1244.7886 C533.331,1260.8986 536.151,1277.4356 540.5,1292.6406 C542.902,1301.0376 545.933,1309.5366 549.35,1317.9176 " fill="none" style="stroke: #A80036; stroke-width: 1.0; stroke-dasharray: 7.0,7.0;"/><polygon fill="#A80036" points="551.287,1322.5596,551.5158,1312.7134,549.363,1317.9446,544.1318,1315.7918,551.287,1322.5596" style="stroke: #A80036; stroke-width: 1.0;"/><text fill="#000000" font-family="sans-serif" font-size="13" lengthAdjust="spacingAndGlyphs" textLength="97" x="541.5" y="1289.1357">prepares data for</text></g></svg>