<?xml version="1.0" encoding="UTF-8" standalone="yes"?><svg xmlns="http://www.w3.org/2000/svg" xmlns:xlink="http://www.w3.org/1999/xlink" height="1012px" style="width:1347px;height:1012px;" version="1.1" viewBox="0 0 1347 1012" width="1347px"><defs><filter height="300%" id="f1" width="300%" x="-1" y="-1"><feGaussianBlur result="blurOut" stdDeviation="2.0"/><feColorMatrix in="blurOut" result="blurOut2" type="matrix" values="0 0 0 0 0 0 0 0 0 0 0 0 0 0 0 0 0 0 .4 0"/><feOffset dx="4.0" dy="4.0" in="blurOut2" result="blurOut3"/><feBlend in="SourceGraphic" in2="blurOut3" mode="normal"/></filter></defs><g><text fill="#000000" font-family="sans-serif" font-size="18" lengthAdjust="spacingAndGlyphs" textLength="432" x="462" y="18.6855">Class Diagram. Doesn't have to represent actual truth!</text><rect fill="#FEFECE" filter="url(#f1)" height="89.5078" style="stroke: #A80036; stroke-width: 1.5;" width="128" x="71.5" y="302.1406"/><ellipse cx="109" cy="318.1406" fill="#A9DCDF" rx="11" ry="11" style="stroke: #A80036; stroke-width: 1.0;"/><path d="M111.1875,319.9063 L107.0469,319.9063 L106.625,320.9375 L107.0469,320.9375 Q107.6563,320.9375 107.9219,321.1719 Q108.1875,321.4063 108.1875,321.7969 Q108.1875,322.1719 107.9219,322.4063 Q107.6563,322.6406 107.0469,322.6406 L104.75,322.6406 Q104.1406,322.6406 103.8828,322.4063 Q103.625,322.1719 103.625,321.7813 Q103.625,321.4063 103.8984,321.1641 Q104.1719,320.9219 104.7969,320.9375 L107.4688,314.2813 L106.3594,314.2813 Q105.75,314.2813 105.4844,314.0469 Q105.2188,313.8125 105.2188,313.4219 Q105.2188,313.0469 105.4844,312.8125 Q105.75,312.5781 106.3594,312.5781 L110.0313,312.5781 L113.4219,320.9375 Q114.0156,320.9375 114.2031,321.0781 Q114.5938,321.3438 114.5938,321.7969 Q114.5938,322.1719 114.3359,322.4063 Q114.0781,322.6406 113.4688,322.6406 L111.1719,322.6406 Q110.5625,322.6406 110.2969,322.4063 Q110.0313,322.1719 110.0313,321.7813 Q110.0313,321.4063 110.2969,321.1719 Q110.5625,320.9375 111.1719,320.9375 L111.5938,320.9375 L111.1875,319.9063 Z M110.4688,318.2031 L109.1094,314.8281 L107.7344,318.2031 L110.4688,318.2031 Z "/><text fill="#000000" font-family="sans-serif" font-size="12" font-style="italic" lengthAdjust="spacingAndGlyphs" textLength="46" x="128" y="323.0508">Request</text><line style="stroke: #A80036; stroke-width: 1.5;" x1="72.5" x2="198.5" y1="334.1406" y2="334.1406"/><ellipse cx="82.5" cy="346.5586" fill="none" rx="3" ry="3" style="stroke: #038048; stroke-width: 1.0;"/><text fill="#000000" font-family="sans-serif" font-size="11" lengthAdjust="spacingAndGlyphs" textLength="43" x="91.5" y="349.5596">url:String</text><ellipse cx="82.5" cy="360.3945" fill="none" rx="3" ry="3" style="stroke: #038048; stroke-width: 1.0;"/><text fill="#000000" font-family="sans-serif" font-size="11" lengthAdjust="spacingAndGlyphs" textLength="80" x="91.5" y="363.3955">handler:Function</text><ellipse cx="82.5" cy="374.2305" fill="none" rx="3" ry="3" style="stroke: #038048; stroke-width: 1.0;"/><text fill="#000000" font-family="sans-serif" font-size="11" lengthAdjust="spacingAndGlyphs" textLength="102" x="91.5" y="377.2314">infoForHandler:String</text><line style="stroke: #A80036; stroke-width: 1.5;" x1="72.5" x2="198.5" y1="383.6484" y2="383.6484"/><rect fill="#FEFECE" filter="url(#f1)" height="48" style="stroke: #A80036; stroke-width: 1.5;" width="103" x="6" y="560.1406"/><ellipse cx="21" cy="576.1406" fill="#ADD1B2" rx="11" ry="11" style="stroke: #A80036; stroke-width: 1.0;"/><path d="M23.7656,572.0156 Q23.9219,571.7969 24.1094,571.6875 Q24.2969,571.5781 24.5156,571.5781 Q24.8906,571.5781 25.125,571.8359 Q25.3594,572.0938 25.3594,572.7031 L25.3594,574.1563 Q25.3594,574.7656 25.125,575.0313 Q24.8906,575.2969 24.5156,575.2969 Q24.1719,575.2969 23.9688,575.0938 Q23.7656,574.9063 23.6563,574.3906 Q23.6094,574.0313 23.4219,573.8438 Q23.0938,573.4688 22.4844,573.25 Q21.875,573.0313 21.25,573.0313 Q20.4844,573.0313 19.8516,573.3594 Q19.2188,573.6875 18.7266,574.4375 Q18.2344,575.1875 18.2344,576.2188 L18.2344,577.3125 Q18.2344,578.5469 19.125,579.3672 Q20.0156,580.1875 21.6094,580.1875 Q22.5469,580.1875 23.2031,579.9375 Q23.5938,579.7813 24.0156,579.3438 Q24.2813,579.0781 24.4297,579 Q24.5781,578.9219 24.7813,578.9219 Q25.1094,578.9219 25.3672,579.1797 Q25.625,579.4375 25.625,579.7813 Q25.625,580.125 25.2813,580.5313 Q24.7813,581.1094 23.9844,581.4375 Q22.9063,581.8906 21.6094,581.8906 Q20.0938,581.8906 18.8906,581.2656 Q17.9063,580.7656 17.2188,579.6953 Q16.5313,578.625 16.5313,577.3438 L16.5313,576.1875 Q16.5313,574.8594 17.1484,573.7109 Q17.7656,572.5625 18.8594,571.9453 Q19.9531,571.3281 21.1875,571.3281 Q21.9219,571.3281 22.5703,571.4922 Q23.2188,571.6563 23.7656,572.0156 Z "/><text fill="#000000" font-family="sans-serif" font-size="12" lengthAdjust="spacingAndGlyphs" textLength="71" x="35" y="581.0508">GETRequest</text><line style="stroke: #A80036; stroke-width: 1.5;" x1="7" x2="108" y1="592.1406" y2="592.1406"/><line style="stroke: #A80036; stroke-width: 1.5;" x1="7" x2="108" y1="600.1406" y2="600.1406"/><rect fill="#FEFECE" filter="url(#f1)" height="61.8359" style="stroke: #A80036; stroke-width: 1.5;" width="205" x="144" y="553.1406"/><ellipse cx="202.75" cy="569.1406" fill="#ADD1B2" rx="11" ry="11" style="stroke: #A80036; stroke-width: 1.0;"/><path d="M205.5156,565.0156 Q205.6719,564.7969 205.8594,564.6875 Q206.0469,564.5781 206.2656,564.5781 Q206.6406,564.5781 206.875,564.8359 Q207.1094,565.0938 207.1094,565.7031 L207.1094,567.1563 Q207.1094,567.7656 206.875,568.0313 Q206.6406,568.2969 206.2656,568.2969 Q205.9219,568.2969 205.7188,568.0938 Q205.5156,567.9063 205.4063,567.3906 Q205.3594,567.0313 205.1719,566.8438 Q204.8438,566.4688 204.2344,566.25 Q203.625,566.0313 203,566.0313 Q202.2344,566.0313 201.6016,566.3594 Q200.9688,566.6875 200.4766,567.4375 Q199.9844,568.1875 199.9844,569.2188 L199.9844,570.3125 Q199.9844,571.5469 200.875,572.3672 Q201.7656,573.1875 203.3594,573.1875 Q204.2969,573.1875 204.9531,572.9375 Q205.3438,572.7813 205.7656,572.3438 Q206.0313,572.0781 206.1797,572 Q206.3281,571.9219 206.5313,571.9219 Q206.8594,571.9219 207.1172,572.1797 Q207.375,572.4375 207.375,572.7813 Q207.375,573.125 207.0313,573.5313 Q206.5313,574.1094 205.7344,574.4375 Q204.6563,574.8906 203.3594,574.8906 Q201.8438,574.8906 200.6406,574.2656 Q199.6563,573.7656 198.9688,572.6953 Q198.2813,571.625 198.2813,570.3438 L198.2813,569.1875 Q198.2813,567.8594 198.8984,566.7109 Q199.5156,565.5625 200.6094,564.9453 Q201.7031,564.3281 202.9375,564.3281 Q203.6719,564.3281 204.3203,564.4922 Q204.9688,564.6563 205.5156,565.0156 Z "/><text fill="#000000" font-family="sans-serif" font-size="12" lengthAdjust="spacingAndGlyphs" textLength="79" x="223.25" y="574.0508">POSTRequest</text><line style="stroke: #A80036; stroke-width: 1.5;" x1="145" x2="348" y1="585.1406" y2="585.1406"/><ellipse cx="155" cy="597.5586" fill="none" rx="3" ry="3" style="stroke: #038048; stroke-width: 1.0;"/><text fill="#000000" font-family="sans-serif" font-size="11" lengthAdjust="spacingAndGlyphs" textLength="179" x="164" y="600.5596">nameValuePairs:Array[pairsCount][2]</text><line style="stroke: #A80036; stroke-width: 1.5;" x1="145" x2="348" y1="606.9766" y2="606.9766"/><rect fill="#FEFECE" filter="url(#f1)" height="158.6875" style="stroke: #A80036; stroke-width: 1.5;" width="239" x="16" y="30.6406"/><ellipse cx="87.25" cy="46.6406" fill="#ADD1B2" rx="11" ry="11" style="stroke: #A80036; stroke-width: 1.0;"/><path d="M90.0156,42.5156 Q90.1719,42.2969 90.3594,42.1875 Q90.5469,42.0781 90.7656,42.0781 Q91.1406,42.0781 91.375,42.3359 Q91.6094,42.5938 91.6094,43.2031 L91.6094,44.6563 Q91.6094,45.2656 91.375,45.5313 Q91.1406,45.7969 90.7656,45.7969 Q90.4219,45.7969 90.2188,45.5938 Q90.0156,45.4063 89.9063,44.8906 Q89.8594,44.5313 89.6719,44.3438 Q89.3438,43.9688 88.7344,43.75 Q88.125,43.5313 87.5,43.5313 Q86.7344,43.5313 86.1016,43.8594 Q85.4688,44.1875 84.9766,44.9375 Q84.4844,45.6875 84.4844,46.7188 L84.4844,47.8125 Q84.4844,49.0469 85.375,49.8672 Q86.2656,50.6875 87.8594,50.6875 Q88.7969,50.6875 89.4531,50.4375 Q89.8438,50.2813 90.2656,49.8438 Q90.5313,49.5781 90.6797,49.5 Q90.8281,49.4219 91.0313,49.4219 Q91.3594,49.4219 91.6172,49.6797 Q91.875,49.9375 91.875,50.2813 Q91.875,50.625 91.5313,51.0313 Q91.0313,51.6094 90.2344,51.9375 Q89.1563,52.3906 87.8594,52.3906 Q86.3438,52.3906 85.1406,51.7656 Q84.1563,51.2656 83.4688,50.1953 Q82.7813,49.125 82.7813,47.8438 L82.7813,46.6875 Q82.7813,45.3594 83.3984,44.2109 Q84.0156,43.0625 85.1094,42.4453 Q86.2031,41.8281 87.4375,41.8281 Q88.1719,41.8281 88.8203,41.9922 Q89.4688,42.1563 90.0156,42.5156 Z "/><text fill="#000000" font-family="sans-serif" font-size="12" lengthAdjust="spacingAndGlyphs" textLength="88" x="107.75" y="51.5508">RequestRunner</text><line style="stroke: #A80036; stroke-width: 1.5;" x1="17" x2="254" y1="62.6406" y2="62.6406"/><polygon fill="none" points="27,70.0586,31,74.0586,27,78.0586,23,74.0586" style="stroke: #B38D22; stroke-width: 1.0;"/><text fill="#000000" font-family="sans-serif" font-size="11" lengthAdjust="spacingAndGlyphs" textLength="66" x="36" y="78.0596">delay:Number</text><polygon fill="none" points="27,83.8945,31,87.8945,27,91.8945,23,87.8945" style="stroke: #B38D22; stroke-width: 1.0;"/><text fill="#000000" font-family="sans-serif" font-size="11" lengthAdjust="spacingAndGlyphs" textLength="94" x="36" y="91.8955">requestQ:Request[]</text><polygon fill="none" points="27,97.7305,31,101.7305,27,105.7305,23,101.7305" style="stroke: #B38D22; stroke-width: 1.0;"/><text fill="#000000" font-family="sans-serif" font-size="11" lengthAdjust="spacingAndGlyphs" textLength="73" x="36" y="105.7314">interval:Interval</text><line style="stroke: #A80036; stroke-width: 1.5;" x1="17" x2="254" y1="112.1484" y2="112.1484"/><ellipse cx="27" cy="124.5664" fill="#84BE84" rx="3" ry="3" style="stroke: #038048; stroke-width: 1.0;"/><text fill="#000000" font-family="sans-serif" font-size="11" lengthAdjust="spacingAndGlyphs" textLength="149" x="36" y="127.5674">RequestRunner(delay:Number)</text><ellipse cx="27" cy="138.4023" fill="#84BE84" rx="3" ry="3" style="stroke: #038048; stroke-width: 1.0;"/><text fill="#000000" font-family="sans-serif" font-size="11" lengthAdjust="spacingAndGlyphs" textLength="160" x="36" y="141.4033">void changeDelay(delay:Number)</text><ellipse cx="27" cy="152.2383" fill="#84BE84" rx="3" ry="3" style="stroke: #038048; stroke-width: 1.0;"/><text fill="#000000" font-family="sans-serif" font-size="11" lengthAdjust="spacingAndGlyphs" textLength="92" x="36" y="155.2393">void emptyQueue()</text><ellipse cx="27" cy="166.0742" fill="#84BE84" rx="3" ry="3" style="stroke: #038048; stroke-width: 1.0;"/><text fill="#000000" font-family="sans-serif" font-size="11" lengthAdjust="spacingAndGlyphs" textLength="213" x="36" y="169.0752">void addRequestToQueue(request:Request)</text><polygon fill="#FFFF44" points="27,174.9102,31,178.9102,27,182.9102,23,178.9102" style="stroke: #B38D22; stroke-width: 1.0;"/><text fill="#000000" font-family="sans-serif" font-size="11" lengthAdjust="spacingAndGlyphs" textLength="154" x="36" y="182.9111">applyRequest(request:Request)</text><rect fill="#FEFECE" filter="url(#f1)" height="158.6875" style="stroke: #A80036; stroke-width: 1.5;" width="389" x="329" y="267.6406"/><ellipse cx="480.75" cy="283.6406" fill="#ADD1B2" rx="11" ry="11" style="stroke: #A80036; stroke-width: 1.0;"/><path d="M483.5156,279.5156 Q483.6719,279.2969 483.8594,279.1875 Q484.0469,279.0781 484.2656,279.0781 Q484.6406,279.0781 484.875,279.3359 Q485.1094,279.5938 485.1094,280.2031 L485.1094,281.6563 Q485.1094,282.2656 484.875,282.5313 Q484.6406,282.7969 484.2656,282.7969 Q483.9219,282.7969 483.7188,282.5938 Q483.5156,282.4063 483.4063,281.8906 Q483.3594,281.5313 483.1719,281.3438 Q482.8438,280.9688 482.2344,280.75 Q481.625,280.5313 481,280.5313 Q480.2344,280.5313 479.6016,280.8594 Q478.9688,281.1875 478.4766,281.9375 Q477.9844,282.6875 477.9844,283.7188 L477.9844,284.8125 Q477.9844,286.0469 478.875,286.8672 Q479.7656,287.6875 481.3594,287.6875 Q482.2969,287.6875 482.9531,287.4375 Q483.3438,287.2813 483.7656,286.8438 Q484.0313,286.5781 484.1797,286.5 Q484.3281,286.4219 484.5313,286.4219 Q484.8594,286.4219 485.1172,286.6797 Q485.375,286.9375 485.375,287.2813 Q485.375,287.625 485.0313,288.0313 Q484.5313,288.6094 483.7344,288.9375 Q482.6563,289.3906 481.3594,289.3906 Q479.8438,289.3906 478.6406,288.7656 Q477.6563,288.2656 476.9688,287.1953 Q476.2813,286.125 476.2813,284.8438 L476.2813,283.6875 Q476.2813,282.3594 476.8984,281.2109 Q477.5156,280.0625 478.6094,279.4453 Q479.7031,278.8281 480.9375,278.8281 Q481.6719,278.8281 482.3203,278.9922 Q482.9688,279.1563 483.5156,279.5156 Z "/><text fill="#000000" font-family="sans-serif" font-size="12" lengthAdjust="spacingAndGlyphs" textLength="77" x="501.25" y="288.5508">PhaseRunner</text><line style="stroke: #A80036; stroke-width: 1.5;" x1="330" x2="717" y1="299.6406" y2="299.6406"/><polygon fill="none" points="340,307.0586,344,311.0586,340,315.0586,336,311.0586" style="stroke: #B38D22; stroke-width: 1.0;"/><text fill="#000000" font-family="sans-serif" font-size="11" lengthAdjust="spacingAndGlyphs" textLength="75" x="349" y="315.0596">phases:Phase[]</text><polygon fill="none" points="340,320.8945,344,324.8945,340,328.8945,336,324.8945" style="stroke: #B38D22; stroke-width: 1.0;"/><text fill="#000000" font-family="sans-serif" font-size="11" lengthAdjust="spacingAndGlyphs" textLength="82" x="349" y="328.8955">someInput:Result</text><polygon fill="none" points="340,334.7305,344,338.7305,340,342.7305,336,338.7305" style="stroke: #B38D22; stroke-width: 1.0;"/><text fill="#000000" font-family="sans-serif" font-size="11" lengthAdjust="spacingAndGlyphs" textLength="83" x="349" y="342.7314">callback:Function</text><polygon fill="none" points="340,348.5664,344,352.5664,340,356.5664,336,352.5664" style="stroke: #B38D22; stroke-width: 1.0;"/><text fill="#000000" font-family="sans-serif" font-size="11" lengthAdjust="spacingAndGlyphs" textLength="75" x="349" y="356.5674">currentIndex:Int</text><line style="stroke: #A80036; stroke-width: 1.5;" x1="330" x2="717" y1="362.9844" y2="362.9844"/><ellipse cx="340" cy="375.4023" fill="#84BE84" rx="3" ry="3" style="stroke: #038048; stroke-width: 1.0;"/><text fill="#000000" font-family="sans-serif" font-size="11" lengthAdjust="spacingAndGlyphs" textLength="363" x="349" y="378.4033">PhaseRunner(phases:Phase[], someInput:Result, callback:Function(Result))</text><ellipse cx="340" cy="389.2383" fill="#84BE84" rx="3" ry="3" style="stroke: #038048; stroke-width: 1.0;"/><text fill="#000000" font-family="sans-serif" font-size="11" lengthAdjust="spacingAndGlyphs" textLength="53" x="349" y="392.2393">void start()</text><ellipse cx="340" cy="403.0742" fill="#84BE84" rx="3" ry="3" style="stroke: #038048; stroke-width: 1.0;"/><text fill="#000000" font-family="sans-serif" font-size="11" lengthAdjust="spacingAndGlyphs" textLength="129" x="349" y="406.0752">void stopAndCallCallback()</text><polygon fill="#FFFF44" points="340,411.9102,344,415.9102,340,419.9102,336,415.9102" style="stroke: #B38D22; stroke-width: 1.0;"/><text fill="#000000" font-family="sans-serif" font-size="11" lengthAdjust="spacingAndGlyphs" textLength="140" x="349" y="419.9111">phaseCallback(index, Result)</text><rect fill="#FEFECE" filter="url(#f1)" height="158.6875" style="stroke: #A80036; stroke-width: 1.5;" width="210" x="418.5" y="504.6406"/><ellipse cx="501.75" cy="520.6406" fill="#A9DCDF" rx="11" ry="11" style="stroke: #A80036; stroke-width: 1.0;"/><path d="M503.9375,522.4063 L499.7969,522.4063 L499.375,523.4375 L499.7969,523.4375 Q500.4063,523.4375 500.6719,523.6719 Q500.9375,523.9063 500.9375,524.2969 Q500.9375,524.6719 500.6719,524.9063 Q500.4063,525.1406 499.7969,525.1406 L497.5,525.1406 Q496.8906,525.1406 496.6328,524.9063 Q496.375,524.6719 496.375,524.2813 Q496.375,523.9063 496.6484,523.6641 Q496.9219,523.4219 497.5469,523.4375 L500.2188,516.7813 L499.1094,516.7813 Q498.5,516.7813 498.2344,516.5469 Q497.9688,516.3125 497.9688,515.9219 Q497.9688,515.5469 498.2344,515.3125 Q498.5,515.0781 499.1094,515.0781 L502.7813,515.0781 L506.1719,523.4375 Q506.7656,523.4375 506.9531,523.5781 Q507.3438,523.8438 507.3438,524.2969 Q507.3438,524.6719 507.0859,524.9063 Q506.8281,525.1406 506.2188,525.1406 L503.9219,525.1406 Q503.3125,525.1406 503.0469,524.9063 Q502.7813,524.6719 502.7813,524.2813 Q502.7813,523.9063 503.0469,523.6719 Q503.3125,523.4375 503.9219,523.4375 L504.3438,523.4375 L503.9375,522.4063 Z M503.2188,520.7031 L501.8594,517.3281 L500.4844,520.7031 L503.2188,520.7031 Z "/><text fill="#000000" font-family="sans-serif" font-size="12" font-style="italic" lengthAdjust="spacingAndGlyphs" textLength="35" x="522.25" y="525.5508">Phase</text><line style="stroke: #A80036; stroke-width: 1.5;" x1="419.5" x2="627.5" y1="536.6406" y2="536.6406"/><polygon fill="none" points="429.5,544.0586,433.5,548.0586,429.5,552.0586,425.5,548.0586" style="stroke: #B38D22; stroke-width: 1.0;"/><text fill="#000000" font-family="sans-serif" font-size="11" lengthAdjust="spacingAndGlyphs" textLength="85" x="438.5" y="552.0596">prevResult:Result</text><polygon fill="none" points="429.5,557.8945,433.5,561.8945,429.5,565.8945,425.5,561.8945" style="stroke: #B38D22; stroke-width: 1.0;"/><text fill="#000000" font-family="sans-serif" font-size="11" lengthAdjust="spacingAndGlyphs" textLength="83" x="438.5" y="565.8955">callback:Function</text><polygon fill="none" points="429.5,571.7305,433.5,575.7305,429.5,579.7305,425.5,575.7305" style="stroke: #B38D22; stroke-width: 1.0;"/><text fill="#000000" font-family="sans-serif" font-size="11" lengthAdjust="spacingAndGlyphs" textLength="82" x="438.5" y="579.7314">state:PhaseState</text><polygon fill="none" points="429.5,585.5664,433.5,589.5664,429.5,593.5664,425.5,589.5664" style="stroke: #B38D22; stroke-width: 1.0;"/><text fill="#000000" font-family="sans-serif" font-size="11" lengthAdjust="spacingAndGlyphs" textLength="60" x="438.5" y="593.5674">result:Result</text><line style="stroke: #A80036; stroke-width: 1.5;" x1="419.5" x2="627.5" y1="599.9844" y2="599.9844"/><ellipse cx="429.5" cy="612.4023" fill="#84BE84" rx="3" ry="3" style="stroke: #038048; stroke-width: 1.0;"/><text fill="#000000" font-family="sans-serif" font-size="11" lengthAdjust="spacingAndGlyphs" textLength="123" x="438.5" y="615.4033">Phase(prevResult:Result)</text><ellipse cx="429.5" cy="626.2383" fill="#84BE84" rx="3" ry="3" style="stroke: #038048; stroke-width: 1.0;"/><text fill="#000000" font-family="sans-serif" font-size="11" lengthAdjust="spacingAndGlyphs" textLength="184" x="438.5" y="629.2393">setCallback(callback:Function(Result))</text><ellipse cx="429.5" cy="640.0742" fill="#84BE84" rx="3" ry="3" style="stroke: #038048; stroke-width: 1.0;"/><text fill="#000000" font-family="sans-serif" font-size="11" lengthAdjust="spacingAndGlyphs" textLength="53" x="438.5" y="643.0752">void start()</text><polygon fill="#FFFF44" points="429.5,648.9102,433.5,652.9102,429.5,656.9102,425.5,652.9102" style="stroke: #B38D22; stroke-width: 1.0;"/><text fill="#000000" font-family="sans-serif" font-size="11" lengthAdjust="spacingAndGlyphs" textLength="57" x="438.5" y="656.9111">void finish()</text><rect fill="#FEFECE" filter="url(#f1)" height="75.6719" style="stroke: #A80036; stroke-width: 1.5;" width="96" x="132.5" y="791.1406"/><ellipse cx="147.5" cy="807.1406" fill="#EB937F" rx="11" ry="11" style="stroke: #A80036; stroke-width: 1.0;"/><path d="M146.3594,807.9375 L146.3594,810.4375 L150.6875,810.4375 L150.6875,809.5156 Q150.6875,808.9063 150.9297,808.6406 Q151.1719,808.375 151.5469,808.375 Q151.9219,808.375 152.1563,808.6406 Q152.3906,808.9063 152.3906,809.5156 L152.3906,812.1406 L144.3906,812.1406 Q143.7656,812.1406 143.5078,811.9063 Q143.25,811.6719 143.25,811.2813 Q143.25,810.9063 143.5156,810.6719 Q143.7813,810.4375 144.3906,810.4375 L144.6563,810.4375 L144.6563,803.7813 L144.3906,803.7813 Q143.7656,803.7813 143.5078,803.5469 Q143.25,803.3125 143.25,802.9219 Q143.25,802.5469 143.5078,802.3125 Q143.7656,802.0781 144.3906,802.0781 L152.0156,802.0781 L152.0156,804.6719 Q152.0156,805.2813 151.7891,805.5391 Q151.5625,805.7969 151.1719,805.7969 Q150.7969,805.7969 150.5625,805.5391 Q150.3281,805.2813 150.3281,804.6719 L150.3281,803.7813 L146.3594,803.7813 L146.3594,806.2344 L147.8438,806.2344 Q147.8438,805.5781 147.9688,805.3906 Q148.2344,804.9844 148.7031,804.9844 Q149.0781,804.9844 149.3125,805.2422 Q149.5469,805.5 149.5469,806.1094 L149.5469,808.0781 Q149.5469,808.625 149.4219,808.8125 Q149.1563,809.2031 148.7031,809.2031 Q148.2344,809.2031 147.9688,808.7969 Q147.8438,808.6094 147.8438,807.9375 L146.3594,807.9375 Z "/><text fill="#000000" font-family="sans-serif" font-size="12" lengthAdjust="spacingAndGlyphs" textLength="64" x="161.5" y="812.0508">PhaseState</text><line style="stroke: #A80036; stroke-width: 1.5;" x1="133.5" x2="227.5" y1="823.1406" y2="823.1406"/><ellipse cx="143.5" cy="835.5586" fill="none" rx="3" ry="3" style="stroke: #038048; stroke-width: 1.0;"/><text fill="#000000" font-family="sans-serif" font-size="11" lengthAdjust="spacingAndGlyphs" textLength="68" x="152.5" y="838.5596">NotStartedYet</text><ellipse cx="143.5" cy="849.3945" fill="none" rx="3" ry="3" style="stroke: #038048; stroke-width: 1.0;"/><text fill="#000000" font-family="sans-serif" font-size="11" lengthAdjust="spacingAndGlyphs" textLength="25" x="152.5" y="852.3955">Done</text><line style="stroke: #A80036; stroke-width: 1.5;" x1="133.5" x2="227.5" y1="858.8125" y2="858.8125"/><rect fill="#FEFECE" filter="url(#f1)" height="85.5078" style="stroke: #A80036; stroke-width: 1.5;" width="152" x="263.5" y="786.1406"/><ellipse cx="316.25" cy="802.1406" fill="#ADD1B2" rx="11" ry="11" style="stroke: #A80036; stroke-width: 1.0;"/><path d="M319.0156,798.0156 Q319.1719,797.7969 319.3594,797.6875 Q319.5469,797.5781 319.7656,797.5781 Q320.1406,797.5781 320.375,797.8359 Q320.6094,798.0938 320.6094,798.7031 L320.6094,800.1563 Q320.6094,800.7656 320.375,801.0313 Q320.1406,801.2969 319.7656,801.2969 Q319.4219,801.2969 319.2188,801.0938 Q319.0156,800.9063 318.9063,800.3906 Q318.8594,800.0313 318.6719,799.8438 Q318.3438,799.4688 317.7344,799.25 Q317.125,799.0313 316.5,799.0313 Q315.7344,799.0313 315.1016,799.3594 Q314.4688,799.6875 313.9766,800.4375 Q313.4844,801.1875 313.4844,802.2188 L313.4844,803.3125 Q313.4844,804.5469 314.375,805.3672 Q315.2656,806.1875 316.8594,806.1875 Q317.7969,806.1875 318.4531,805.9375 Q318.8438,805.7813 319.2656,805.3438 Q319.5313,805.0781 319.6797,805 Q319.8281,804.9219 320.0313,804.9219 Q320.3594,804.9219 320.6172,805.1797 Q320.875,805.4375 320.875,805.7813 Q320.875,806.125 320.5313,806.5313 Q320.0313,807.1094 319.2344,807.4375 Q318.1563,807.8906 316.8594,807.8906 Q315.3438,807.8906 314.1406,807.2656 Q313.1563,806.7656 312.4688,805.6953 Q311.7813,804.625 311.7813,803.3438 L311.7813,802.1875 Q311.7813,800.8594 312.3984,799.7109 Q313.0156,798.5625 314.1094,797.9453 Q315.2031,797.3281 316.4375,797.3281 Q317.1719,797.3281 317.8203,797.4922 Q318.4688,797.6563 319.0156,798.0156 Z "/><text fill="#000000" font-family="sans-serif" font-size="12" lengthAdjust="spacingAndGlyphs" textLength="38" x="336.75" y="807.0508">Logout</text><line style="stroke: #A80036; stroke-width: 1.5;" x1="264.5" x2="414.5" y1="818.1406" y2="818.1406"/><ellipse cx="274.5" cy="848.3945" fill="#84BE84" rx="3" ry="3" style="stroke: #038048; stroke-width: 1.0;"/><text fill="#000000" font-family="sans-serif" font-size="11" lengthAdjust="spacingAndGlyphs" textLength="126" x="283.5" y="851.3955">Logout(prevResult:Result)</text><polygon fill="#FFFF44" points="274.5,857.2305,278.5,861.2305,274.5,865.2305,270.5,861.2305" style="stroke: #B38D22; stroke-width: 1.0;"/><text fill="#000000" font-family="sans-serif" font-size="11" lengthAdjust="spacingAndGlyphs" textLength="90" x="283.5" y="865.2314">logoutHandler(xhr)</text><line style="stroke: #A80036; stroke-width: 1.0; stroke-dasharray: 1.0,2.0;" x1="264.5" x2="292" y1="833.0586" y2="833.0586"/><text fill="#000000" font-family="sans-serif" font-size="11" lengthAdjust="spacingAndGlyphs" textLength="95" x="292" y="837.0596">Needs no data at all</text><line style="stroke: #A80036; stroke-width: 1.0; stroke-dasharray: 1.0,2.0;" x1="387" x2="414.5" y1="833.0586" y2="833.0586"/><rect fill="#FEFECE" filter="url(#f1)" height="85.5078" style="stroke: #A80036; stroke-width: 1.5;" width="145" x="451" y="786.1406"/><ellipse cx="503.75" cy="802.1406" fill="#ADD1B2" rx="11" ry="11" style="stroke: #A80036; stroke-width: 1.0;"/><path d="M506.5156,798.0156 Q506.6719,797.7969 506.8594,797.6875 Q507.0469,797.5781 507.2656,797.5781 Q507.6406,797.5781 507.875,797.8359 Q508.1094,798.0938 508.1094,798.7031 L508.1094,800.1563 Q508.1094,800.7656 507.875,801.0313 Q507.6406,801.2969 507.2656,801.2969 Q506.9219,801.2969 506.7188,801.0938 Q506.5156,800.9063 506.4063,800.3906 Q506.3594,800.0313 506.1719,799.8438 Q505.8438,799.4688 505.2344,799.25 Q504.625,799.0313 504,799.0313 Q503.2344,799.0313 502.6016,799.3594 Q501.9688,799.6875 501.4766,800.4375 Q500.9844,801.1875 500.9844,802.2188 L500.9844,803.3125 Q500.9844,804.5469 501.875,805.3672 Q502.7656,806.1875 504.3594,806.1875 Q505.2969,806.1875 505.9531,805.9375 Q506.3438,805.7813 506.7656,805.3438 Q507.0313,805.0781 507.1797,805 Q507.3281,804.9219 507.5313,804.9219 Q507.8594,804.9219 508.1172,805.1797 Q508.375,805.4375 508.375,805.7813 Q508.375,806.125 508.0313,806.5313 Q507.5313,807.1094 506.7344,807.4375 Q505.6563,807.8906 504.3594,807.8906 Q502.8438,807.8906 501.6406,807.2656 Q500.6563,806.7656 499.9688,805.6953 Q499.2813,804.625 499.2813,803.3438 L499.2813,802.1875 Q499.2813,800.8594 499.8984,799.7109 Q500.5156,798.5625 501.6094,797.9453 Q502.7031,797.3281 503.9375,797.3281 Q504.6719,797.3281 505.3203,797.4922 Q505.9688,797.6563 506.5156,798.0156 Z "/><text fill="#000000" font-family="sans-serif" font-size="12" lengthAdjust="spacingAndGlyphs" textLength="31" x="524.25" y="807.0508">Login</text><line style="stroke: #A80036; stroke-width: 1.5;" x1="452" x2="595" y1="818.1406" y2="818.1406"/><ellipse cx="462" cy="848.3945" fill="#84BE84" rx="3" ry="3" style="stroke: #038048; stroke-width: 1.0;"/><text fill="#000000" font-family="sans-serif" font-size="11" lengthAdjust="spacingAndGlyphs" textLength="119" x="471" y="851.3955">Login(prevResult:Result)</text><polygon fill="#FFFF44" points="462,857.2305,466,861.2305,462,865.2305,458,861.2305" style="stroke: #B38D22; stroke-width: 1.0;"/><text fill="#000000" font-family="sans-serif" font-size="11" lengthAdjust="spacingAndGlyphs" textLength="83" x="471" y="865.2314">loginHandler(xhr)</text><line style="stroke: #A80036; stroke-width: 1.0; stroke-dasharray: 1.0,2.0;" x1="452" x2="493.5" y1="833.0586" y2="833.0586"/><text fill="#000000" font-family="sans-serif" font-size="11" lengthAdjust="spacingAndGlyphs" textLength="60" x="493.5" y="837.0596">{user, pass}</text><line style="stroke: #A80036; stroke-width: 1.0; stroke-dasharray: 1.0,2.0;" x1="553.5" x2="595" y1="833.0586" y2="833.0586"/><rect fill="#FEFECE" filter="url(#f1)" height="175.4414" style="stroke: #A80036; stroke-width: 1.5;" width="166" x="631.5" y="741.6406"/><ellipse cx="684.75" cy="757.6406" fill="#ADD1B2" rx="11" ry="11" style="stroke: #A80036; stroke-width: 1.0;"/><path d="M687.5156,753.5156 Q687.6719,753.2969 687.8594,753.1875 Q688.0469,753.0781 688.2656,753.0781 Q688.6406,753.0781 688.875,753.3359 Q689.1094,753.5938 689.1094,754.2031 L689.1094,755.6563 Q689.1094,756.2656 688.875,756.5313 Q688.6406,756.7969 688.2656,756.7969 Q687.9219,756.7969 687.7188,756.5938 Q687.5156,756.4063 687.4063,755.8906 Q687.3594,755.5313 687.1719,755.3438 Q686.8438,754.9688 686.2344,754.75 Q685.625,754.5313 685,754.5313 Q684.2344,754.5313 683.6016,754.8594 Q682.9688,755.1875 682.4766,755.9375 Q681.9844,756.6875 681.9844,757.7188 L681.9844,758.8125 Q681.9844,760.0469 682.875,760.8672 Q683.7656,761.6875 685.3594,761.6875 Q686.2969,761.6875 686.9531,761.4375 Q687.3438,761.2813 687.7656,760.8438 Q688.0313,760.5781 688.1797,760.5 Q688.3281,760.4219 688.5313,760.4219 Q688.8594,760.4219 689.1172,760.6797 Q689.375,760.9375 689.375,761.2813 Q689.375,761.625 689.0313,762.0313 Q688.5313,762.6094 687.7344,762.9375 Q686.6563,763.3906 685.3594,763.3906 Q683.8438,763.3906 682.6406,762.7656 Q681.6563,762.2656 680.9688,761.1953 Q680.2813,760.125 680.2813,758.8438 L680.2813,757.6875 Q680.2813,756.3594 680.8984,755.2109 Q681.5156,754.0625 682.6094,753.4453 Q683.7031,752.8281 684.9375,752.8281 Q685.6719,752.8281 686.3203,752.9922 Q686.9688,753.1563 687.5156,753.5156 Z "/><text fill="#000000" font-family="sans-serif" font-size="12" lengthAdjust="spacingAndGlyphs" textLength="51" x="705.25" y="762.5508">GetYears</text><line style="stroke: #A80036; stroke-width: 1.5;" x1="632.5" x2="796.5" y1="773.6406" y2="773.6406"/><line style="stroke: #A80036; stroke-width: 1.0; stroke-dasharray: 1.0,2.0;" x1="632.5" x2="668.5" y1="788.5586" y2="788.5586"/><text fill="#000000" font-family="sans-serif" font-size="11" lengthAdjust="spacingAndGlyphs" textLength="92" x="668.5" y="792.5596">Assumes logged in</text><line style="stroke: #A80036; stroke-width: 1.0; stroke-dasharray: 1.0,2.0;" x1="760.5" x2="796.5" y1="788.5586" y2="788.5586"/><polygon fill="none" points="642.5,819.6484,646.5,823.6484,642.5,827.6484,638.5,823.6484" style="stroke: #B38D22; stroke-width: 1.0;"/><text fill="#000000" font-family="sans-serif" font-size="11" lengthAdjust="spacingAndGlyphs" textLength="69" x="651.5" y="827.6494">termsCount:Int</text><polygon fill="none" points="642.5,833.4844,646.5,837.4844,642.5,841.4844,638.5,837.4844" style="stroke: #B38D22; stroke-width: 1.0;"/><text fill="#000000" font-family="sans-serif" font-size="11" lengthAdjust="spacingAndGlyphs" textLength="108" x="651.5" y="841.4854">years:String Array[3][]</text><ellipse cx="642.5" cy="852.3203" fill="#84BE84" rx="3" ry="3" style="stroke: #038048; stroke-width: 1.0;"/><text fill="#000000" font-family="sans-serif" font-size="11" lengthAdjust="spacingAndGlyphs" textLength="140" x="651.5" y="855.3213">GetYears(prevResult:Result)</text><polygon fill="#FFFF44" points="642.5,861.1563,646.5,865.1563,642.5,869.1563,638.5,865.1563" style="stroke: #B38D22; stroke-width: 1.0;"/><text fill="#000000" font-family="sans-serif" font-size="11" lengthAdjust="spacingAndGlyphs" textLength="106" x="651.5" y="869.1572">getYearsHandler(xhr)</text><line style="stroke: #A80036; stroke-width: 1.0; stroke-dasharray: 1.0,2.0;" x1="632.5" x2="699.5" y1="809.3125" y2="809.3125"/><text fill="#000000" font-family="sans-serif" font-size="11" lengthAdjust="spacingAndGlyphs" textLength="30" x="699.5" y="813.3135">{user}</text><line style="stroke: #A80036; stroke-width: 1.0; stroke-dasharray: 1.0,2.0;" x1="729.5" x2="796.5" y1="809.3125" y2="809.3125"/><line style="stroke: #A80036; stroke-width: 1.0; stroke-dasharray: 1.0,2.0;" x1="632.5" x2="645.5" y1="882.4922" y2="882.4922"/><text fill="#000000" font-family="sans-serif" font-size="11" lengthAdjust="spacingAndGlyphs" textLength="138" x="645.5" y="886.4932">result:years:String Array[3][]</text><line style="stroke: #A80036; stroke-width: 1.0; stroke-dasharray: 1.0,2.0;" x1="783.5" x2="796.5" y1="882.4922" y2="882.4922"/><line style="stroke: #A80036; stroke-width: 1.0; stroke-dasharray: 1.0,2.0;" x1="632.5" x2="646.5" y1="903.2461" y2="903.2461"/><text fill="#000000" font-family="sans-serif" font-size="11" lengthAdjust="spacingAndGlyphs" textLength="136" x="646.5" y="907.2471">Example: [['12', '11'], [], ['10']]</text><line style="stroke: #A80036; stroke-width: 1.0; stroke-dasharray: 1.0,2.0;" x1="782.5" x2="796.5" y1="903.2461" y2="903.2461"/><rect fill="#FEFECE" filter="url(#f1)" height="175.4414" style="stroke: #A80036; stroke-width: 1.5;" width="313" x="833" y="741.6406"/><ellipse cx="945.25" cy="757.6406" fill="#ADD1B2" rx="11" ry="11" style="stroke: #A80036; stroke-width: 1.0;"/><path d="M948.0156,753.5156 Q948.1719,753.2969 948.3594,753.1875 Q948.5469,753.0781 948.7656,753.0781 Q949.1406,753.0781 949.375,753.3359 Q949.6094,753.5938 949.6094,754.2031 L949.6094,755.6563 Q949.6094,756.2656 949.375,756.5313 Q949.1406,756.7969 948.7656,756.7969 Q948.4219,756.7969 948.2188,756.5938 Q948.0156,756.4063 947.9063,755.8906 Q947.8594,755.5313 947.6719,755.3438 Q947.3438,754.9688 946.7344,754.75 Q946.125,754.5313 945.5,754.5313 Q944.7344,754.5313 944.1016,754.8594 Q943.4688,755.1875 942.9766,755.9375 Q942.4844,756.6875 942.4844,757.7188 L942.4844,758.8125 Q942.4844,760.0469 943.375,760.8672 Q944.2656,761.6875 945.8594,761.6875 Q946.7969,761.6875 947.4531,761.4375 Q947.8438,761.2813 948.2656,760.8438 Q948.5313,760.5781 948.6797,760.5 Q948.8281,760.4219 949.0313,760.4219 Q949.3594,760.4219 949.6172,760.6797 Q949.875,760.9375 949.875,761.2813 Q949.875,761.625 949.5313,762.0313 Q949.0313,762.6094 948.2344,762.9375 Q947.1563,763.3906 945.8594,763.3906 Q944.3438,763.3906 943.1406,762.7656 Q942.1563,762.2656 941.4688,761.1953 Q940.7813,760.125 940.7813,758.8438 L940.7813,757.6875 Q940.7813,756.3594 941.3984,755.2109 Q942.0156,754.0625 943.1094,753.4453 Q944.2031,752.8281 945.4375,752.8281 Q946.1719,752.8281 946.8203,752.9922 Q947.4688,753.1563 948.0156,753.5156 Z "/><text fill="#000000" font-family="sans-serif" font-size="12" lengthAdjust="spacingAndGlyphs" textLength="80" x="965.75" y="762.5508">ScrapeGrades</text><line style="stroke: #A80036; stroke-width: 1.5;" x1="834" x2="1145" y1="773.6406" y2="773.6406"/><line style="stroke: #A80036; stroke-width: 1.0; stroke-dasharray: 1.0,2.0;" x1="834" x2="943.5" y1="788.5586" y2="788.5586"/><text fill="#000000" font-family="sans-serif" font-size="11" lengthAdjust="spacingAndGlyphs" textLength="92" x="943.5" y="792.5596">Assumes logged in</text><line style="stroke: #A80036; stroke-width: 1.0; stroke-dasharray: 1.0,2.0;" x1="1035.5" x2="1145" y1="788.5586" y2="788.5586"/><polygon fill="none" points="844,819.6484,848,823.6484,844,827.6484,840,823.6484" style="stroke: #B38D22; stroke-width: 1.0;"/><text fill="#000000" font-family="sans-serif" font-size="11" lengthAdjust="spacingAndGlyphs" textLength="111" x="853" y="827.6494">termsYearsCount:Int[3]</text><polygon fill="none" points="844,833.4844,848,837.4844,844,841.4844,840,837.4844" style="stroke: #B38D22; stroke-width: 1.0;"/><text fill="#000000" font-family="sans-serif" font-size="11" lengthAdjust="spacingAndGlyphs" textLength="138" x="853" y="841.4854">doneTermsYearsCount:Int[3]</text><ellipse cx="844" cy="852.3203" fill="#84BE84" rx="3" ry="3" style="stroke: #038048; stroke-width: 1.0;"/><text fill="#000000" font-family="sans-serif" font-size="11" lengthAdjust="spacingAndGlyphs" textLength="164" x="853" y="855.3213">ScrapeGrades(prevResult:Result)</text><polygon fill="#FFFF44" points="844,861.1563,848,865.1563,844,869.1563,840,865.1563" style="stroke: #B38D22; stroke-width: 1.0;"/><text fill="#000000" font-family="sans-serif" font-size="11" lengthAdjust="spacingAndGlyphs" textLength="119" x="853" y="869.1572">scrapeTermHandler(xhr)</text><line style="stroke: #A80036; stroke-width: 1.0; stroke-dasharray: 1.0,2.0;" x1="834" x2="917.5" y1="809.3125" y2="809.3125"/><text fill="#000000" font-family="sans-serif" font-size="11" lengthAdjust="spacingAndGlyphs" textLength="144" x="917.5" y="813.3135">{user, years:String Array[3][]}</text><line style="stroke: #A80036; stroke-width: 1.0; stroke-dasharray: 1.0,2.0;" x1="1061.5" x2="1145" y1="809.3125" y2="809.3125"/><line style="stroke: #A80036; stroke-width: 1.0; stroke-dasharray: 1.0,2.0;" x1="834" x2="837" y1="882.4922" y2="882.4922"/><text fill="#000000" font-family="sans-serif" font-size="11" lengthAdjust="spacingAndGlyphs" textLength="305" x="837" y="886.4932">result:{0..*String:Array[3] each either HTML Table or undefined}</text><line style="stroke: #A80036; stroke-width: 1.0; stroke-dasharray: 1.0,2.0;" x1="1142" x2="1145" y1="882.4922" y2="882.4922"/><line style="stroke: #A80036; stroke-width: 1.0; stroke-dasharray: 1.0,2.0;" x1="834" x2="866" y1="903.2461" y2="903.2461"/><text fill="#000000" font-family="sans-serif" font-size="11" lengthAdjust="spacingAndGlyphs" textLength="247" x="866" y="907.2471">Example: {'12':[HT, undefined, HT], '10':[HT, HT, HT]}</text><line style="stroke: #A80036; stroke-width: 1.0; stroke-dasharray: 1.0,2.0;" x1="1113" x2="1145" y1="903.2461" y2="903.2461"/><polygon fill="#FBFB77" filter="url(#f1)" points="180,977.6406,180,1003.9922,499,1003.9922,499,987.6406,489,977.6406,180,977.6406" style="stroke: #A80036; stroke-width: 1.0;"/><polygon fill="#FBFB77" points="180,977.6406,180,1003.9922,499,1003.9922,499,987.6406,489,977.6406,343.5,977.6406,339.5,872.4646,335.5,977.6406,180,977.6406" style="stroke: #A80036; stroke-width: 1.0;"/><line style="stroke: #A80036; stroke-width: 1.0;" x1="489" x2="489" y1="977.6406" y2="987.6406"/><line style="stroke: #A80036; stroke-width: 1.0;" x1="499" x2="489" y1="987.6406" y2="987.6406"/><text fill="#000000" font-family="sans-serif" font-size="13" lengthAdjust="spacingAndGlyphs" textLength="298" x="186" y="996.1357">Only class that does the work even if err.length &gt; 0.</text><polygon fill="#FBFB77" filter="url(#f1)" points="367,97.1406,367,123.4922,680,123.4922,680,107.1406,670,97.1406,367,97.1406" style="stroke: #A80036; stroke-width: 1.0;"/><polygon fill="#FBFB77" points="367,97.1406,367,123.4922,519.5,123.4922,523.5,267.5386,527.5,123.4922,680,123.4922,680,107.1406,670,97.1406,367,97.1406" style="stroke: #A80036; stroke-width: 1.0;"/><line style="stroke: #A80036; stroke-width: 1.0;" x1="670" x2="670" y1="97.1406" y2="107.1406"/><line style="stroke: #A80036; stroke-width: 1.0;" x1="680" x2="670" y1="107.1406" y2="107.1406"/><text fill="#000000" font-family="sans-serif" font-size="13" lengthAdjust="spacingAndGlyphs" textLength="292" x="373" y="115.6357">PhaseRunner is a Singleton. No impl. details here.</text><rect fill="#FEFECE" filter="url(#f1)" height="75.6719" style="stroke: #A80036; stroke-width: 1.5;" width="219" x="715" y="72.1406"/><ellipse cx="802.25" cy="88.1406" fill="#ADD1B2" rx="11" ry="11" style="stroke: #A80036; stroke-width: 1.0;"/><path d="M805.0156,84.0156 Q805.1719,83.7969 805.3594,83.6875 Q805.5469,83.5781 805.7656,83.5781 Q806.1406,83.5781 806.375,83.8359 Q806.6094,84.0938 806.6094,84.7031 L806.6094,86.1563 Q806.6094,86.7656 806.375,87.0313 Q806.1406,87.2969 805.7656,87.2969 Q805.4219,87.2969 805.2188,87.0938 Q805.0156,86.9063 804.9063,86.3906 Q804.8594,86.0313 804.6719,85.8438 Q804.3438,85.4688 803.7344,85.25 Q803.125,85.0313 802.5,85.0313 Q801.7344,85.0313 801.1016,85.3594 Q800.4688,85.6875 799.9766,86.4375 Q799.4844,87.1875 799.4844,88.2188 L799.4844,89.3125 Q799.4844,90.5469 800.375,91.3672 Q801.2656,92.1875 802.8594,92.1875 Q803.7969,92.1875 804.4531,91.9375 Q804.8438,91.7813 805.2656,91.3438 Q805.5313,91.0781 805.6797,91 Q805.8281,90.9219 806.0313,90.9219 Q806.3594,90.9219 806.6172,91.1797 Q806.875,91.4375 806.875,91.7813 Q806.875,92.125 806.5313,92.5313 Q806.0313,93.1094 805.2344,93.4375 Q804.1563,93.8906 802.8594,93.8906 Q801.3438,93.8906 800.1406,93.2656 Q799.1563,92.7656 798.4688,91.6953 Q797.7813,90.625 797.7813,89.3438 L797.7813,88.1875 Q797.7813,86.8594 798.3984,85.7109 Q799.0156,84.5625 800.1094,83.9453 Q801.2031,83.3281 802.4375,83.3281 Q803.1719,83.3281 803.8203,83.4922 Q804.4688,83.6563 805.0156,84.0156 Z "/><text fill="#000000" font-family="sans-serif" font-size="12" lengthAdjust="spacingAndGlyphs" textLength="36" x="822.75" y="93.0508">Result</text><line style="stroke: #A80036; stroke-width: 1.5;" x1="716" x2="933" y1="104.1406" y2="104.1406"/><ellipse cx="726" cy="116.5586" fill="none" rx="3" ry="3" style="stroke: #038048; stroke-width: 1.0;"/><text fill="#000000" font-family="sans-serif" font-size="11" lengthAdjust="spacingAndGlyphs" textLength="51" x="735" y="119.5596">err:String[]</text><ellipse cx="726" cy="130.3945" fill="none" rx="3" ry="3" style="stroke: #038048; stroke-width: 1.0;"/><text fill="#000000" font-family="sans-serif" font-size="11" lengthAdjust="spacingAndGlyphs" textLength="193" x="735" y="133.3955">user:String, for checking on most pages</text><line style="stroke: #A80036; stroke-width: 1.5;" x1="716" x2="933" y1="139.8125" y2="139.8125"/><rect fill="#FEFECE" filter="url(#f1)" height="158.6875" style="stroke: #A80036; stroke-width: 1.5;" width="369" x="969" y="30.6406"/><ellipse cx="1128.75" cy="46.6406" fill="#ADD1B2" rx="11" ry="11" style="stroke: #A80036; stroke-width: 1.0;"/><path d="M1131.5156,42.5156 Q1131.6719,42.2969 1131.8594,42.1875 Q1132.0469,42.0781 1132.2656,42.0781 Q1132.6406,42.0781 1132.875,42.3359 Q1133.1094,42.5938 1133.1094,43.2031 L1133.1094,44.6563 Q1133.1094,45.2656 1132.875,45.5313 Q1132.6406,45.7969 1132.2656,45.7969 Q1131.9219,45.7969 1131.7188,45.5938 Q1131.5156,45.4063 1131.4063,44.8906 Q1131.3594,44.5313 1131.1719,44.3438 Q1130.8438,43.9688 1130.2344,43.75 Q1129.625,43.5313 1129,43.5313 Q1128.2344,43.5313 1127.6016,43.8594 Q1126.9688,44.1875 1126.4766,44.9375 Q1125.9844,45.6875 1125.9844,46.7188 L1125.9844,47.8125 Q1125.9844,49.0469 1126.875,49.8672 Q1127.7656,50.6875 1129.3594,50.6875 Q1130.2969,50.6875 1130.9531,50.4375 Q1131.3438,50.2813 1131.7656,49.8438 Q1132.0313,49.5781 1132.1797,49.5 Q1132.3281,49.4219 1132.5313,49.4219 Q1132.8594,49.4219 1133.1172,49.6797 Q1133.375,49.9375 1133.375,50.2813 Q1133.375,50.625 1133.0313,51.0313 Q1132.5313,51.6094 1131.7344,51.9375 Q1130.6563,52.3906 1129.3594,52.3906 Q1127.8438,52.3906 1126.6406,51.7656 Q1125.6563,51.2656 1124.9688,50.1953 Q1124.2813,49.125 1124.2813,47.8438 L1124.2813,46.6875 Q1124.2813,45.3594 1124.8984,44.2109 Q1125.5156,43.0625 1126.6094,42.4453 Q1127.7031,41.8281 1128.9375,41.8281 Q1129.6719,41.8281 1130.3203,41.9922 Q1130.9688,42.1563 1131.5156,42.5156 Z "/><text fill="#000000" font-family="sans-serif" font-size="12" lengthAdjust="spacingAndGlyphs" textLength="41" x="1149.25" y="51.5508">Utilities</text><line style="stroke: #A80036; stroke-width: 1.5;" x1="970" x2="1337" y1="62.6406" y2="62.6406"/><line style="stroke: #A80036; stroke-width: 1.5;" x1="970" x2="1337" y1="70.6406" y2="70.6406"/><ellipse cx="980" cy="83.0586" fill="#84BE84" rx="3" ry="3" style="stroke: #038048; stroke-width: 1.0;"/><text fill="#000000" font-family="sans-serif" font-size="11" lengthAdjust="spacingAndGlyphs" textLength="315" x="989" y="86.0596">void sendGET(url:String, handler:Function, infoForHandler:Object)</text><ellipse cx="980" cy="96.8945" fill="#84BE84" rx="3" ry="3" style="stroke: #038048; stroke-width: 1.0;"/><text fill="#000000" font-family="sans-serif" font-size="11" lengthAdjust="spacingAndGlyphs" textLength="343" x="989" y="99.8955">void sendPOST(url:String, nameValuePairs:Array[][2], handler:Function,</text><text fill="#000000" font-family="sans-serif" font-size="11" lengthAdjust="spacingAndGlyphs" textLength="109" x="1019" y="113.7314">infoForHandler:Object)</text><ellipse cx="980" cy="124.5664" fill="#84BE84" rx="3" ry="3" style="stroke: #038048; stroke-width: 1.0;"/><text fill="#000000" font-family="sans-serif" font-size="11" lengthAdjust="spacingAndGlyphs" textLength="218" x="989" y="127.5674">DOMObject parseHTML(anHTMLString:String)</text><ellipse cx="980" cy="138.4023" fill="#84BE84" rx="3" ry="3" style="stroke: #038048; stroke-width: 1.0;"/><text fill="#000000" font-family="sans-serif" font-size="11" lengthAdjust="spacingAndGlyphs" textLength="249" x="989" y="141.4033">Bool/String checkUser(user:String, doc:DOMObject)</text><ellipse cx="980" cy="152.2383" fill="#84BE84" rx="3" ry="3" style="stroke: #038048; stroke-width: 1.0;"/><text fill="#000000" font-family="sans-serif" font-size="11" lengthAdjust="spacingAndGlyphs" textLength="237" x="989" y="155.2393">Function curryOneParam(fn:Function, param:var)</text><ellipse cx="980" cy="166.0742" fill="#84BE84" rx="3" ry="3" style="stroke: #038048; stroke-width: 1.0;"/><text fill="#000000" font-family="sans-serif" font-size="11" lengthAdjust="spacingAndGlyphs" textLength="166" x="989" y="169.0752">Bool/DOMObject handlerBase(xhr)</text><polygon fill="#FFFF44" points="980,174.9102,984,178.9102,980,182.9102,976,178.9102" style="stroke: #B38D22; stroke-width: 1.0;"/><text fill="#000000" font-family="sans-serif" font-size="11" lengthAdjust="spacingAndGlyphs" textLength="303" x="989" y="182.9111">void initReq(url:String, handler:Function, infoForHandler:Object)</text><path d="M114.448,411.5666 C98.1773,460.5876 76.5765,525.6666 65.2249,559.8666 " fill="none" style="stroke: #A80036; stroke-width: 1.0;"/><polygon fill="none" points="107.885,409.1186,120.829,392.3426,121.172,413.5296,107.885,409.1186" style="stroke: #A80036; stroke-width: 1.0;"/><path d="M164.923,410.4316 C186.665,456.4626 215.317,517.1236 232.238,552.9466 " fill="none" style="stroke: #A80036; stroke-width: 1.0;"/><polygon fill="none" points="158.591,413.4166,156.378,392.3426,171.25,407.4366,158.591,413.4166" style="stroke: #A80036; stroke-width: 1.0;"/><path d="M135.5,189.7186 C135.5,225.0366 135.5,265.6426 135.5,296.6306 " fill="none" style="stroke: #A80036; stroke-width: 1.0;"/><polygon fill="#A80036" points="135.5,301.9086,139.5,292.9086,135.5,296.9086,131.5,292.9086,135.5,301.9086" style="stroke: #A80036; stroke-width: 1.0;"/><text fill="#000000" font-family="sans-serif" font-size="13" lengthAdjust="spacingAndGlyphs" textLength="125" x="136.5" y="234.1357">at any times contains</text><text fill="#000000" font-family="sans-serif" font-size="13" lengthAdjust="spacingAndGlyphs" textLength="20" x="113.9688" y="291.3172">0..*</text><path d="M523.5,426.7186 C523.5,450.1376 523.5,475.8826 523.5,499.6066 " fill="none" style="stroke: #A80036; stroke-width: 1.0;"/><polygon fill="#A80036" points="523.5,504.6366,527.5,495.6366,523.5,499.6366,519.5,495.6366,523.5,504.6366" style="stroke: #A80036; stroke-width: 1.0;"/><text fill="#000000" font-family="sans-serif" font-size="13" lengthAdjust="spacingAndGlyphs" textLength="21" x="524.5" y="471.1357">has</text><text fill="#000000" font-family="sans-serif" font-size="13" lengthAdjust="spacingAndGlyphs" textLength="20" x="502.5469" y="493.8232">0..*</text><path d="M418.355,638.5636 C352.212,673.2596 274.138,716.5456 245.5,741.6406 C230.778,754.5406 217.272,771.2706 206.43,786.5756 " fill="none" style="stroke: #A80036; stroke-width: 1.0;"/><polygon fill="#A80036" points="203.444,790.8506,211.8782,785.7649,206.3081,786.7523,205.3208,781.1822,203.444,790.8506" style="stroke: #A80036; stroke-width: 1.0;"/><text fill="#000000" font-family="sans-serif" font-size="13" lengthAdjust="spacingAndGlyphs" textLength="21" x="316.5" y="708.1357">has</text><path d="M451.875,679.7316 C424.065,716.4596 393.639,756.6416 371.469,785.9216 " fill="none" style="stroke: #A80036; stroke-width: 1.0;"/><polygon fill="none" points="446.361,675.4196,464.015,663.7006,457.522,683.8706,446.361,675.4196" style="stroke: #A80036; stroke-width: 1.0;"/><path d="M523.5,684.1946 C523.5,719.6856 523.5,757.8236 523.5,785.9216 " fill="none" style="stroke: #A80036; stroke-width: 1.0;"/><polygon fill="none" points="516.5,683.7006,523.5,663.7006,530.5,683.7006,516.5,683.7006" style="stroke: #A80036; stroke-width: 1.0;"/><path d="M597.608,679.4246 C613.655,699.8396 630.55,721.3356 646.354,741.4416 " fill="none" style="stroke: #A80036; stroke-width: 1.0;"/><polygon fill="none" points="592.104,683.7496,585.248,663.7006,603.111,675.0986,592.104,683.7496" style="stroke: #A80036; stroke-width: 1.0;"/><path d="M646.394,649.2246 C703.536,679.0226 772.151,714.8026 832.954,746.5086 " fill="none" style="stroke: #A80036; stroke-width: 1.0;"/><polygon fill="none" points="643.158,655.4316,628.661,639.9776,649.631,643.0186,643.158,655.4316" style="stroke: #A80036; stroke-width: 1.0;"/></g></svg>