<?xml version="1.0" encoding="UTF-8" standalone="yes"?><svg xmlns="http://www.w3.org/2000/svg" xmlns:xlink="http://www.w3.org/1999/xlink" height="1632px" style="width:1343px;height:1632px;" version="1.1" viewBox="0 0 1343 1632" width="1343px"><defs><filter height="300%" id="f1" width="300%" x="-1" y="-1"><feGaussianBlur result="blurOut" stdDeviation="2.0"/><feColorMatrix in="blurOut" result="blurOut2" type="matrix" values="0 0 0 0 0 0 0 0 0 0 0 0 0 0 0 0 0 0 .4 0"/><feOffset dx="4.0" dy="4.0" in="blurOut2" result="blurOut3"/><feBlend in="SourceGraphic" in2="blurOut3" mode="normal"/></filter></defs><g><text fill="#000000" font-family="sans-serif" font-size="18" lengthAdjust="spacingAndGlyphs" textLength="432" x="460.5" y="18.6855">Class Diagram. Doesn't have to represent actual truth!</text><rect fill="#FEFECE" filter="url(#f1)" height="158.6875" style="stroke: #A80036; stroke-width: 1.5;" width="239" x="149.5" y="720.6406"/><ellipse cx="194.75" cy="736.6406" fill="#ADD1B2" rx="11" ry="11" style="stroke: #A80036; stroke-width: 1.0;"/><path d="M197.5156,732.5156 Q197.6719,732.2969 197.8594,732.1875 Q198.0469,732.0781 198.2656,732.0781 Q198.6406,732.0781 198.875,732.3359 Q199.1094,732.5938 199.1094,733.2031 L199.1094,734.6563 Q199.1094,735.2656 198.875,735.5313 Q198.6406,735.7969 198.2656,735.7969 Q197.9219,735.7969 197.7188,735.5938 Q197.5156,735.4063 197.4063,734.8906 Q197.3594,734.5313 197.1719,734.3438 Q196.8438,733.9688 196.2344,733.75 Q195.625,733.5313 195,733.5313 Q194.2344,733.5313 193.6016,733.8594 Q192.9688,734.1875 192.4766,734.9375 Q191.9844,735.6875 191.9844,736.7188 L191.9844,737.8125 Q191.9844,739.0469 192.875,739.8672 Q193.7656,740.6875 195.3594,740.6875 Q196.2969,740.6875 196.9531,740.4375 Q197.3438,740.2813 197.7656,739.8438 Q198.0313,739.5781 198.1797,739.5 Q198.3281,739.4219 198.5313,739.4219 Q198.8594,739.4219 199.1172,739.6797 Q199.375,739.9375 199.375,740.2813 Q199.375,740.625 199.0313,741.0313 Q198.5313,741.6094 197.7344,741.9375 Q196.6563,742.3906 195.3594,742.3906 Q193.8438,742.3906 192.6406,741.7656 Q191.6563,741.2656 190.9688,740.1953 Q190.2813,739.125 190.2813,737.8438 L190.2813,736.6875 Q190.2813,735.3594 190.8984,734.2109 Q191.5156,733.0625 192.6094,732.4453 Q193.7031,731.8281 194.9375,731.8281 Q195.6719,731.8281 196.3203,731.9922 Q196.9688,732.1563 197.5156,732.5156 Z "/><text fill="#000000" font-family="sans-serif" font-size="12" lengthAdjust="spacingAndGlyphs" textLength="140" x="215.25" y="741.5508">RequestRunnerSingleton</text><line style="stroke: #A80036; stroke-width: 1.5;" x1="150.5" x2="387.5" y1="752.6406" y2="752.6406"/><polygon fill="none" points="160.5,760.0586,164.5,764.0586,160.5,768.0586,156.5,764.0586" style="stroke: #B38D22; stroke-width: 1.0;"/><text fill="#000000" font-family="sans-serif" font-size="11" lengthAdjust="spacingAndGlyphs" textLength="66" x="169.5" y="768.0596">delay:Number</text><polygon fill="none" points="160.5,773.8945,164.5,777.8945,160.5,781.8945,156.5,777.8945" style="stroke: #B38D22; stroke-width: 1.0;"/><text fill="#000000" font-family="sans-serif" font-size="11" lengthAdjust="spacingAndGlyphs" textLength="94" x="169.5" y="781.8955">requestQ:Request[]</text><polygon fill="none" points="160.5,787.7305,164.5,791.7305,160.5,795.7305,156.5,791.7305" style="stroke: #B38D22; stroke-width: 1.0;"/><text fill="#000000" font-family="sans-serif" font-size="11" lengthAdjust="spacingAndGlyphs" textLength="73" x="169.5" y="795.7314">interval:Interval</text><line style="stroke: #A80036; stroke-width: 1.5;" x1="150.5" x2="387.5" y1="802.1484" y2="802.1484"/><ellipse cx="160.5" cy="814.5664" fill="#84BE84" rx="3" ry="3" style="stroke: #038048; stroke-width: 1.0;"/><text fill="#000000" font-family="sans-serif" font-size="11" lengthAdjust="spacingAndGlyphs" textLength="193" x="169.5" y="817.5674">RequestRunnerSingleton(delay:Number)</text><ellipse cx="160.5" cy="828.4023" fill="#84BE84" rx="3" ry="3" style="stroke: #038048; stroke-width: 1.0;"/><text fill="#000000" font-family="sans-serif" font-size="11" lengthAdjust="spacingAndGlyphs" textLength="160" x="169.5" y="831.4033">void changeDelay(delay:Number)</text><ellipse cx="160.5" cy="842.2383" fill="#84BE84" rx="3" ry="3" style="stroke: #038048; stroke-width: 1.0;"/><text fill="#000000" font-family="sans-serif" font-size="11" lengthAdjust="spacingAndGlyphs" textLength="92" x="169.5" y="845.2393">void emptyQueue()</text><ellipse cx="160.5" cy="856.0742" fill="#84BE84" rx="3" ry="3" style="stroke: #038048; stroke-width: 1.0;"/><text fill="#000000" font-family="sans-serif" font-size="11" lengthAdjust="spacingAndGlyphs" textLength="213" x="169.5" y="859.0752">void addRequestToQueue(request:Request)</text><polygon fill="#FFFF44" points="160.5,864.9102,164.5,868.9102,160.5,872.9102,156.5,868.9102" style="stroke: #B38D22; stroke-width: 1.0;"/><text fill="#000000" font-family="sans-serif" font-size="11" lengthAdjust="spacingAndGlyphs" textLength="154" x="169.5" y="872.9111">applyRequest(request:Request)</text><rect fill="#FEFECE" filter="url(#f1)" height="113.1797" style="stroke: #A80036; stroke-width: 1.5;" width="128" x="6" y="980.6406"/><ellipse cx="43.05" cy="996.6406" fill="#ADD1B2" rx="11" ry="11" style="stroke: #A80036; stroke-width: 1.0;"/><path d="M45.8156,992.5156 Q45.9719,992.2969 46.1594,992.1875 Q46.3469,992.0781 46.5656,992.0781 Q46.9406,992.0781 47.175,992.3359 Q47.4094,992.5938 47.4094,993.2031 L47.4094,994.6563 Q47.4094,995.2656 47.175,995.5313 Q46.9406,995.7969 46.5656,995.7969 Q46.2219,995.7969 46.0188,995.5938 Q45.8156,995.4063 45.7063,994.8906 Q45.6594,994.5313 45.4719,994.3438 Q45.1438,993.9688 44.5344,993.75 Q43.925,993.5313 43.3,993.5313 Q42.5344,993.5313 41.9016,993.8594 Q41.2688,994.1875 40.7766,994.9375 Q40.2844,995.6875 40.2844,996.7188 L40.2844,997.8125 Q40.2844,999.0469 41.175,999.8672 Q42.0656,1000.6875 43.6594,1000.6875 Q44.5969,1000.6875 45.2531,1000.4375 Q45.6438,1000.2813 46.0656,999.8438 Q46.3313,999.5781 46.4797,999.5 Q46.6281,999.4219 46.8313,999.4219 Q47.1594,999.4219 47.4172,999.6797 Q47.675,999.9375 47.675,1000.2813 Q47.675,1000.625 47.3313,1001.0313 Q46.8313,1001.6094 46.0344,1001.9375 Q44.9563,1002.3906 43.6594,1002.3906 Q42.1438,1002.3906 40.9406,1001.7656 Q39.9563,1001.2656 39.2688,1000.1953 Q38.5813,999.125 38.5813,997.8438 L38.5813,996.6875 Q38.5813,995.3594 39.1984,994.2109 Q39.8156,993.0625 40.9094,992.4453 Q42.0031,991.8281 43.2375,991.8281 Q43.9719,991.8281 44.6203,991.9922 Q45.2688,992.1563 45.8156,992.5156 Z "/><text fill="#000000" font-family="sans-serif" font-size="12" lengthAdjust="spacingAndGlyphs" textLength="47" x="61.95" y="1001.5508">Request</text><line style="stroke: #A80036; stroke-width: 1.5;" x1="7" x2="133" y1="1012.6406" y2="1012.6406"/><ellipse cx="17" cy="1042.8945" fill="none" rx="3" ry="3" style="stroke: #038048; stroke-width: 1.0;"/><text fill="#000000" font-family="sans-serif" font-size="11" lengthAdjust="spacingAndGlyphs" textLength="41" x="26" y="1045.8955">fn:String</text><ellipse cx="17" cy="1056.7305" fill="none" rx="3" ry="3" style="stroke: #038048; stroke-width: 1.0;"/><text fill="#000000" font-family="sans-serif" font-size="11" lengthAdjust="spacingAndGlyphs" textLength="43" x="26" y="1059.7314">url:String</text><ellipse cx="17" cy="1070.5664" fill="none" rx="3" ry="3" style="stroke: #038048; stroke-width: 1.0;"/><text fill="#000000" font-family="sans-serif" font-size="11" lengthAdjust="spacingAndGlyphs" textLength="80" x="26" y="1073.5674">handler:Function</text><ellipse cx="17" cy="1084.4023" fill="none" rx="3" ry="3" style="stroke: #038048; stroke-width: 1.0;"/><text fill="#000000" font-family="sans-serif" font-size="11" lengthAdjust="spacingAndGlyphs" textLength="102" x="26" y="1087.4033">infoForHandler:String</text><line style="stroke: #A80036; stroke-width: 1.0; stroke-dasharray: 1.0,2.0;" x1="7" x2="19.5" y1="1027.5586" y2="1027.5586"/><text fill="#000000" font-family="sans-serif" font-size="11" lengthAdjust="spacingAndGlyphs" textLength="101" x="19.5" y="1031.5596">Either 'GET' or 'POST'</text><line style="stroke: #A80036; stroke-width: 1.0; stroke-dasharray: 1.0,2.0;" x1="120.5" x2="133" y1="1027.5586" y2="1027.5586"/><rect fill="#FEFECE" filter="url(#f1)" height="234.7852" style="stroke: #A80036; stroke-width: 1.5;" width="389" x="432.5" y="267.6406"/><ellipse cx="584.25" cy="283.6406" fill="#ADD1B2" rx="11" ry="11" style="stroke: #A80036; stroke-width: 1.0;"/><path d="M587.0156,279.5156 Q587.1719,279.2969 587.3594,279.1875 Q587.5469,279.0781 587.7656,279.0781 Q588.1406,279.0781 588.375,279.3359 Q588.6094,279.5938 588.6094,280.2031 L588.6094,281.6563 Q588.6094,282.2656 588.375,282.5313 Q588.1406,282.7969 587.7656,282.7969 Q587.4219,282.7969 587.2188,282.5938 Q587.0156,282.4063 586.9063,281.8906 Q586.8594,281.5313 586.6719,281.3438 Q586.3438,280.9688 585.7344,280.75 Q585.125,280.5313 584.5,280.5313 Q583.7344,280.5313 583.1016,280.8594 Q582.4688,281.1875 581.9766,281.9375 Q581.4844,282.6875 581.4844,283.7188 L581.4844,284.8125 Q581.4844,286.0469 582.375,286.8672 Q583.2656,287.6875 584.8594,287.6875 Q585.7969,287.6875 586.4531,287.4375 Q586.8438,287.2813 587.2656,286.8438 Q587.5313,286.5781 587.6797,286.5 Q587.8281,286.4219 588.0313,286.4219 Q588.3594,286.4219 588.6172,286.6797 Q588.875,286.9375 588.875,287.2813 Q588.875,287.625 588.5313,288.0313 Q588.0313,288.6094 587.2344,288.9375 Q586.1563,289.3906 584.8594,289.3906 Q583.3438,289.3906 582.1406,288.7656 Q581.1563,288.2656 580.4688,287.1953 Q579.7813,286.125 579.7813,284.8438 L579.7813,283.6875 Q579.7813,282.3594 580.3984,281.2109 Q581.0156,280.0625 582.1094,279.4453 Q583.2031,278.8281 584.4375,278.8281 Q585.1719,278.8281 585.8203,278.9922 Q586.4688,279.1563 587.0156,279.5156 Z "/><text fill="#000000" font-family="sans-serif" font-size="12" lengthAdjust="spacingAndGlyphs" textLength="77" x="604.75" y="288.5508">PhaseRunner</text><line style="stroke: #A80036; stroke-width: 1.5;" x1="433.5" x2="820.5" y1="299.6406" y2="299.6406"/><polygon fill="none" points="443.5,307.0586,447.5,311.0586,443.5,315.0586,439.5,311.0586" style="stroke: #B38D22; stroke-width: 1.0;"/><text fill="#000000" font-family="sans-serif" font-size="11" lengthAdjust="spacingAndGlyphs" textLength="75" x="452.5" y="315.0596">phases:Phase[]</text><polygon fill="none" points="443.5,320.8945,447.5,324.8945,443.5,328.8945,439.5,324.8945" style="stroke: #B38D22; stroke-width: 1.0;"/><text fill="#000000" font-family="sans-serif" font-size="11" lengthAdjust="spacingAndGlyphs" textLength="82" x="452.5" y="328.8955">someInput:Result</text><polygon fill="none" points="443.5,334.7305,447.5,338.7305,443.5,342.7305,439.5,338.7305" style="stroke: #B38D22; stroke-width: 1.0;"/><text fill="#000000" font-family="sans-serif" font-size="11" lengthAdjust="spacingAndGlyphs" textLength="83" x="452.5" y="342.7314">callback:Function</text><polygon fill="none" points="443.5,348.5664,447.5,352.5664,443.5,356.5664,439.5,352.5664" style="stroke: #B38D22; stroke-width: 1.0;"/><text fill="#000000" font-family="sans-serif" font-size="11" lengthAdjust="spacingAndGlyphs" textLength="80" x="452.5" y="356.5674">lastResult:Result</text><polygon fill="none" points="443.5,362.4023,447.5,366.4023,443.5,370.4023,439.5,366.4023" style="stroke: #B38D22; stroke-width: 1.0;"/><text fill="#000000" font-family="sans-serif" font-size="11" lengthAdjust="spacingAndGlyphs" textLength="75" x="452.5" y="370.4033">currentIndex:Int</text><polygon fill="none" points="443.5,376.2383,447.5,380.2383,443.5,384.2383,439.5,380.2383" style="stroke: #B38D22; stroke-width: 1.0;"/><text fill="#000000" font-family="sans-serif" font-size="11" lengthAdjust="spacingAndGlyphs" textLength="117" x="452.5" y="384.2393">receivedStopSignal:Bool</text><ellipse cx="443.5" cy="395.0742" fill="#84BE84" rx="3" ry="3" style="stroke: #038048; stroke-width: 1.0;"/><text fill="#000000" font-family="sans-serif" font-size="11" lengthAdjust="spacingAndGlyphs" textLength="363" x="452.5" y="398.0752">PhaseRunner(phases:Phase[], someInput:Result, callback:Function(Result))</text><line style="stroke: #A80036; stroke-width: 1.0; stroke-dasharray: 1.0,2.0;" x1="433.5" x2="522.5" y1="411.4102" y2="411.4102"/><text fill="#000000" font-family="sans-serif" font-size="11" lengthAdjust="spacingAndGlyphs" textLength="209" x="522.5" y="415.4111">Updates callback and calls it when stopped</text><line style="stroke: #A80036; stroke-width: 1.0; stroke-dasharray: 1.0,2.0;" x1="731.5" x2="820.5" y1="411.4102" y2="411.4102"/><ellipse cx="443.5" cy="447.5" fill="#84BE84" rx="3" ry="3" style="stroke: #038048; stroke-width: 1.0;"/><text fill="#000000" font-family="sans-serif" font-size="11" lengthAdjust="spacingAndGlyphs" textLength="217" x="452.5" y="450.501">void stopEarly(newCallback:Function(result))</text><polygon fill="#FFFF44" points="443.5,456.3359,447.5,460.3359,443.5,464.3359,439.5,460.3359" style="stroke: #B38D22; stroke-width: 1.0;"/><text fill="#000000" font-family="sans-serif" font-size="11" lengthAdjust="spacingAndGlyphs" textLength="34" x="452.5" y="464.3369">finish()</text><line style="stroke: #A80036; stroke-width: 1.0; stroke-dasharray: 1.0,2.0;" x1="433.5" x2="512.5" y1="432.1641" y2="432.1641"/><text fill="#000000" font-family="sans-serif" font-size="11" lengthAdjust="spacingAndGlyphs" textLength="229" x="512.5" y="436.165">i.e., doesnt call the one it was constructed with</text><line style="stroke: #A80036; stroke-width: 1.0; stroke-dasharray: 1.0,2.0;" x1="741.5" x2="820.5" y1="432.1641" y2="432.1641"/><polygon fill="#FFFF44" points="443.5,488.0078,447.5,492.0078,443.5,496.0078,439.5,492.0078" style="stroke: #B38D22; stroke-width: 1.0;"/><text fill="#000000" font-family="sans-serif" font-size="11" lengthAdjust="spacingAndGlyphs" textLength="76" x="452.5" y="496.0088">callNext(Result)</text><line style="stroke: #A80036; stroke-width: 1.0; stroke-dasharray: 1.0,2.0;" x1="433.5" x2="545" y1="477.6719" y2="477.6719"/><text fill="#000000" font-family="sans-serif" font-size="11" lengthAdjust="spacingAndGlyphs" textLength="164" x="545" y="481.6729">This is the callback of each Phase</text><line style="stroke: #A80036; stroke-width: 1.0; stroke-dasharray: 1.0,2.0;" x1="709" x2="820.5" y1="477.6719" y2="477.6719"/><rect fill="#FEFECE" filter="url(#f1)" height="61.8359" style="stroke: #A80036; stroke-width: 1.5;" width="276" x="489" y="580.6406"/><ellipse cx="605.25" cy="596.6406" fill="#A9DCDF" rx="11" ry="11" style="stroke: #A80036; stroke-width: 1.0;"/><path d="M607.4375,598.4063 L603.2969,598.4063 L602.875,599.4375 L603.2969,599.4375 Q603.9063,599.4375 604.1719,599.6719 Q604.4375,599.9063 604.4375,600.2969 Q604.4375,600.6719 604.1719,600.9063 Q603.9063,601.1406 603.2969,601.1406 L601,601.1406 Q600.3906,601.1406 600.1328,600.9063 Q599.875,600.6719 599.875,600.2813 Q599.875,599.9063 600.1484,599.6641 Q600.4219,599.4219 601.0469,599.4375 L603.7188,592.7813 L602.6094,592.7813 Q602,592.7813 601.7344,592.5469 Q601.4688,592.3125 601.4688,591.9219 Q601.4688,591.5469 601.7344,591.3125 Q602,591.0781 602.6094,591.0781 L606.2813,591.0781 L609.6719,599.4375 Q610.2656,599.4375 610.4531,599.5781 Q610.8438,599.8438 610.8438,600.2969 Q610.8438,600.6719 610.5859,600.9063 Q610.3281,601.1406 609.7188,601.1406 L607.4219,601.1406 Q606.8125,601.1406 606.5469,600.9063 Q606.2813,600.6719 606.2813,600.2813 Q606.2813,599.9063 606.5469,599.6719 Q606.8125,599.4375 607.4219,599.4375 L607.8438,599.4375 L607.4375,598.4063 Z M606.7188,596.7031 L605.3594,593.3281 L603.9844,596.7031 L606.7188,596.7031 Z "/><text fill="#000000" font-family="sans-serif" font-size="12" font-style="italic" lengthAdjust="spacingAndGlyphs" textLength="35" x="625.75" y="601.5508">Phase</text><line style="stroke: #A80036; stroke-width: 1.5;" x1="490" x2="764" y1="612.6406" y2="612.6406"/><line style="stroke: #A80036; stroke-width: 1.5;" x1="490" x2="764" y1="620.6406" y2="620.6406"/><ellipse cx="500" cy="633.0586" fill="#84BE84" rx="3" ry="3" style="stroke: #038048; stroke-width: 1.0;"/><text fill="#000000" font-family="sans-serif" font-size="11" lengthAdjust="spacingAndGlyphs" textLength="250" x="509" y="636.0596">Phase(prevResult:Result, callback:Function(Result))</text><rect fill="#FEFECE" filter="url(#f1)" height="85.5078" style="stroke: #A80036; stroke-width: 1.5;" width="152" x="787" y="757.1406"/><ellipse cx="839.75" cy="773.1406" fill="#ADD1B2" rx="11" ry="11" style="stroke: #A80036; stroke-width: 1.0;"/><path d="M842.5156,769.0156 Q842.6719,768.7969 842.8594,768.6875 Q843.0469,768.5781 843.2656,768.5781 Q843.6406,768.5781 843.875,768.8359 Q844.1094,769.0938 844.1094,769.7031 L844.1094,771.1563 Q844.1094,771.7656 843.875,772.0313 Q843.6406,772.2969 843.2656,772.2969 Q842.9219,772.2969 842.7188,772.0938 Q842.5156,771.9063 842.4063,771.3906 Q842.3594,771.0313 842.1719,770.8438 Q841.8438,770.4688 841.2344,770.25 Q840.625,770.0313 840,770.0313 Q839.2344,770.0313 838.6016,770.3594 Q837.9688,770.6875 837.4766,771.4375 Q836.9844,772.1875 836.9844,773.2188 L836.9844,774.3125 Q836.9844,775.5469 837.875,776.3672 Q838.7656,777.1875 840.3594,777.1875 Q841.2969,777.1875 841.9531,776.9375 Q842.3438,776.7813 842.7656,776.3438 Q843.0313,776.0781 843.1797,776 Q843.3281,775.9219 843.5313,775.9219 Q843.8594,775.9219 844.1172,776.1797 Q844.375,776.4375 844.375,776.7813 Q844.375,777.125 844.0313,777.5313 Q843.5313,778.1094 842.7344,778.4375 Q841.6563,778.8906 840.3594,778.8906 Q838.8438,778.8906 837.6406,778.2656 Q836.6563,777.7656 835.9688,776.6953 Q835.2813,775.625 835.2813,774.3438 L835.2813,773.1875 Q835.2813,771.8594 835.8984,770.7109 Q836.5156,769.5625 837.6094,768.9453 Q838.7031,768.3281 839.9375,768.3281 Q840.6719,768.3281 841.3203,768.4922 Q841.9688,768.6563 842.5156,769.0156 Z "/><text fill="#000000" font-family="sans-serif" font-size="12" lengthAdjust="spacingAndGlyphs" textLength="38" x="860.25" y="778.0508">Logout</text><line style="stroke: #A80036; stroke-width: 1.5;" x1="788" x2="938" y1="789.1406" y2="789.1406"/><ellipse cx="798" cy="819.3945" fill="#84BE84" rx="3" ry="3" style="stroke: #038048; stroke-width: 1.0;"/><text fill="#000000" font-family="sans-serif" font-size="11" lengthAdjust="spacingAndGlyphs" textLength="126" x="807" y="822.3955">Logout(prevResult:Result)</text><polygon fill="#FFFF44" points="798,828.2305,802,832.2305,798,836.2305,794,832.2305" style="stroke: #B38D22; stroke-width: 1.0;"/><text fill="#000000" font-family="sans-serif" font-size="11" lengthAdjust="spacingAndGlyphs" textLength="90" x="807" y="836.2314">logoutHandler(xhr)</text><line style="stroke: #A80036; stroke-width: 1.0; stroke-dasharray: 1.0,2.0;" x1="788" x2="815.5" y1="804.0586" y2="804.0586"/><text fill="#000000" font-family="sans-serif" font-size="11" lengthAdjust="spacingAndGlyphs" textLength="95" x="815.5" y="808.0596">Needs no data at all</text><line style="stroke: #A80036; stroke-width: 1.0; stroke-dasharray: 1.0,2.0;" x1="910.5" x2="938" y1="804.0586" y2="804.0586"/><rect fill="#FEFECE" filter="url(#f1)" height="85.5078" style="stroke: #A80036; stroke-width: 1.5;" width="145" x="716.5" y="994.1406"/><ellipse cx="769.25" cy="1010.1406" fill="#ADD1B2" rx="11" ry="11" style="stroke: #A80036; stroke-width: 1.0;"/><path d="M772.0156,1006.0156 Q772.1719,1005.7969 772.3594,1005.6875 Q772.5469,1005.5781 772.7656,1005.5781 Q773.1406,1005.5781 773.375,1005.8359 Q773.6094,1006.0938 773.6094,1006.7031 L773.6094,1008.1563 Q773.6094,1008.7656 773.375,1009.0313 Q773.1406,1009.2969 772.7656,1009.2969 Q772.4219,1009.2969 772.2188,1009.0938 Q772.0156,1008.9063 771.9063,1008.3906 Q771.8594,1008.0313 771.6719,1007.8438 Q771.3438,1007.4688 770.7344,1007.25 Q770.125,1007.0313 769.5,1007.0313 Q768.7344,1007.0313 768.1016,1007.3594 Q767.4688,1007.6875 766.9766,1008.4375 Q766.4844,1009.1875 766.4844,1010.2188 L766.4844,1011.3125 Q766.4844,1012.5469 767.375,1013.3672 Q768.2656,1014.1875 769.8594,1014.1875 Q770.7969,1014.1875 771.4531,1013.9375 Q771.8438,1013.7813 772.2656,1013.3438 Q772.5313,1013.0781 772.6797,1013 Q772.8281,1012.9219 773.0313,1012.9219 Q773.3594,1012.9219 773.6172,1013.1797 Q773.875,1013.4375 773.875,1013.7813 Q773.875,1014.125 773.5313,1014.5313 Q773.0313,1015.1094 772.2344,1015.4375 Q771.1563,1015.8906 769.8594,1015.8906 Q768.3438,1015.8906 767.1406,1015.2656 Q766.1563,1014.7656 765.4688,1013.6953 Q764.7813,1012.625 764.7813,1011.3438 L764.7813,1010.1875 Q764.7813,1008.8594 765.3984,1007.7109 Q766.0156,1006.5625 767.1094,1005.9453 Q768.2031,1005.3281 769.4375,1005.3281 Q770.1719,1005.3281 770.8203,1005.4922 Q771.4688,1005.6563 772.0156,1006.0156 Z "/><text fill="#000000" font-family="sans-serif" font-size="12" lengthAdjust="spacingAndGlyphs" textLength="31" x="789.75" y="1015.0508">Login</text><line style="stroke: #A80036; stroke-width: 1.5;" x1="717.5" x2="860.5" y1="1026.1406" y2="1026.1406"/><ellipse cx="727.5" cy="1056.3945" fill="#84BE84" rx="3" ry="3" style="stroke: #038048; stroke-width: 1.0;"/><text fill="#000000" font-family="sans-serif" font-size="11" lengthAdjust="spacingAndGlyphs" textLength="119" x="736.5" y="1059.3955">Login(prevResult:Result)</text><polygon fill="#FFFF44" points="727.5,1065.2305,731.5,1069.2305,727.5,1073.2305,723.5,1069.2305" style="stroke: #B38D22; stroke-width: 1.0;"/><text fill="#000000" font-family="sans-serif" font-size="11" lengthAdjust="spacingAndGlyphs" textLength="83" x="736.5" y="1073.2314">loginHandler(xhr)</text><line style="stroke: #A80036; stroke-width: 1.0; stroke-dasharray: 1.0,2.0;" x1="717.5" x2="759" y1="1041.0586" y2="1041.0586"/><text fill="#000000" font-family="sans-serif" font-size="11" lengthAdjust="spacingAndGlyphs" textLength="60" x="759" y="1045.0596">{user, pass}</text><line style="stroke: #A80036; stroke-width: 1.0; stroke-dasharray: 1.0,2.0;" x1="819" x2="860.5" y1="1041.0586" y2="1041.0586"/><rect fill="#FEFECE" filter="url(#f1)" height="175.4414" style="stroke: #A80036; stroke-width: 1.5;" width="166" x="645" y="1194.6406"/><ellipse cx="698.25" cy="1210.6406" fill="#ADD1B2" rx="11" ry="11" style="stroke: #A80036; stroke-width: 1.0;"/><path d="M701.0156,1206.5156 Q701.1719,1206.2969 701.3594,1206.1875 Q701.5469,1206.0781 701.7656,1206.0781 Q702.1406,1206.0781 702.375,1206.3359 Q702.6094,1206.5938 702.6094,1207.2031 L702.6094,1208.6563 Q702.6094,1209.2656 702.375,1209.5313 Q702.1406,1209.7969 701.7656,1209.7969 Q701.4219,1209.7969 701.2188,1209.5938 Q701.0156,1209.4063 700.9063,1208.8906 Q700.8594,1208.5313 700.6719,1208.3438 Q700.3438,1207.9688 699.7344,1207.75 Q699.125,1207.5313 698.5,1207.5313 Q697.7344,1207.5313 697.1016,1207.8594 Q696.4688,1208.1875 695.9766,1208.9375 Q695.4844,1209.6875 695.4844,1210.7188 L695.4844,1211.8125 Q695.4844,1213.0469 696.375,1213.8672 Q697.2656,1214.6875 698.8594,1214.6875 Q699.7969,1214.6875 700.4531,1214.4375 Q700.8438,1214.2813 701.2656,1213.8438 Q701.5313,1213.5781 701.6797,1213.5 Q701.8281,1213.4219 702.0313,1213.4219 Q702.3594,1213.4219 702.6172,1213.6797 Q702.875,1213.9375 702.875,1214.2813 Q702.875,1214.625 702.5313,1215.0313 Q702.0313,1215.6094 701.2344,1215.9375 Q700.1563,1216.3906 698.8594,1216.3906 Q697.3438,1216.3906 696.1406,1215.7656 Q695.1563,1215.2656 694.4688,1214.1953 Q693.7813,1213.125 693.7813,1211.8438 L693.7813,1210.6875 Q693.7813,1209.3594 694.3984,1208.2109 Q695.0156,1207.0625 696.1094,1206.4453 Q697.2031,1205.8281 698.4375,1205.8281 Q699.1719,1205.8281 699.8203,1205.9922 Q700.4688,1206.1563 701.0156,1206.5156 Z "/><text fill="#000000" font-family="sans-serif" font-size="12" lengthAdjust="spacingAndGlyphs" textLength="51" x="718.75" y="1215.5508">GetYears</text><line style="stroke: #A80036; stroke-width: 1.5;" x1="646" x2="810" y1="1226.6406" y2="1226.6406"/><line style="stroke: #A80036; stroke-width: 1.0; stroke-dasharray: 1.0,2.0;" x1="646" x2="682" y1="1241.5586" y2="1241.5586"/><text fill="#000000" font-family="sans-serif" font-size="11" lengthAdjust="spacingAndGlyphs" textLength="92" x="682" y="1245.5596">Assumes logged in</text><line style="stroke: #A80036; stroke-width: 1.0; stroke-dasharray: 1.0,2.0;" x1="774" x2="810" y1="1241.5586" y2="1241.5586"/><polygon fill="none" points="656,1272.6484,660,1276.6484,656,1280.6484,652,1276.6484" style="stroke: #B38D22; stroke-width: 1.0;"/><text fill="#000000" font-family="sans-serif" font-size="11" lengthAdjust="spacingAndGlyphs" textLength="69" x="665" y="1280.6494">termsCount:Int</text><polygon fill="none" points="656,1286.4844,660,1290.4844,656,1294.4844,652,1290.4844" style="stroke: #B38D22; stroke-width: 1.0;"/><text fill="#000000" font-family="sans-serif" font-size="11" lengthAdjust="spacingAndGlyphs" textLength="108" x="665" y="1294.4854">years:String Array[3][]</text><ellipse cx="656" cy="1305.3203" fill="#84BE84" rx="3" ry="3" style="stroke: #038048; stroke-width: 1.0;"/><text fill="#000000" font-family="sans-serif" font-size="11" lengthAdjust="spacingAndGlyphs" textLength="140" x="665" y="1308.3213">GetYears(prevResult:Result)</text><polygon fill="#FFFF44" points="656,1314.1563,660,1318.1563,656,1322.1563,652,1318.1563" style="stroke: #B38D22; stroke-width: 1.0;"/><text fill="#000000" font-family="sans-serif" font-size="11" lengthAdjust="spacingAndGlyphs" textLength="106" x="665" y="1322.1572">getYearsHandler(xhr)</text><line style="stroke: #A80036; stroke-width: 1.0; stroke-dasharray: 1.0,2.0;" x1="646" x2="713" y1="1262.3125" y2="1262.3125"/><text fill="#000000" font-family="sans-serif" font-size="11" lengthAdjust="spacingAndGlyphs" textLength="30" x="713" y="1266.3135">{user}</text><line style="stroke: #A80036; stroke-width: 1.0; stroke-dasharray: 1.0,2.0;" x1="743" x2="810" y1="1262.3125" y2="1262.3125"/><line style="stroke: #A80036; stroke-width: 1.0; stroke-dasharray: 1.0,2.0;" x1="646" x2="659" y1="1335.4922" y2="1335.4922"/><text fill="#000000" font-family="sans-serif" font-size="11" lengthAdjust="spacingAndGlyphs" textLength="138" x="659" y="1339.4932">result:years:String Array[3][]</text><line style="stroke: #A80036; stroke-width: 1.0; stroke-dasharray: 1.0,2.0;" x1="797" x2="810" y1="1335.4922" y2="1335.4922"/><line style="stroke: #A80036; stroke-width: 1.0; stroke-dasharray: 1.0,2.0;" x1="646" x2="660" y1="1356.2461" y2="1356.2461"/><text fill="#000000" font-family="sans-serif" font-size="11" lengthAdjust="spacingAndGlyphs" textLength="136" x="660" y="1360.2471">Example: [['12', '11'], [], ['10']]</text><line style="stroke: #A80036; stroke-width: 1.0; stroke-dasharray: 1.0,2.0;" x1="796" x2="810" y1="1356.2461" y2="1356.2461"/><rect fill="#FEFECE" filter="url(#f1)" height="175.4414" style="stroke: #A80036; stroke-width: 1.5;" width="313" x="483.5" y="1447.6406"/><ellipse cx="595.75" cy="1463.6406" fill="#ADD1B2" rx="11" ry="11" style="stroke: #A80036; stroke-width: 1.0;"/><path d="M598.5156,1459.5156 Q598.6719,1459.2969 598.8594,1459.1875 Q599.0469,1459.0781 599.2656,1459.0781 Q599.6406,1459.0781 599.875,1459.3359 Q600.1094,1459.5938 600.1094,1460.2031 L600.1094,1461.6563 Q600.1094,1462.2656 599.875,1462.5313 Q599.6406,1462.7969 599.2656,1462.7969 Q598.9219,1462.7969 598.7188,1462.5938 Q598.5156,1462.4063 598.4063,1461.8906 Q598.3594,1461.5313 598.1719,1461.3438 Q597.8438,1460.9688 597.2344,1460.75 Q596.625,1460.5313 596,1460.5313 Q595.2344,1460.5313 594.6016,1460.8594 Q593.9688,1461.1875 593.4766,1461.9375 Q592.9844,1462.6875 592.9844,1463.7188 L592.9844,1464.8125 Q592.9844,1466.0469 593.875,1466.8672 Q594.7656,1467.6875 596.3594,1467.6875 Q597.2969,1467.6875 597.9531,1467.4375 Q598.3438,1467.2813 598.7656,1466.8438 Q599.0313,1466.5781 599.1797,1466.5 Q599.3281,1466.4219 599.5313,1466.4219 Q599.8594,1466.4219 600.1172,1466.6797 Q600.375,1466.9375 600.375,1467.2813 Q600.375,1467.625 600.0313,1468.0313 Q599.5313,1468.6094 598.7344,1468.9375 Q597.6563,1469.3906 596.3594,1469.3906 Q594.8438,1469.3906 593.6406,1468.7656 Q592.6563,1468.2656 591.9688,1467.1953 Q591.2813,1466.125 591.2813,1464.8438 L591.2813,1463.6875 Q591.2813,1462.3594 591.8984,1461.2109 Q592.5156,1460.0625 593.6094,1459.4453 Q594.7031,1458.8281 595.9375,1458.8281 Q596.6719,1458.8281 597.3203,1458.9922 Q597.9688,1459.1563 598.5156,1459.5156 Z "/><text fill="#000000" font-family="sans-serif" font-size="12" lengthAdjust="spacingAndGlyphs" textLength="80" x="616.25" y="1468.5508">ScrapeGrades</text><line style="stroke: #A80036; stroke-width: 1.5;" x1="484.5" x2="795.5" y1="1479.6406" y2="1479.6406"/><line style="stroke: #A80036; stroke-width: 1.0; stroke-dasharray: 1.0,2.0;" x1="484.5" x2="594" y1="1494.5586" y2="1494.5586"/><text fill="#000000" font-family="sans-serif" font-size="11" lengthAdjust="spacingAndGlyphs" textLength="92" x="594" y="1498.5596">Assumes logged in</text><line style="stroke: #A80036; stroke-width: 1.0; stroke-dasharray: 1.0,2.0;" x1="686" x2="795.5" y1="1494.5586" y2="1494.5586"/><polygon fill="none" points="494.5,1525.6484,498.5,1529.6484,494.5,1533.6484,490.5,1529.6484" style="stroke: #B38D22; stroke-width: 1.0;"/><text fill="#000000" font-family="sans-serif" font-size="11" lengthAdjust="spacingAndGlyphs" textLength="111" x="503.5" y="1533.6494">termsYearsCount:Int[3]</text><polygon fill="none" points="494.5,1539.4844,498.5,1543.4844,494.5,1547.4844,490.5,1543.4844" style="stroke: #B38D22; stroke-width: 1.0;"/><text fill="#000000" font-family="sans-serif" font-size="11" lengthAdjust="spacingAndGlyphs" textLength="138" x="503.5" y="1547.4854">doneTermsYearsCount:Int[3]</text><ellipse cx="494.5" cy="1558.3203" fill="#84BE84" rx="3" ry="3" style="stroke: #038048; stroke-width: 1.0;"/><text fill="#000000" font-family="sans-serif" font-size="11" lengthAdjust="spacingAndGlyphs" textLength="164" x="503.5" y="1561.3213">ScrapeGrades(prevResult:Result)</text><polygon fill="#FFFF44" points="494.5,1567.1563,498.5,1571.1563,494.5,1575.1563,490.5,1571.1563" style="stroke: #B38D22; stroke-width: 1.0;"/><text fill="#000000" font-family="sans-serif" font-size="11" lengthAdjust="spacingAndGlyphs" textLength="119" x="503.5" y="1575.1572">scrapeTermHandler(xhr)</text><line style="stroke: #A80036; stroke-width: 1.0; stroke-dasharray: 1.0,2.0;" x1="484.5" x2="568" y1="1515.3125" y2="1515.3125"/><text fill="#000000" font-family="sans-serif" font-size="11" lengthAdjust="spacingAndGlyphs" textLength="144" x="568" y="1519.3135">{user, years:String Array[3][]}</text><line style="stroke: #A80036; stroke-width: 1.0; stroke-dasharray: 1.0,2.0;" x1="712" x2="795.5" y1="1515.3125" y2="1515.3125"/><line style="stroke: #A80036; stroke-width: 1.0; stroke-dasharray: 1.0,2.0;" x1="484.5" x2="487.5" y1="1588.4922" y2="1588.4922"/><text fill="#000000" font-family="sans-serif" font-size="11" lengthAdjust="spacingAndGlyphs" textLength="305" x="487.5" y="1592.4932">result:{0..*String:Array[3] each either HTML Table or undefined}</text><line style="stroke: #A80036; stroke-width: 1.0; stroke-dasharray: 1.0,2.0;" x1="792.5" x2="795.5" y1="1588.4922" y2="1588.4922"/><line style="stroke: #A80036; stroke-width: 1.0; stroke-dasharray: 1.0,2.0;" x1="484.5" x2="516.5" y1="1609.2461" y2="1609.2461"/><text fill="#000000" font-family="sans-serif" font-size="11" lengthAdjust="spacingAndGlyphs" textLength="247" x="516.5" y="1613.2471">Example: {'12':[HT, undefined, HT], '10':[HT, HT, HT]}</text><line style="stroke: #A80036; stroke-width: 1.0; stroke-dasharray: 1.0,2.0;" x1="763.5" x2="795.5" y1="1609.2461" y2="1609.2461"/><rect fill="#FEFECE" filter="url(#f1)" height="158.6875" style="stroke: #A80036; stroke-width: 1.5;" width="335" x="459.5" y="30.6406"/><ellipse cx="575.25" cy="46.6406" fill="#ADD1B2" rx="11" ry="11" style="stroke: #A80036; stroke-width: 1.0;"/><path d="M578.0156,42.5156 Q578.1719,42.2969 578.3594,42.1875 Q578.5469,42.0781 578.7656,42.0781 Q579.1406,42.0781 579.375,42.3359 Q579.6094,42.5938 579.6094,43.2031 L579.6094,44.6563 Q579.6094,45.2656 579.375,45.5313 Q579.1406,45.7969 578.7656,45.7969 Q578.4219,45.7969 578.2188,45.5938 Q578.0156,45.4063 577.9063,44.8906 Q577.8594,44.5313 577.6719,44.3438 Q577.3438,43.9688 576.7344,43.75 Q576.125,43.5313 575.5,43.5313 Q574.7344,43.5313 574.1016,43.8594 Q573.4688,44.1875 572.9766,44.9375 Q572.4844,45.6875 572.4844,46.7188 L572.4844,47.8125 Q572.4844,49.0469 573.375,49.8672 Q574.2656,50.6875 575.8594,50.6875 Q576.7969,50.6875 577.4531,50.4375 Q577.8438,50.2813 578.2656,49.8438 Q578.5313,49.5781 578.6797,49.5 Q578.8281,49.4219 579.0313,49.4219 Q579.3594,49.4219 579.6172,49.6797 Q579.875,49.9375 579.875,50.2813 Q579.875,50.625 579.5313,51.0313 Q579.0313,51.6094 578.2344,51.9375 Q577.1563,52.3906 575.8594,52.3906 Q574.3438,52.3906 573.1406,51.7656 Q572.1563,51.2656 571.4688,50.1953 Q570.7813,49.125 570.7813,47.8438 L570.7813,46.6875 Q570.7813,45.3594 571.3984,44.2109 Q572.0156,43.0625 573.1094,42.4453 Q574.2031,41.8281 575.4375,41.8281 Q576.1719,41.8281 576.8203,41.9922 Q577.4688,42.1563 578.0156,42.5156 Z "/><text fill="#000000" font-family="sans-serif" font-size="12" lengthAdjust="spacingAndGlyphs" textLength="95" x="595.75" y="51.5508">ScraperSingleton</text><line style="stroke: #A80036; stroke-width: 1.5;" x1="460.5" x2="793.5" y1="62.6406" y2="62.6406"/><polygon fill="none" points="470.5,70.0586,474.5,74.0586,470.5,78.0586,466.5,74.0586" style="stroke: #B38D22; stroke-width: 1.0;"/><text fill="#000000" font-family="sans-serif" font-size="11" lengthAdjust="spacingAndGlyphs" textLength="81" x="479.5" y="78.0596">phases:phases[]</text><polygon fill="none" points="470.5,83.8945,474.5,87.8945,470.5,91.8945,466.5,87.8945" style="stroke: #B38D22; stroke-width: 1.0;"/><text fill="#000000" font-family="sans-serif" font-size="11" lengthAdjust="spacingAndGlyphs" textLength="133" x="479.5" y="91.8955">phaseRunner:PhaseRunner</text><polygon fill="none" points="470.5,97.7305,474.5,101.7305,470.5,105.7305,466.5,101.7305" style="stroke: #B38D22; stroke-width: 1.0;"/><text fill="#000000" font-family="sans-serif" font-size="11" lengthAdjust="spacingAndGlyphs" textLength="53" x="479.5" y="105.7314">user:String</text><polygon fill="none" points="470.5,111.5664,474.5,115.5664,470.5,119.5664,466.5,115.5664" style="stroke: #B38D22; stroke-width: 1.0;"/><text fill="#000000" font-family="sans-serif" font-size="11" lengthAdjust="spacingAndGlyphs" textLength="55" x="479.5" y="119.5674">pass:String</text><polygon fill="none" points="470.5,125.4023,474.5,129.4023,470.5,133.4023,466.5,129.4023" style="stroke: #B38D22; stroke-width: 1.0;"/><text fill="#000000" font-family="sans-serif" font-size="11" lengthAdjust="spacingAndGlyphs" textLength="171" x="479.5" y="133.4033">callback:Function that takes nothing</text><polygon fill="none" points="470.5,139.2383,474.5,143.2383,470.5,147.2383,466.5,143.2383" style="stroke: #B38D22; stroke-width: 1.0;"/><text fill="#000000" font-family="sans-serif" font-size="11" lengthAdjust="spacingAndGlyphs" textLength="264" x="479.5" y="147.2393">callbackAfterLastStopped: Function that takes a Result</text><line style="stroke: #A80036; stroke-width: 1.5;" x1="460.5" x2="793.5" y1="153.6563" y2="153.6563"/><ellipse cx="470.5" cy="166.0742" fill="#84BE84" rx="3" ry="3" style="stroke: #038048; stroke-width: 1.0;"/><text fill="#000000" font-family="sans-serif" font-size="11" lengthAdjust="spacingAndGlyphs" textLength="309" x="479.5" y="169.0752">start(user, pass, callback, callbackAfterLastStopped/*optional*/)</text><polygon fill="#FFFF44" points="470.5,174.9102,474.5,178.9102,470.5,182.9102,466.5,178.9102" style="stroke: #B38D22; stroke-width: 1.0;"/><text fill="#000000" font-family="sans-serif" font-size="11" lengthAdjust="spacingAndGlyphs" textLength="135" x="479.5" y="182.9111">startActual:Function(Result)</text><rect fill="#FEFECE" filter="url(#f1)" height="158.6875" style="stroke: #A80036; stroke-width: 1.5;" width="369" x="169.5" y="957.6406"/><ellipse cx="329.25" cy="973.6406" fill="#ADD1B2" rx="11" ry="11" style="stroke: #A80036; stroke-width: 1.0;"/><path d="M332.0156,969.5156 Q332.1719,969.2969 332.3594,969.1875 Q332.5469,969.0781 332.7656,969.0781 Q333.1406,969.0781 333.375,969.3359 Q333.6094,969.5938 333.6094,970.2031 L333.6094,971.6563 Q333.6094,972.2656 333.375,972.5313 Q333.1406,972.7969 332.7656,972.7969 Q332.4219,972.7969 332.2188,972.5938 Q332.0156,972.4063 331.9063,971.8906 Q331.8594,971.5313 331.6719,971.3438 Q331.3438,970.9688 330.7344,970.75 Q330.125,970.5313 329.5,970.5313 Q328.7344,970.5313 328.1016,970.8594 Q327.4688,971.1875 326.9766,971.9375 Q326.4844,972.6875 326.4844,973.7188 L326.4844,974.8125 Q326.4844,976.0469 327.375,976.8672 Q328.2656,977.6875 329.8594,977.6875 Q330.7969,977.6875 331.4531,977.4375 Q331.8438,977.2813 332.2656,976.8438 Q332.5313,976.5781 332.6797,976.5 Q332.8281,976.4219 333.0313,976.4219 Q333.3594,976.4219 333.6172,976.6797 Q333.875,976.9375 333.875,977.2813 Q333.875,977.625 333.5313,978.0313 Q333.0313,978.6094 332.2344,978.9375 Q331.1563,979.3906 329.8594,979.3906 Q328.3438,979.3906 327.1406,978.7656 Q326.1563,978.2656 325.4688,977.1953 Q324.7813,976.125 324.7813,974.8438 L324.7813,973.6875 Q324.7813,972.3594 325.3984,971.2109 Q326.0156,970.0625 327.1094,969.4453 Q328.2031,968.8281 329.4375,968.8281 Q330.1719,968.8281 330.8203,968.9922 Q331.4688,969.1563 332.0156,969.5156 Z "/><text fill="#000000" font-family="sans-serif" font-size="12" lengthAdjust="spacingAndGlyphs" textLength="41" x="349.75" y="978.5508">Utilities</text><line style="stroke: #A80036; stroke-width: 1.5;" x1="170.5" x2="537.5" y1="989.6406" y2="989.6406"/><line style="stroke: #A80036; stroke-width: 1.5;" x1="170.5" x2="537.5" y1="997.6406" y2="997.6406"/><ellipse cx="180.5" cy="1010.0586" fill="#84BE84" rx="3" ry="3" style="stroke: #038048; stroke-width: 1.0;"/><text fill="#000000" font-family="sans-serif" font-size="11" lengthAdjust="spacingAndGlyphs" textLength="315" x="189.5" y="1013.0596">void sendGET(url:String, handler:Function, infoForHandler:Object)</text><ellipse cx="180.5" cy="1023.8945" fill="#84BE84" rx="3" ry="3" style="stroke: #038048; stroke-width: 1.0;"/><text fill="#000000" font-family="sans-serif" font-size="11" lengthAdjust="spacingAndGlyphs" textLength="343" x="189.5" y="1026.8955">void sendPOST(url:String, nameValuePairs:Array[][2], handler:Function,</text><text fill="#000000" font-family="sans-serif" font-size="11" lengthAdjust="spacingAndGlyphs" textLength="109" x="219.5" y="1040.7314">infoForHandler:Object)</text><ellipse cx="180.5" cy="1051.5664" fill="#84BE84" rx="3" ry="3" style="stroke: #038048; stroke-width: 1.0;"/><text fill="#000000" font-family="sans-serif" font-size="11" lengthAdjust="spacingAndGlyphs" textLength="218" x="189.5" y="1054.5674">DOMObject parseHTML(anHTMLString:String)</text><ellipse cx="180.5" cy="1065.4023" fill="#84BE84" rx="3" ry="3" style="stroke: #038048; stroke-width: 1.0;"/><text fill="#000000" font-family="sans-serif" font-size="11" lengthAdjust="spacingAndGlyphs" textLength="249" x="189.5" y="1068.4033">Bool/String checkUser(user:String, doc:DOMObject)</text><ellipse cx="180.5" cy="1079.2383" fill="#84BE84" rx="3" ry="3" style="stroke: #038048; stroke-width: 1.0;"/><text fill="#000000" font-family="sans-serif" font-size="11" lengthAdjust="spacingAndGlyphs" textLength="237" x="189.5" y="1082.2393">Function curryOneParam(fn:Function, param:var)</text><ellipse cx="180.5" cy="1093.0742" fill="#84BE84" rx="3" ry="3" style="stroke: #038048; stroke-width: 1.0;"/><text fill="#000000" font-family="sans-serif" font-size="11" lengthAdjust="spacingAndGlyphs" textLength="166" x="189.5" y="1096.0752">Bool/DOMObject handlerBase(xhr)</text><polygon fill="#FFFF44" points="180.5,1101.9102,184.5,1105.9102,180.5,1109.9102,176.5,1105.9102" style="stroke: #B38D22; stroke-width: 1.0;"/><text fill="#000000" font-family="sans-serif" font-size="11" lengthAdjust="spacingAndGlyphs" textLength="303" x="189.5" y="1109.9111">void initReq(url:String, handler:Function, infoForHandler:Object)</text><polygon fill="#FBFB77" filter="url(#f1)" points="896.5,1024.1406,896.5,1050.4922,1215.5,1050.4922,1215.5,1034.1406,1205.5,1024.1406,896.5,1024.1406" style="stroke: #A80036; stroke-width: 1.0;"/><polygon fill="#FBFB77" points="896.5,1024.1406,896.5,1050.4922,1215.5,1050.4922,1215.5,1034.1406,1205.5,1024.1406,1050.13,1024.1406,897.505,843.1536,1042.13,1024.1406,896.5,1024.1406" style="stroke: #A80036; stroke-width: 1.0;"/><line style="stroke: #A80036; stroke-width: 1.0;" x1="1205.5" x2="1205.5" y1="1024.1406" y2="1034.1406"/><line style="stroke: #A80036; stroke-width: 1.0;" x1="1215.5" x2="1205.5" y1="1034.1406" y2="1034.1406"/><text fill="#000000" font-family="sans-serif" font-size="13" lengthAdjust="spacingAndGlyphs" textLength="298" x="902.5" y="1042.6357">Only class that does the work even if err.length &gt; 0.</text><polygon fill="#FBFB77" filter="url(#f1)" points="891.5,363.6406,891.5,406.3438,1334.5,406.3438,1334.5,373.6406,1324.5,363.6406,891.5,363.6406" style="stroke: #A80036; stroke-width: 1.0;"/><polygon fill="#FBFB77" points="891.5,363.6406,891.5,381.1406,821.59,385.1406,891.5,389.1406,891.5,406.3438,1334.5,406.3438,1334.5,373.6406,1324.5,363.6406,891.5,363.6406" style="stroke: #A80036; stroke-width: 1.0;"/><line style="stroke: #A80036; stroke-width: 1.0;" x1="1324.5" x2="1324.5" y1="363.6406" y2="373.6406"/><line style="stroke: #A80036; stroke-width: 1.0;" x1="1334.5" x2="1324.5" y1="373.6406" y2="373.6406"/><text fill="#000000" font-family="sans-serif" font-size="13" lengthAdjust="spacingAndGlyphs" textLength="329" x="897.5" y="382.1357">You shouldnt have 2 instances running at the same time.</text><text fill="#000000" font-family="sans-serif" font-size="13" lengthAdjust="spacingAndGlyphs" textLength="422" x="897.5" y="398.4873">Also, an instance can be used once only (Obvious from how the code is).</text><rect fill="#FEFECE" filter="url(#f1)" height="89.5078" style="stroke: #A80036; stroke-width: 1.5;" width="219" x="829.5" y="65.1406"/><ellipse cx="916.75" cy="81.1406" fill="#ADD1B2" rx="11" ry="11" style="stroke: #A80036; stroke-width: 1.0;"/><path d="M919.5156,77.0156 Q919.6719,76.7969 919.8594,76.6875 Q920.0469,76.5781 920.2656,76.5781 Q920.6406,76.5781 920.875,76.8359 Q921.1094,77.0938 921.1094,77.7031 L921.1094,79.1563 Q921.1094,79.7656 920.875,80.0313 Q920.6406,80.2969 920.2656,80.2969 Q919.9219,80.2969 919.7188,80.0938 Q919.5156,79.9063 919.4063,79.3906 Q919.3594,79.0313 919.1719,78.8438 Q918.8438,78.4688 918.2344,78.25 Q917.625,78.0313 917,78.0313 Q916.2344,78.0313 915.6016,78.3594 Q914.9688,78.6875 914.4766,79.4375 Q913.9844,80.1875 913.9844,81.2188 L913.9844,82.3125 Q913.9844,83.5469 914.875,84.3672 Q915.7656,85.1875 917.3594,85.1875 Q918.2969,85.1875 918.9531,84.9375 Q919.3438,84.7813 919.7656,84.3438 Q920.0313,84.0781 920.1797,84 Q920.3281,83.9219 920.5313,83.9219 Q920.8594,83.9219 921.1172,84.1797 Q921.375,84.4375 921.375,84.7813 Q921.375,85.125 921.0313,85.5313 Q920.5313,86.1094 919.7344,86.4375 Q918.6563,86.8906 917.3594,86.8906 Q915.8438,86.8906 914.6406,86.2656 Q913.6563,85.7656 912.9688,84.6953 Q912.2813,83.625 912.2813,82.3438 L912.2813,81.1875 Q912.2813,79.8594 912.8984,78.7109 Q913.5156,77.5625 914.6094,76.9453 Q915.7031,76.3281 916.9375,76.3281 Q917.6719,76.3281 918.3203,76.4922 Q918.9688,76.6563 919.5156,77.0156 Z "/><text fill="#000000" font-family="sans-serif" font-size="12" lengthAdjust="spacingAndGlyphs" textLength="36" x="937.25" y="86.0508">Result</text><line style="stroke: #A80036; stroke-width: 1.5;" x1="830.5" x2="1047.5" y1="97.1406" y2="97.1406"/><ellipse cx="840.5" cy="109.5586" fill="none" rx="3" ry="3" style="stroke: #038048; stroke-width: 1.0;"/><text fill="#000000" font-family="sans-serif" font-size="11" lengthAdjust="spacingAndGlyphs" textLength="47" x="849.5" y="112.5596">err:Error[]</text><ellipse cx="840.5" cy="123.3945" fill="none" rx="3" ry="3" style="stroke: #038048; stroke-width: 1.0;"/><text fill="#000000" font-family="sans-serif" font-size="11" lengthAdjust="spacingAndGlyphs" textLength="193" x="849.5" y="126.3955">user:String, for checking on most pages</text><ellipse cx="840.5" cy="137.2305" fill="none" rx="3" ry="3" style="stroke: #038048; stroke-width: 1.0;"/><text fill="#000000" font-family="sans-serif" font-size="11" lengthAdjust="spacingAndGlyphs" textLength="58" x="849.5" y="140.2314">otherEntries</text><line style="stroke: #A80036; stroke-width: 1.5;" x1="830.5" x2="1047.5" y1="146.6484" y2="146.6484"/><path d="M199.701,879.7076 C191.001,889.7416 182.261,899.9046 174,909.6406 C155.644,931.2736 135.797,955.2626 118.409,976.4836 " fill="none" style="stroke: #A80036; stroke-width: 1.0;"/><polygon fill="#A80036" points="115.192,980.4126,123.9883,975.9826,118.3594,976.5438,117.7982,970.9148,115.192,980.4126" style="stroke: #A80036; stroke-width: 1.0;"/><text fill="#000000" font-family="sans-serif" font-size="13" lengthAdjust="spacingAndGlyphs" textLength="125" x="175" y="924.1357">at any times contains</text><text fill="#000000" font-family="sans-serif" font-size="13" lengthAdjust="spacingAndGlyphs" textLength="20" x="99.7007" y="969.6255">0..*</text><path d="M627,502.6606 C627,529.1306 627,555.2706 627,575.2106 " fill="none" style="stroke: #A80036; stroke-width: 1.0;"/><polygon fill="#A80036" points="627,580.4006,631,571.4006,627,575.4006,623,571.4006,627,580.4006" style="stroke: #A80036; stroke-width: 1.0;"/><text fill="#000000" font-family="sans-serif" font-size="13" lengthAdjust="spacingAndGlyphs" textLength="21" x="628" y="547.1357">has</text><text fill="#000000" font-family="sans-serif" font-size="13" lengthAdjust="spacingAndGlyphs" textLength="20" x="604.9375" y="569.8557">0..*</text><path d="M727.571,651.8386 C738.972,658.0516 750.051,664.9886 760,672.6406 C790.419,696.0356 817.493,730.1046 836.24,756.9936 " fill="none" style="stroke: #A80036; stroke-width: 1.0;"/><polygon fill="none" points="724.177,657.9666,709.509,642.6736,730.512,645.4816,724.177,657.9666" style="stroke: #A80036; stroke-width: 1.0;"/><path d="M678.59,657.9206 C682.443,662.6346 685.992,667.5676 689,672.6406 C751.416,777.9256 776.004,923.3536 784.725,994.0996 " fill="none" style="stroke: #A80036; stroke-width: 1.0;"/><polygon fill="none" points="673.092,662.2846,664.665,642.8426,683.377,652.7866,673.092,662.2846" style="stroke: #A80036; stroke-width: 1.0;"/><path d="M633.605,662.7296 C645.684,753.4056 672.537,950.7586 699,1116.6406 C703.043,1141.9846 707.757,1169.4656 712.194,1194.5756 " fill="none" style="stroke: #A80036; stroke-width: 1.0;"/><polygon fill="none" points="626.652,663.5476,630.959,642.8006,640.53,661.7056,626.652,663.5476" style="stroke: #A80036; stroke-width: 1.0;"/><path d="M612.516,662.2156 C602.886,699.5256 592,752.1056 592,799.1406 C592,799.1406 592,799.1406 592,1283.1406 C592,1338.4876 603.398,1399.4966 615.086,1447.5066 " fill="none" style="stroke: #A80036; stroke-width: 1.0;"/><polygon fill="none" points="605.822,660.1566,617.804,642.6806,619.335,663.8146,605.822,660.1566" style="stroke: #A80036; stroke-width: 1.0;"/><path d="M849.77,843.1536 C836.841,884.2136 817.195,946.6016 803.764,989.2546 " fill="none" style="stroke: #A80036; stroke-width: 1.0; stroke-dasharray: 7.0,7.0;"/><polygon fill="#A80036" points="802.24,994.0956,808.7576,986.7118,803.7412,989.3263,801.1267,984.3099,802.24,994.0956" style="stroke: #A80036; stroke-width: 1.0;"/><text fill="#000000" font-family="sans-serif" font-size="13" lengthAdjust="spacingAndGlyphs" textLength="97" x="830" y="924.1357">prepares data for</text><path d="M778.444,1080.1906 C770.889,1110.2866 760.427,1151.9626 750.989,1189.5626 " fill="none" style="stroke: #A80036; stroke-width: 1.0; stroke-dasharray: 7.0,7.0;"/><polygon fill="#A80036" points="749.724,1194.6016,755.7944,1186.8459,750.941,1189.752,748.035,1184.8987,749.724,1194.6016" style="stroke: #A80036; stroke-width: 1.0;"/><text fill="#000000" font-family="sans-serif" font-size="13" lengthAdjust="spacingAndGlyphs" textLength="97" x="762" y="1161.1357">prepares data for</text><path d="M697.592,1369.8716 C689.348,1393.3856 680.399,1418.9116 672.067,1442.6776 " fill="none" style="stroke: #A80036; stroke-width: 1.0; stroke-dasharray: 7.0,7.0;"/><polygon fill="#A80036" points="670.409,1447.4056,677.1614,1440.2359,672.0632,1442.6872,669.6119,1437.5891,670.409,1447.4056" style="stroke: #A80036; stroke-width: 1.0;"/><text fill="#000000" font-family="sans-serif" font-size="13" lengthAdjust="spacingAndGlyphs" textLength="97" x="688" y="1414.1357">prepares data for</text><path d="M488.952,638.1356 C459.507,646.6776 429.365,657.9226 403,672.6406 C381.964,684.3846 361.709,700.1646 343.596,716.5916 " fill="none" style="stroke: #A80036; stroke-width: 1.0;"/><polygon fill="#A80036" points="339.523,720.3276,348.8584,717.189,343.2067,716.9467,343.4489,711.2951,339.523,720.3276" style="stroke: #A80036; stroke-width: 1.0;"/><text fill="#000000" font-family="sans-serif" font-size="13" lengthAdjust="spacingAndGlyphs" textLength="28" x="404" y="687.1357">uses</text><text fill="#000000" font-family="sans-serif" font-size="13" lengthAdjust="spacingAndGlyphs" textLength="7" x="338.7017" y="709.7581">1</text><path d="M627,189.7406 C627,212.3806 627,237.6406 627,262.2606 " fill="none" style="stroke: #A80036; stroke-width: 1.0;"/><polygon fill="#A80036" points="627,267.5006,631,258.5006,627,262.5006,623,258.5006,627,267.5006" style="stroke: #A80036; stroke-width: 1.0;"/><text fill="#000000" font-family="sans-serif" font-size="13" lengthAdjust="spacingAndGlyphs" textLength="28" x="628" y="234.1357">uses</text><text fill="#000000" font-family="sans-serif" font-size="13" lengthAdjust="spacingAndGlyphs" textLength="7" x="619.7758" y="256.9651">1</text><path d="M297.422,879.7186 C305.928,903.2356 315.282,929.0976 323.893,952.9036 " fill="none" style="stroke: #A80036; stroke-width: 1.0; stroke-dasharray: 7.0,7.0;"/><polygon fill="#A80036" points="325.605,957.6366,326.3072,947.8128,323.9052,952.9344,318.7837,950.5325,325.605,957.6366" style="stroke: #A80036; stroke-width: 1.0;"/><text fill="#000000" font-family="sans-serif" font-size="13" lengthAdjust="spacingAndGlyphs" textLength="78" x="316" y="924.1357">uses some of</text><path d="M574.74,642.8376 C545.388,661.9916 509.956,689.0796 486,720.6406 C426.073,799.5936 441.852,836.4526 403,927.6406 C399.514,935.8226 395.815,944.3196 392.074,952.7946 " fill="none" style="stroke: #A80036; stroke-width: 1.0; stroke-dasharray: 7.0,7.0;"/><polygon fill="#A80036" points="389.992,957.4986,397.2918,950.887,392.0153,952.9263,389.976,947.6498,389.992,957.4986" style="stroke: #A80036; stroke-width: 1.0;"/><text fill="#000000" font-family="sans-serif" font-size="13" lengthAdjust="spacingAndGlyphs" textLength="78" x="487" y="805.6357">uses some of</text></g></svg>