<?xml version="1.0" encoding="UTF-8" standalone="yes"?><svg xmlns="http://www.w3.org/2000/svg" xmlns:xlink="http://www.w3.org/1999/xlink" height="842px" style="width:849px;height:842px;" version="1.1" viewBox="0 0 849 842" width="849px"><defs><filter height="300%" id="f1" width="300%" x="-1" y="-1"><feGaussianBlur result="blurOut" stdDeviation="2.0"/><feColorMatrix in="blurOut" result="blurOut2" type="matrix" values="0 0 0 0 0 0 0 0 0 0 0 0 0 0 0 0 0 0 .4 0"/><feOffset dx="4.0" dy="4.0" in="blurOut2" result="blurOut3"/><feBlend in="SourceGraphic" in2="blurOut3" mode="normal"/></filter></defs><g><text fill="#000000" font-family="sans-serif" font-size="18" lengthAdjust="spacingAndGlyphs" textLength="456" x="201.5" y="18.6855">Interface Diagram. Doesn't have to represent actual truth!</text><rect fill="#FEFECE" filter="url(#f1)" height="103.3438" style="stroke: #A80036; stroke-width: 1.5;" width="239" x="81" y="539.6406"/><ellipse cx="126.75" cy="555.6406" fill="#B4A7E5" rx="11" ry="11" style="stroke: #A80036; stroke-width: 1.0;"/><path d="M127.7031,552.2813 L127.7031,558.9375 L129.4219,558.9375 Q130.0313,558.9375 130.2969,559.1719 Q130.5625,559.4063 130.5625,559.7969 Q130.5625,560.1719 130.2969,560.4063 Q130.0313,560.6406 129.4219,560.6406 L124.2813,560.6406 Q123.6719,560.6406 123.4063,560.4063 Q123.1406,560.1719 123.1406,559.7813 Q123.1406,559.4063 123.4063,559.1719 Q123.6719,558.9375 124.2813,558.9375 L126,558.9375 L126,552.2813 L124.2813,552.2813 Q123.6719,552.2813 123.4063,552.0469 Q123.1406,551.8125 123.1406,551.4219 Q123.1406,551.0469 123.4063,550.8125 Q123.6719,550.5781 124.2813,550.5781 L129.4219,550.5781 Q130.0313,550.5781 130.2969,550.8125 Q130.5625,551.0469 130.5625,551.4219 Q130.5625,551.8125 130.2969,552.0469 Q130.0313,552.2813 129.4219,552.2813 L127.7031,552.2813 Z "/><text fill="#000000" font-family="sans-serif" font-size="12" font-style="italic" lengthAdjust="spacingAndGlyphs" textLength="139" x="147.25" y="560.5508">RequestRunnerSingleton</text><line style="stroke: #A80036; stroke-width: 1.5;" x1="82" x2="319" y1="571.6406" y2="571.6406"/><line style="stroke: #A80036; stroke-width: 1.5;" x1="82" x2="319" y1="579.6406" y2="579.6406"/><ellipse cx="92" cy="592.0586" fill="#84BE84" rx="3" ry="3" style="stroke: #038048; stroke-width: 1.0;"/><text fill="#000000" font-family="sans-serif" font-size="11" lengthAdjust="spacingAndGlyphs" textLength="193" x="101" y="595.0596">RequestRunnerSingleton(delay:Number)</text><ellipse cx="92" cy="605.8945" fill="#84BE84" rx="3" ry="3" style="stroke: #038048; stroke-width: 1.0;"/><text fill="#000000" font-family="sans-serif" font-size="11" lengthAdjust="spacingAndGlyphs" textLength="160" x="101" y="608.8955">void changeDelay(delay:Number)</text><ellipse cx="92" cy="619.7305" fill="#84BE84" rx="3" ry="3" style="stroke: #038048; stroke-width: 1.0;"/><text fill="#000000" font-family="sans-serif" font-size="11" lengthAdjust="spacingAndGlyphs" textLength="92" x="101" y="622.7314">void emptyQueue()</text><ellipse cx="92" cy="633.5664" fill="#84BE84" rx="3" ry="3" style="stroke: #038048; stroke-width: 1.0;"/><text fill="#000000" font-family="sans-serif" font-size="11" lengthAdjust="spacingAndGlyphs" textLength="213" x="101" y="636.5674">void addRequestToQueue(request:Request)</text><rect fill="#FEFECE" filter="url(#f1)" height="113.1797" style="stroke: #A80036; stroke-width: 1.5;" width="128" x="136.5" y="720.6406"/><ellipse cx="173.55" cy="736.6406" fill="#ADD1B2" rx="11" ry="11" style="stroke: #A80036; stroke-width: 1.0;"/><path d="M176.3156,732.5156 Q176.4719,732.2969 176.6594,732.1875 Q176.8469,732.0781 177.0656,732.0781 Q177.4406,732.0781 177.675,732.3359 Q177.9094,732.5938 177.9094,733.2031 L177.9094,734.6563 Q177.9094,735.2656 177.675,735.5313 Q177.4406,735.7969 177.0656,735.7969 Q176.7219,735.7969 176.5188,735.5938 Q176.3156,735.4063 176.2063,734.8906 Q176.1594,734.5313 175.9719,734.3438 Q175.6438,733.9688 175.0344,733.75 Q174.425,733.5313 173.8,733.5313 Q173.0344,733.5313 172.4016,733.8594 Q171.7688,734.1875 171.2766,734.9375 Q170.7844,735.6875 170.7844,736.7188 L170.7844,737.8125 Q170.7844,739.0469 171.675,739.8672 Q172.5656,740.6875 174.1594,740.6875 Q175.0969,740.6875 175.7531,740.4375 Q176.1438,740.2813 176.5656,739.8438 Q176.8313,739.5781 176.9797,739.5 Q177.1281,739.4219 177.3313,739.4219 Q177.6594,739.4219 177.9172,739.6797 Q178.175,739.9375 178.175,740.2813 Q178.175,740.625 177.8313,741.0313 Q177.3313,741.6094 176.5344,741.9375 Q175.4563,742.3906 174.1594,742.3906 Q172.6438,742.3906 171.4406,741.7656 Q170.4563,741.2656 169.7688,740.1953 Q169.0813,739.125 169.0813,737.8438 L169.0813,736.6875 Q169.0813,735.3594 169.6984,734.2109 Q170.3156,733.0625 171.4094,732.4453 Q172.5031,731.8281 173.7375,731.8281 Q174.4719,731.8281 175.1203,731.9922 Q175.7688,732.1563 176.3156,732.5156 Z "/><text fill="#000000" font-family="sans-serif" font-size="12" lengthAdjust="spacingAndGlyphs" textLength="47" x="192.45" y="741.5508">Request</text><line style="stroke: #A80036; stroke-width: 1.5;" x1="137.5" x2="263.5" y1="752.6406" y2="752.6406"/><ellipse cx="147.5" cy="782.8945" fill="none" rx="3" ry="3" style="stroke: #038048; stroke-width: 1.0;"/><text fill="#000000" font-family="sans-serif" font-size="11" lengthAdjust="spacingAndGlyphs" textLength="41" x="156.5" y="785.8955">fn:String</text><ellipse cx="147.5" cy="796.7305" fill="none" rx="3" ry="3" style="stroke: #038048; stroke-width: 1.0;"/><text fill="#000000" font-family="sans-serif" font-size="11" lengthAdjust="spacingAndGlyphs" textLength="43" x="156.5" y="799.7314">url:String</text><ellipse cx="147.5" cy="810.5664" fill="none" rx="3" ry="3" style="stroke: #038048; stroke-width: 1.0;"/><text fill="#000000" font-family="sans-serif" font-size="11" lengthAdjust="spacingAndGlyphs" textLength="80" x="156.5" y="813.5674">handler:Function</text><ellipse cx="147.5" cy="824.4023" fill="none" rx="3" ry="3" style="stroke: #038048; stroke-width: 1.0;"/><text fill="#000000" font-family="sans-serif" font-size="11" lengthAdjust="spacingAndGlyphs" textLength="102" x="156.5" y="827.4033">infoForHandler:String</text><line style="stroke: #A80036; stroke-width: 1.0; stroke-dasharray: 1.0,2.0;" x1="137.5" x2="150" y1="767.5586" y2="767.5586"/><text fill="#000000" font-family="sans-serif" font-size="11" lengthAdjust="spacingAndGlyphs" textLength="101" x="150" y="771.5596">Either 'GET' or 'POST'</text><line style="stroke: #A80036; stroke-width: 1.0; stroke-dasharray: 1.0,2.0;" x1="251" x2="263.5" y1="767.5586" y2="767.5586"/><rect fill="#FEFECE" filter="url(#f1)" height="85.5078" style="stroke: #A80036; stroke-width: 1.5;" width="389" x="6" y="170.6406"/><ellipse cx="158.25" cy="186.6406" fill="#B4A7E5" rx="11" ry="11" style="stroke: #A80036; stroke-width: 1.0;"/><path d="M159.2031,183.2813 L159.2031,189.9375 L160.9219,189.9375 Q161.5313,189.9375 161.7969,190.1719 Q162.0625,190.4063 162.0625,190.7969 Q162.0625,191.1719 161.7969,191.4063 Q161.5313,191.6406 160.9219,191.6406 L155.7813,191.6406 Q155.1719,191.6406 154.9063,191.4063 Q154.6406,191.1719 154.6406,190.7813 Q154.6406,190.4063 154.9063,190.1719 Q155.1719,189.9375 155.7813,189.9375 L157.5,189.9375 L157.5,183.2813 L155.7813,183.2813 Q155.1719,183.2813 154.9063,183.0469 Q154.6406,182.8125 154.6406,182.4219 Q154.6406,182.0469 154.9063,181.8125 Q155.1719,181.5781 155.7813,181.5781 L160.9219,181.5781 Q161.5313,181.5781 161.7969,181.8125 Q162.0625,182.0469 162.0625,182.4219 Q162.0625,182.8125 161.7969,183.0469 Q161.5313,183.2813 160.9219,183.2813 L159.2031,183.2813 Z "/><text fill="#000000" font-family="sans-serif" font-size="12" font-style="italic" lengthAdjust="spacingAndGlyphs" textLength="76" x="178.75" y="191.5508">PhaseRunner</text><line style="stroke: #A80036; stroke-width: 1.5;" x1="7" x2="394" y1="202.6406" y2="202.6406"/><ellipse cx="17" cy="215.0586" fill="#84BE84" rx="3" ry="3" style="stroke: #038048; stroke-width: 1.0;"/><text fill="#000000" font-family="sans-serif" font-size="11" lengthAdjust="spacingAndGlyphs" textLength="363" x="26" y="218.0596">PhaseRunner(phases:Phase[], someInput:Result, callback:Function(Result))</text><ellipse cx="17" cy="246.7305" fill="#84BE84" rx="3" ry="3" style="stroke: #038048; stroke-width: 1.0;"/><text fill="#000000" font-family="sans-serif" font-size="11" lengthAdjust="spacingAndGlyphs" textLength="217" x="26" y="249.7314">void stopEarly(newCallback:Function(result))</text><line style="stroke: #A80036; stroke-width: 1.0; stroke-dasharray: 1.0,2.0;" x1="7" x2="96" y1="231.3945" y2="231.3945"/><text fill="#000000" font-family="sans-serif" font-size="11" lengthAdjust="spacingAndGlyphs" textLength="209" x="96" y="235.3955">Updates callback and calls it when stopped</text><line style="stroke: #A80036; stroke-width: 1.0; stroke-dasharray: 1.0,2.0;" x1="305" x2="394" y1="231.3945" y2="231.3945"/><rect fill="#FEFECE" filter="url(#f1)" height="127.0156" style="stroke: #A80036; stroke-width: 1.5;" width="276" x="62.5" y="334.6406"/><ellipse cx="178.75" cy="350.6406" fill="#B4A7E5" rx="11" ry="11" style="stroke: #A80036; stroke-width: 1.0;"/><path d="M179.7031,347.2813 L179.7031,353.9375 L181.4219,353.9375 Q182.0313,353.9375 182.2969,354.1719 Q182.5625,354.4063 182.5625,354.7969 Q182.5625,355.1719 182.2969,355.4063 Q182.0313,355.6406 181.4219,355.6406 L176.2813,355.6406 Q175.6719,355.6406 175.4063,355.4063 Q175.1406,355.1719 175.1406,354.7813 Q175.1406,354.4063 175.4063,354.1719 Q175.6719,353.9375 176.2813,353.9375 L178,353.9375 L178,347.2813 L176.2813,347.2813 Q175.6719,347.2813 175.4063,347.0469 Q175.1406,346.8125 175.1406,346.4219 Q175.1406,346.0469 175.4063,345.8125 Q175.6719,345.5781 176.2813,345.5781 L181.4219,345.5781 Q182.0313,345.5781 182.2969,345.8125 Q182.5625,346.0469 182.5625,346.4219 Q182.5625,346.8125 182.2969,347.0469 Q182.0313,347.2813 181.4219,347.2813 L179.7031,347.2813 Z "/><text fill="#000000" font-family="sans-serif" font-size="12" font-style="italic" lengthAdjust="spacingAndGlyphs" textLength="35" x="199.25" y="355.5508">Phase</text><line style="stroke: #A80036; stroke-width: 1.5;" x1="63.5" x2="337.5" y1="366.6406" y2="366.6406"/><line style="stroke: #A80036; stroke-width: 1.0; stroke-dasharray: 1.0,2.0;" x1="63.5" x2="73.5" y1="381.5586" y2="381.5586"/><text fill="#000000" font-family="sans-serif" font-size="11" lengthAdjust="spacingAndGlyphs" textLength="254" x="73.5" y="385.5596">Every Phase is a function NOT a class. i.e., example:</text><line style="stroke: #A80036; stroke-width: 1.0; stroke-dasharray: 1.0,2.0;" x1="327.5" x2="337.5" y1="381.5586" y2="381.5586"/><line style="stroke: #A80036; stroke-width: 1.0; stroke-dasharray: 1.0,2.0;" x1="63.5" x2="115.5" y1="402.3125" y2="402.3125"/><text fill="#000000" font-family="sans-serif" font-size="11" lengthAdjust="spacingAndGlyphs" textLength="170" x="115.5" y="406.3135">new PhaseRunner([logout, login,..])</text><line style="stroke: #A80036; stroke-width: 1.0; stroke-dasharray: 1.0,2.0;" x1="285.5" x2="337.5" y1="402.3125" y2="402.3125"/><text fill="#000000" font-family="sans-serif" font-size="11" lengthAdjust="spacingAndGlyphs" textLength="43" x="82.5" y="441.4033">.But don.</text><ellipse cx="73.5" cy="452.2383" fill="#84BE84" rx="3" ry="3" style="stroke: #038048; stroke-width: 1.0;"/><text fill="#000000" font-family="sans-serif" font-size="11" lengthAdjust="spacingAndGlyphs" textLength="250" x="82.5" y="455.2393">Phase(prevResult:Result, callback:Function(Result))</text><line style="stroke: #A80036; stroke-width: 1.0; stroke-dasharray: 1.0,2.0;" x1="63.5" x2="115.5" y1="423.0664" y2="423.0664"/><text fill="#000000" font-family="sans-serif" font-size="11" lengthAdjust="spacingAndGlyphs" textLength="170" x="115.5" y="427.0674">i.e., you dont create a phase object</text><line style="stroke: #A80036; stroke-width: 1.0; stroke-dasharray: 1.0,2.0;" x1="285.5" x2="337.5" y1="423.0664" y2="423.0664"/><rect fill="#FEFECE" filter="url(#f1)" height="61.8359" style="stroke: #A80036; stroke-width: 1.5;" width="335" x="33" y="30.6406"/><ellipse cx="148.75" cy="46.6406" fill="#B4A7E5" rx="11" ry="11" style="stroke: #A80036; stroke-width: 1.0;"/><path d="M149.7031,43.2813 L149.7031,49.9375 L151.4219,49.9375 Q152.0313,49.9375 152.2969,50.1719 Q152.5625,50.4063 152.5625,50.7969 Q152.5625,51.1719 152.2969,51.4063 Q152.0313,51.6406 151.4219,51.6406 L146.2813,51.6406 Q145.6719,51.6406 145.4063,51.4063 Q145.1406,51.1719 145.1406,50.7813 Q145.1406,50.4063 145.4063,50.1719 Q145.6719,49.9375 146.2813,49.9375 L148,49.9375 L148,43.2813 L146.2813,43.2813 Q145.6719,43.2813 145.4063,43.0469 Q145.1406,42.8125 145.1406,42.4219 Q145.1406,42.0469 145.4063,41.8125 Q145.6719,41.5781 146.2813,41.5781 L151.4219,41.5781 Q152.0313,41.5781 152.2969,41.8125 Q152.5625,42.0469 152.5625,42.4219 Q152.5625,42.8125 152.2969,43.0469 Q152.0313,43.2813 151.4219,43.2813 L149.7031,43.2813 Z "/><text fill="#000000" font-family="sans-serif" font-size="12" font-style="italic" lengthAdjust="spacingAndGlyphs" textLength="95" x="169.25" y="51.5508">ScraperSingleton</text><line style="stroke: #A80036; stroke-width: 1.5;" x1="34" x2="367" y1="62.6406" y2="62.6406"/><line style="stroke: #A80036; stroke-width: 1.5;" x1="34" x2="367" y1="70.6406" y2="70.6406"/><ellipse cx="44" cy="83.0586" fill="#84BE84" rx="3" ry="3" style="stroke: #038048; stroke-width: 1.0;"/><text fill="#000000" font-family="sans-serif" font-size="11" lengthAdjust="spacingAndGlyphs" textLength="309" x="53" y="86.0596">start(user, pass, callback, callbackAfterLastStopped/*optional*/)</text><polygon fill="#FBFB77" filter="url(#f1)" points="408.5,360.6406,408.5,436.0469,840.5,436.0469,840.5,370.6406,830.5,360.6406,408.5,360.6406" style="stroke: #A80036; stroke-width: 1.0;"/><polygon fill="#FBFB77" points="408.5,360.6406,408.5,394.1406,338.797,398.1406,408.5,402.1406,408.5,436.0469,840.5,436.0469,840.5,370.6406,830.5,360.6406,408.5,360.6406" style="stroke: #A80036; stroke-width: 1.0;"/><line style="stroke: #A80036; stroke-width: 1.0;" x1="830.5" x2="830.5" y1="360.6406" y2="370.6406"/><line style="stroke: #A80036; stroke-width: 1.0;" x1="840.5" x2="830.5" y1="370.6406" y2="370.6406"/><text fill="#000000" font-family="sans-serif" font-size="13" lengthAdjust="spacingAndGlyphs" textLength="272" x="414.5" y="379.1357">Every Phase is actually a function, not a class.</text><text fill="#000000" font-family="sans-serif" font-size="13" lengthAdjust="spacingAndGlyphs" textLength="358" x="414.5" y="395.4873">So, for example, to create a PhaseRunner with some Phases:</text><text fill="#000000" font-family="sans-serif" font-size="13" lengthAdjust="spacingAndGlyphs" textLength="411" x="414.5" y="411.8389">new PhaseRunner([logout, login..]) where `logout` and `login` are Phase</text><text fill="#000000" font-family="sans-serif" font-size="13" lengthAdjust="spacingAndGlyphs" textLength="288" x="414.5" y="428.1904">names NOT variables that hold instances of them.</text><rect fill="#FEFECE" filter="url(#f1)" height="61.8359" style="stroke: #A80036; stroke-width: 1.5;" width="77" x="403" y="30.6406"/><ellipse cx="422.5" cy="46.6406" fill="#B4A7E5" rx="11" ry="11" style="stroke: #A80036; stroke-width: 1.0;"/><path d="M423.4531,43.2813 L423.4531,49.9375 L425.1719,49.9375 Q425.7813,49.9375 426.0469,50.1719 Q426.3125,50.4063 426.3125,50.7969 Q426.3125,51.1719 426.0469,51.4063 Q425.7813,51.6406 425.1719,51.6406 L420.0313,51.6406 Q419.4219,51.6406 419.1563,51.4063 Q418.8906,51.1719 418.8906,50.7813 Q418.8906,50.4063 419.1563,50.1719 Q419.4219,49.9375 420.0313,49.9375 L421.75,49.9375 L421.75,43.2813 L420.0313,43.2813 Q419.4219,43.2813 419.1563,43.0469 Q418.8906,42.8125 418.8906,42.4219 Q418.8906,42.0469 419.1563,41.8125 Q419.4219,41.5781 420.0313,41.5781 L425.1719,41.5781 Q425.7813,41.5781 426.0469,41.8125 Q426.3125,42.0469 426.3125,42.4219 Q426.3125,42.8125 426.0469,43.0469 Q425.7813,43.2813 425.1719,43.2813 L423.4531,43.2813 Z "/><text fill="#000000" font-family="sans-serif" font-size="12" font-style="italic" lengthAdjust="spacingAndGlyphs" textLength="35" x="437.5" y="51.5508">Result</text><line style="stroke: #A80036; stroke-width: 1.5;" x1="404" x2="479" y1="62.6406" y2="62.6406"/><ellipse cx="414" cy="75.0586" fill="none" rx="3" ry="3" style="stroke: #038048; stroke-width: 1.0;"/><text fill="#000000" font-family="sans-serif" font-size="11" lengthAdjust="spacingAndGlyphs" textLength="51" x="423" y="78.0596">err:String[]</text><line style="stroke: #A80036; stroke-width: 1.5;" x1="404" x2="479" y1="84.4766" y2="84.4766"/><path d="M200.5,642.9066 C200.5,665.2566 200.5,691.6996 200.5,715.1136 " fill="none" style="stroke: #A80036; stroke-width: 1.0;"/><polygon fill="#A80036" points="200.5,720.3706,204.5,711.3706,200.5,715.3706,196.5,711.3706,200.5,720.3706" style="stroke: #A80036; stroke-width: 1.0;"/><text fill="#000000" font-family="sans-serif" font-size="13" lengthAdjust="spacingAndGlyphs" textLength="125" x="201.5" y="687.1357">at any times contains</text><text fill="#000000" font-family="sans-serif" font-size="13" lengthAdjust="spacingAndGlyphs" textLength="20" x="179.2813" y="709.9824">0..*</text><path d="M200.5,256.9686 C200.5,278.4976 200.5,305.1846 200.5,329.4766 " fill="none" style="stroke: #A80036; stroke-width: 1.0;"/><polygon fill="#A80036" points="200.5,334.6216,204.5,325.6216,200.5,329.6216,196.5,325.6216,200.5,334.6216" style="stroke: #A80036; stroke-width: 1.0;"/><text fill="#000000" font-family="sans-serif" font-size="13" lengthAdjust="spacingAndGlyphs" textLength="21" x="201.5" y="301.1357">has</text><text fill="#000000" font-family="sans-serif" font-size="13" lengthAdjust="spacingAndGlyphs" textLength="20" x="179.3438" y="323.8668">0..*</text><path d="M200.5,461.6816 C200.5,485.1476 200.5,511.6396 200.5,534.4436 " fill="none" style="stroke: #A80036; stroke-width: 1.0;"/><polygon fill="#A80036" points="200.5,539.5516,204.5,530.5516,200.5,534.5516,196.5,530.5516,200.5,539.5516" style="stroke: #A80036; stroke-width: 1.0;"/><text fill="#000000" font-family="sans-serif" font-size="13" lengthAdjust="spacingAndGlyphs" textLength="28" x="201.5" y="506.1357">uses</text><text fill="#000000" font-family="sans-serif" font-size="13" lengthAdjust="spacingAndGlyphs" textLength="7" x="193.0078" y="528.6676">1</text><path d="M200.5,92.9956 C200.5,113.6876 200.5,141.5096 200.5,165.1166 " fill="none" style="stroke: #A80036; stroke-width: 1.0;"/><polygon fill="#A80036" points="200.5,170.3956,204.5,161.3956,200.5,165.3956,196.5,161.3956,200.5,170.3956" style="stroke: #A80036; stroke-width: 1.0;"/><text fill="#000000" font-family="sans-serif" font-size="13" lengthAdjust="spacingAndGlyphs" textLength="28" x="201.5" y="137.1357">uses</text><text fill="#000000" font-family="sans-serif" font-size="13" lengthAdjust="spacingAndGlyphs" textLength="7" x="192.9422" y="159.7908">1</text></g></svg>