<?xml version="1.0" encoding="UTF-8" standalone="yes"?><svg xmlns="http://www.w3.org/2000/svg" xmlns:xlink="http://www.w3.org/1999/xlink" height="484px" style="width:790px;height:484px;" version="1.1" viewBox="0 0 790 484" width="790px"><defs><filter height="300%" id="f1" width="300%" x="-1" y="-1"><feGaussianBlur result="blurOut" stdDeviation="2.0"/><feColorMatrix in="blurOut" result="blurOut2" type="matrix" values="0 0 0 0 0 0 0 0 0 0 0 0 0 0 0 0 0 0 .4 0"/><feOffset dx="4.0" dy="4.0" in="blurOut2" result="blurOut3"/><feBlend in="SourceGraphic" in2="blurOut3" mode="normal"/></filter></defs><g><text fill="#000000" font-family="sans-serif" font-size="18" lengthAdjust="spacingAndGlyphs" textLength="456" x="171.5" y="18.6855">Interface Diagram. Doesn't have to represent actual truth!</text><rect fill="#FEFECE" filter="url(#f1)" height="103.3438" style="stroke: #A80036; stroke-width: 1.5;" width="239" x="6" y="30.6406"/><ellipse cx="51.75" cy="46.6406" fill="#B4A7E5" rx="11" ry="11" style="stroke: #A80036; stroke-width: 1.0;"/><path d="M52.7031,43.2813 L52.7031,49.9375 L54.4219,49.9375 Q55.0313,49.9375 55.2969,50.1719 Q55.5625,50.4063 55.5625,50.7969 Q55.5625,51.1719 55.2969,51.4063 Q55.0313,51.6406 54.4219,51.6406 L49.2813,51.6406 Q48.6719,51.6406 48.4063,51.4063 Q48.1406,51.1719 48.1406,50.7813 Q48.1406,50.4063 48.4063,50.1719 Q48.6719,49.9375 49.2813,49.9375 L51,49.9375 L51,43.2813 L49.2813,43.2813 Q48.6719,43.2813 48.4063,43.0469 Q48.1406,42.8125 48.1406,42.4219 Q48.1406,42.0469 48.4063,41.8125 Q48.6719,41.5781 49.2813,41.5781 L54.4219,41.5781 Q55.0313,41.5781 55.2969,41.8125 Q55.5625,42.0469 55.5625,42.4219 Q55.5625,42.8125 55.2969,43.0469 Q55.0313,43.2813 54.4219,43.2813 L52.7031,43.2813 Z "/><text fill="#000000" font-family="sans-serif" font-size="12" font-style="italic" lengthAdjust="spacingAndGlyphs" textLength="139" x="72.25" y="51.5508">RequestRunnerSingleton</text><line style="stroke: #A80036; stroke-width: 1.5;" x1="7" x2="244" y1="62.6406" y2="62.6406"/><line style="stroke: #A80036; stroke-width: 1.5;" x1="7" x2="244" y1="70.6406" y2="70.6406"/><ellipse cx="17" cy="83.0586" fill="#84BE84" rx="3" ry="3" style="stroke: #038048; stroke-width: 1.0;"/><text fill="#000000" font-family="sans-serif" font-size="11" lengthAdjust="spacingAndGlyphs" textLength="193" x="26" y="86.0596">RequestRunnerSingleton(delay:Number)</text><ellipse cx="17" cy="96.8945" fill="#84BE84" rx="3" ry="3" style="stroke: #038048; stroke-width: 1.0;"/><text fill="#000000" font-family="sans-serif" font-size="11" lengthAdjust="spacingAndGlyphs" textLength="160" x="26" y="99.8955">void changeDelay(delay:Number)</text><ellipse cx="17" cy="110.7305" fill="#84BE84" rx="3" ry="3" style="stroke: #038048; stroke-width: 1.0;"/><text fill="#000000" font-family="sans-serif" font-size="11" lengthAdjust="spacingAndGlyphs" textLength="92" x="26" y="113.7314">void emptyQueue()</text><ellipse cx="17" cy="124.5664" fill="#84BE84" rx="3" ry="3" style="stroke: #038048; stroke-width: 1.0;"/><text fill="#000000" font-family="sans-serif" font-size="11" lengthAdjust="spacingAndGlyphs" textLength="213" x="26" y="127.5674">void addRequestToQueue(request:Request)</text><rect fill="#FEFECE" filter="url(#f1)" height="113.1797" style="stroke: #A80036; stroke-width: 1.5;" width="128" x="61.5" y="218.6406"/><ellipse cx="98.55" cy="234.6406" fill="#ADD1B2" rx="11" ry="11" style="stroke: #A80036; stroke-width: 1.0;"/><path d="M101.3156,230.5156 Q101.4719,230.2969 101.6594,230.1875 Q101.8469,230.0781 102.0656,230.0781 Q102.4406,230.0781 102.675,230.3359 Q102.9094,230.5938 102.9094,231.2031 L102.9094,232.6563 Q102.9094,233.2656 102.675,233.5313 Q102.4406,233.7969 102.0656,233.7969 Q101.7219,233.7969 101.5188,233.5938 Q101.3156,233.4063 101.2063,232.8906 Q101.1594,232.5313 100.9719,232.3438 Q100.6438,231.9688 100.0344,231.75 Q99.425,231.5313 98.8,231.5313 Q98.0344,231.5313 97.4016,231.8594 Q96.7688,232.1875 96.2766,232.9375 Q95.7844,233.6875 95.7844,234.7188 L95.7844,235.8125 Q95.7844,237.0469 96.675,237.8672 Q97.5656,238.6875 99.1594,238.6875 Q100.0969,238.6875 100.7531,238.4375 Q101.1438,238.2813 101.5656,237.8438 Q101.8313,237.5781 101.9797,237.5 Q102.1281,237.4219 102.3313,237.4219 Q102.6594,237.4219 102.9172,237.6797 Q103.175,237.9375 103.175,238.2813 Q103.175,238.625 102.8313,239.0313 Q102.3313,239.6094 101.5344,239.9375 Q100.4563,240.3906 99.1594,240.3906 Q97.6438,240.3906 96.4406,239.7656 Q95.4563,239.2656 94.7688,238.1953 Q94.0813,237.125 94.0813,235.8438 L94.0813,234.6875 Q94.0813,233.3594 94.6984,232.2109 Q95.3156,231.0625 96.4094,230.4453 Q97.5031,229.8281 98.7375,229.8281 Q99.4719,229.8281 100.1203,229.9922 Q100.7688,230.1563 101.3156,230.5156 Z "/><text fill="#000000" font-family="sans-serif" font-size="12" lengthAdjust="spacingAndGlyphs" textLength="47" x="117.45" y="239.5508">Request</text><line style="stroke: #A80036; stroke-width: 1.5;" x1="62.5" x2="188.5" y1="250.6406" y2="250.6406"/><ellipse cx="72.5" cy="280.8945" fill="none" rx="3" ry="3" style="stroke: #038048; stroke-width: 1.0;"/><text fill="#000000" font-family="sans-serif" font-size="11" lengthAdjust="spacingAndGlyphs" textLength="41" x="81.5" y="283.8955">fn:String</text><ellipse cx="72.5" cy="294.7305" fill="none" rx="3" ry="3" style="stroke: #038048; stroke-width: 1.0;"/><text fill="#000000" font-family="sans-serif" font-size="11" lengthAdjust="spacingAndGlyphs" textLength="43" x="81.5" y="297.7314">url:String</text><ellipse cx="72.5" cy="308.5664" fill="none" rx="3" ry="3" style="stroke: #038048; stroke-width: 1.0;"/><text fill="#000000" font-family="sans-serif" font-size="11" lengthAdjust="spacingAndGlyphs" textLength="80" x="81.5" y="311.5674">handler:Function</text><ellipse cx="72.5" cy="322.4023" fill="none" rx="3" ry="3" style="stroke: #038048; stroke-width: 1.0;"/><text fill="#000000" font-family="sans-serif" font-size="11" lengthAdjust="spacingAndGlyphs" textLength="102" x="81.5" y="325.4033">infoForHandler:String</text><line style="stroke: #A80036; stroke-width: 1.0; stroke-dasharray: 1.0,2.0;" x1="62.5" x2="75" y1="265.5586" y2="265.5586"/><text fill="#000000" font-family="sans-serif" font-size="11" lengthAdjust="spacingAndGlyphs" textLength="101" x="75" y="269.5596">Either 'GET' or 'POST'</text><line style="stroke: #A80036; stroke-width: 1.0; stroke-dasharray: 1.0,2.0;" x1="176" x2="188.5" y1="265.5586" y2="265.5586"/><rect fill="#FEFECE" filter="url(#f1)" height="85.5078" style="stroke: #A80036; stroke-width: 1.5;" width="389" x="280" y="39.1406"/><ellipse cx="432.25" cy="55.1406" fill="#B4A7E5" rx="11" ry="11" style="stroke: #A80036; stroke-width: 1.0;"/><path d="M433.2031,51.7813 L433.2031,58.4375 L434.9219,58.4375 Q435.5313,58.4375 435.7969,58.6719 Q436.0625,58.9063 436.0625,59.2969 Q436.0625,59.6719 435.7969,59.9063 Q435.5313,60.1406 434.9219,60.1406 L429.7813,60.1406 Q429.1719,60.1406 428.9063,59.9063 Q428.6406,59.6719 428.6406,59.2813 Q428.6406,58.9063 428.9063,58.6719 Q429.1719,58.4375 429.7813,58.4375 L431.5,58.4375 L431.5,51.7813 L429.7813,51.7813 Q429.1719,51.7813 428.9063,51.5469 Q428.6406,51.3125 428.6406,50.9219 Q428.6406,50.5469 428.9063,50.3125 Q429.1719,50.0781 429.7813,50.0781 L434.9219,50.0781 Q435.5313,50.0781 435.7969,50.3125 Q436.0625,50.5469 436.0625,50.9219 Q436.0625,51.3125 435.7969,51.5469 Q435.5313,51.7813 434.9219,51.7813 L433.2031,51.7813 Z "/><text fill="#000000" font-family="sans-serif" font-size="12" font-style="italic" lengthAdjust="spacingAndGlyphs" textLength="76" x="452.75" y="60.0508">PhaseRunner</text><line style="stroke: #A80036; stroke-width: 1.5;" x1="281" x2="668" y1="71.1406" y2="71.1406"/><ellipse cx="291" cy="83.5586" fill="#84BE84" rx="3" ry="3" style="stroke: #038048; stroke-width: 1.0;"/><text fill="#000000" font-family="sans-serif" font-size="11" lengthAdjust="spacingAndGlyphs" textLength="363" x="300" y="86.5596">PhaseRunner(phases:Phase[], someInput:Result, callback:Function(Result))</text><ellipse cx="291" cy="115.2305" fill="#84BE84" rx="3" ry="3" style="stroke: #038048; stroke-width: 1.0;"/><text fill="#000000" font-family="sans-serif" font-size="11" lengthAdjust="spacingAndGlyphs" textLength="217" x="300" y="118.2314">void stopEarly(newCallback:Function(result))</text><line style="stroke: #A80036; stroke-width: 1.0; stroke-dasharray: 1.0,2.0;" x1="281" x2="370" y1="99.8945" y2="99.8945"/><text fill="#000000" font-family="sans-serif" font-size="11" lengthAdjust="spacingAndGlyphs" textLength="209" x="370" y="103.8955">Updates callback and calls it when stopped</text><line style="stroke: #A80036; stroke-width: 1.0; stroke-dasharray: 1.0,2.0;" x1="579" x2="668" y1="99.8945" y2="99.8945"/><rect fill="#FEFECE" filter="url(#f1)" height="127.0156" style="stroke: #A80036; stroke-width: 1.5;" width="276" x="336.5" y="211.6406"/><ellipse cx="452.75" cy="227.6406" fill="#B4A7E5" rx="11" ry="11" style="stroke: #A80036; stroke-width: 1.0;"/><path d="M453.7031,224.2813 L453.7031,230.9375 L455.4219,230.9375 Q456.0313,230.9375 456.2969,231.1719 Q456.5625,231.4063 456.5625,231.7969 Q456.5625,232.1719 456.2969,232.4063 Q456.0313,232.6406 455.4219,232.6406 L450.2813,232.6406 Q449.6719,232.6406 449.4063,232.4063 Q449.1406,232.1719 449.1406,231.7813 Q449.1406,231.4063 449.4063,231.1719 Q449.6719,230.9375 450.2813,230.9375 L452,230.9375 L452,224.2813 L450.2813,224.2813 Q449.6719,224.2813 449.4063,224.0469 Q449.1406,223.8125 449.1406,223.4219 Q449.1406,223.0469 449.4063,222.8125 Q449.6719,222.5781 450.2813,222.5781 L455.4219,222.5781 Q456.0313,222.5781 456.2969,222.8125 Q456.5625,223.0469 456.5625,223.4219 Q456.5625,223.8125 456.2969,224.0469 Q456.0313,224.2813 455.4219,224.2813 L453.7031,224.2813 Z "/><text fill="#000000" font-family="sans-serif" font-size="12" font-style="italic" lengthAdjust="spacingAndGlyphs" textLength="35" x="473.25" y="232.5508">Phase</text><line style="stroke: #A80036; stroke-width: 1.5;" x1="337.5" x2="611.5" y1="243.6406" y2="243.6406"/><line style="stroke: #A80036; stroke-width: 1.0; stroke-dasharray: 1.0,2.0;" x1="337.5" x2="347.5" y1="258.5586" y2="258.5586"/><text fill="#000000" font-family="sans-serif" font-size="11" lengthAdjust="spacingAndGlyphs" textLength="254" x="347.5" y="262.5596">Every Phase is a function NOT a class. i.e., example:</text><line style="stroke: #A80036; stroke-width: 1.0; stroke-dasharray: 1.0,2.0;" x1="601.5" x2="611.5" y1="258.5586" y2="258.5586"/><line style="stroke: #A80036; stroke-width: 1.0; stroke-dasharray: 1.0,2.0;" x1="337.5" x2="389.5" y1="279.3125" y2="279.3125"/><text fill="#000000" font-family="sans-serif" font-size="11" lengthAdjust="spacingAndGlyphs" textLength="170" x="389.5" y="283.3135">new PhaseRunner([logout, login,..])</text><line style="stroke: #A80036; stroke-width: 1.0; stroke-dasharray: 1.0,2.0;" x1="559.5" x2="611.5" y1="279.3125" y2="279.3125"/><text fill="#000000" font-family="sans-serif" font-size="11" lengthAdjust="spacingAndGlyphs" textLength="43" x="356.5" y="318.4033">.But don.</text><ellipse cx="347.5" cy="329.2383" fill="#84BE84" rx="3" ry="3" style="stroke: #038048; stroke-width: 1.0;"/><text fill="#000000" font-family="sans-serif" font-size="11" lengthAdjust="spacingAndGlyphs" textLength="250" x="356.5" y="332.2393">Phase(prevResult:Result, callback:Function(Result))</text><line style="stroke: #A80036; stroke-width: 1.0; stroke-dasharray: 1.0,2.0;" x1="337.5" x2="389.5" y1="300.0664" y2="300.0664"/><text fill="#000000" font-family="sans-serif" font-size="11" lengthAdjust="spacingAndGlyphs" textLength="170" x="389.5" y="304.0674">i.e., you dont create a phase object</text><line style="stroke: #A80036; stroke-width: 1.0; stroke-dasharray: 1.0,2.0;" x1="559.5" x2="611.5" y1="300.0664" y2="300.0664"/><polygon fill="#FBFB77" filter="url(#f1)" points="258.5,399.6406,258.5,475.0469,690.5,475.0469,690.5,409.6406,680.5,399.6406,258.5,399.6406" style="stroke: #A80036; stroke-width: 1.0;"/><polygon fill="#FBFB77" points="258.5,399.6406,258.5,475.0469,690.5,475.0469,690.5,409.6406,680.5,399.6406,478.5,399.6406,474.5,338.9176,470.5,399.6406,258.5,399.6406" style="stroke: #A80036; stroke-width: 1.0;"/><line style="stroke: #A80036; stroke-width: 1.0;" x1="680.5" x2="680.5" y1="399.6406" y2="409.6406"/><line style="stroke: #A80036; stroke-width: 1.0;" x1="690.5" x2="680.5" y1="409.6406" y2="409.6406"/><text fill="#000000" font-family="sans-serif" font-size="13" lengthAdjust="spacingAndGlyphs" textLength="272" x="264.5" y="418.1357">Every Phase is actually a function, not a class.</text><text fill="#000000" font-family="sans-serif" font-size="13" lengthAdjust="spacingAndGlyphs" textLength="358" x="264.5" y="434.4873">So, for example, to create a PhaseRunner with some Phases:</text><text fill="#000000" font-family="sans-serif" font-size="13" lengthAdjust="spacingAndGlyphs" textLength="411" x="264.5" y="450.8389">new PhaseRunner([logout, login..]) where `logout` and `login` are Phase</text><text fill="#000000" font-family="sans-serif" font-size="13" lengthAdjust="spacingAndGlyphs" textLength="288" x="264.5" y="467.1904">names NOT variables that hold instances of them.</text><rect fill="#FEFECE" filter="url(#f1)" height="61.8359" style="stroke: #A80036; stroke-width: 1.5;" width="77" x="704" y="51.1406"/><ellipse cx="723.5" cy="67.1406" fill="#B4A7E5" rx="11" ry="11" style="stroke: #A80036; stroke-width: 1.0;"/><path d="M724.4531,63.7813 L724.4531,70.4375 L726.1719,70.4375 Q726.7813,70.4375 727.0469,70.6719 Q727.3125,70.9063 727.3125,71.2969 Q727.3125,71.6719 727.0469,71.9063 Q726.7813,72.1406 726.1719,72.1406 L721.0313,72.1406 Q720.4219,72.1406 720.1563,71.9063 Q719.8906,71.6719 719.8906,71.2813 Q719.8906,70.9063 720.1563,70.6719 Q720.4219,70.4375 721.0313,70.4375 L722.75,70.4375 L722.75,63.7813 L721.0313,63.7813 Q720.4219,63.7813 720.1563,63.5469 Q719.8906,63.3125 719.8906,62.9219 Q719.8906,62.5469 720.1563,62.3125 Q720.4219,62.0781 721.0313,62.0781 L726.1719,62.0781 Q726.7813,62.0781 727.0469,62.3125 Q727.3125,62.5469 727.3125,62.9219 Q727.3125,63.3125 727.0469,63.5469 Q726.7813,63.7813 726.1719,63.7813 L724.4531,63.7813 Z "/><text fill="#000000" font-family="sans-serif" font-size="12" font-style="italic" lengthAdjust="spacingAndGlyphs" textLength="35" x="738.5" y="72.0508">Result</text><line style="stroke: #A80036; stroke-width: 1.5;" x1="705" x2="780" y1="83.1406" y2="83.1406"/><ellipse cx="715" cy="95.5586" fill="none" rx="3" ry="3" style="stroke: #038048; stroke-width: 1.0;"/><text fill="#000000" font-family="sans-serif" font-size="11" lengthAdjust="spacingAndGlyphs" textLength="51" x="724" y="98.5596">err:String[]</text><line style="stroke: #A80036; stroke-width: 1.5;" x1="705" x2="780" y1="104.9766" y2="104.9766"/><path d="M125.5,133.8236 C125.5,158.2756 125.5,187.7966 125.5,213.4406 " fill="none" style="stroke: #A80036; stroke-width: 1.0;"/><polygon fill="#A80036" points="125.5,218.5146,129.5,209.5146,125.5,213.5146,121.5,209.5146,125.5,218.5146" style="stroke: #A80036; stroke-width: 1.0;"/><text fill="#000000" font-family="sans-serif" font-size="13" lengthAdjust="spacingAndGlyphs" textLength="125" x="126.5" y="178.1357">at any times contains</text><text fill="#000000" font-family="sans-serif" font-size="13" lengthAdjust="spacingAndGlyphs" textLength="20" x="104.2188" y="207.7405">0..*</text><path d="M474.5,125.5296 C474.5,149.2276 474.5,179.3226 474.5,206.2236 " fill="none" style="stroke: #A80036; stroke-width: 1.0;"/><polygon fill="#A80036" points="474.5,211.5586,478.5,202.5586,474.5,206.5586,470.5,202.5586,474.5,211.5586" style="stroke: #A80036; stroke-width: 1.0;"/><text fill="#000000" font-family="sans-serif" font-size="13" lengthAdjust="spacingAndGlyphs" textLength="21" x="475.5" y="178.1357">has</text><text fill="#000000" font-family="sans-serif" font-size="13" lengthAdjust="spacingAndGlyphs" textLength="20" x="453.3438" y="200.7965">0..*</text></g></svg>