<?xml version="1.0" encoding="UTF-8" standalone="yes"?><svg xmlns="http://www.w3.org/2000/svg" xmlns:xlink="http://www.w3.org/1999/xlink" height="433px" style="width:816px;height:433px;" version="1.1" viewBox="0 0 816 433" width="816px"><defs><filter height="300%" id="f1" width="300%" x="-1" y="-1"><feGaussianBlur result="blurOut" stdDeviation="2.0"/><feColorMatrix in="blurOut" result="blurOut2" type="matrix" values="0 0 0 0 0 0 0 0 0 0 0 0 0 0 0 0 0 0 .4 0"/><feOffset dx="4.0" dy="4.0" in="blurOut2" result="blurOut3"/><feBlend in="SourceGraphic" in2="blurOut3" mode="normal"/></filter></defs><g><text fill="#000000" font-family="sans-serif" font-size="18" lengthAdjust="spacingAndGlyphs" textLength="456" x="184.5" y="18.6855">Interface Diagram. Doesn't have to represent actual truth!</text><rect fill="#FEFECE" filter="url(#f1)" height="89.5078" style="stroke: #A80036; stroke-width: 1.5;" width="128" x="87.5" y="211.6406"/><ellipse cx="124.55" cy="227.6406" fill="#ADD1B2" rx="11" ry="11" style="stroke: #A80036; stroke-width: 1.0;"/><path d="M127.3156,223.5156 Q127.4719,223.2969 127.6594,223.1875 Q127.8469,223.0781 128.0656,223.0781 Q128.4406,223.0781 128.675,223.3359 Q128.9094,223.5938 128.9094,224.2031 L128.9094,225.6563 Q128.9094,226.2656 128.675,226.5313 Q128.4406,226.7969 128.0656,226.7969 Q127.7219,226.7969 127.5188,226.5938 Q127.3156,226.4063 127.2063,225.8906 Q127.1594,225.5313 126.9719,225.3438 Q126.6438,224.9688 126.0344,224.75 Q125.425,224.5313 124.8,224.5313 Q124.0344,224.5313 123.4016,224.8594 Q122.7688,225.1875 122.2766,225.9375 Q121.7844,226.6875 121.7844,227.7188 L121.7844,228.8125 Q121.7844,230.0469 122.675,230.8672 Q123.5656,231.6875 125.1594,231.6875 Q126.0969,231.6875 126.7531,231.4375 Q127.1438,231.2813 127.5656,230.8438 Q127.8313,230.5781 127.9797,230.5 Q128.1281,230.4219 128.3313,230.4219 Q128.6594,230.4219 128.9172,230.6797 Q129.175,230.9375 129.175,231.2813 Q129.175,231.625 128.8313,232.0313 Q128.3313,232.6094 127.5344,232.9375 Q126.4563,233.3906 125.1594,233.3906 Q123.6438,233.3906 122.4406,232.7656 Q121.4563,232.2656 120.7688,231.1953 Q120.0813,230.125 120.0813,228.8438 L120.0813,227.6875 Q120.0813,226.3594 120.6984,225.2109 Q121.3156,224.0625 122.4094,223.4453 Q123.5031,222.8281 124.7375,222.8281 Q125.4719,222.8281 126.1203,222.9922 Q126.7688,223.1563 127.3156,223.5156 Z "/><text fill="#000000" font-family="sans-serif" font-size="12" lengthAdjust="spacingAndGlyphs" textLength="47" x="143.45" y="232.5508">Request</text><line style="stroke: #A80036; stroke-width: 1.5;" x1="88.5" x2="214.5" y1="243.6406" y2="243.6406"/><ellipse cx="98.5" cy="256.0586" fill="none" rx="3" ry="3" style="stroke: #038048; stroke-width: 1.0;"/><text fill="#000000" font-family="sans-serif" font-size="11" lengthAdjust="spacingAndGlyphs" textLength="43" x="107.5" y="259.0596">url:String</text><ellipse cx="98.5" cy="269.8945" fill="none" rx="3" ry="3" style="stroke: #038048; stroke-width: 1.0;"/><text fill="#000000" font-family="sans-serif" font-size="11" lengthAdjust="spacingAndGlyphs" textLength="80" x="107.5" y="272.8955">handler:Function</text><ellipse cx="98.5" cy="283.7305" fill="none" rx="3" ry="3" style="stroke: #038048; stroke-width: 1.0;"/><text fill="#000000" font-family="sans-serif" font-size="11" lengthAdjust="spacingAndGlyphs" textLength="102" x="107.5" y="286.7314">infoForHandler:String</text><line style="stroke: #A80036; stroke-width: 1.5;" x1="88.5" x2="214.5" y1="293.1484" y2="293.1484"/><rect fill="#FEFECE" filter="url(#f1)" height="48" style="stroke: #A80036; stroke-width: 1.5;" width="103" x="6" y="369.6406"/><ellipse cx="21" cy="385.6406" fill="#ADD1B2" rx="11" ry="11" style="stroke: #A80036; stroke-width: 1.0;"/><path d="M23.7656,381.5156 Q23.9219,381.2969 24.1094,381.1875 Q24.2969,381.0781 24.5156,381.0781 Q24.8906,381.0781 25.125,381.3359 Q25.3594,381.5938 25.3594,382.2031 L25.3594,383.6563 Q25.3594,384.2656 25.125,384.5313 Q24.8906,384.7969 24.5156,384.7969 Q24.1719,384.7969 23.9688,384.5938 Q23.7656,384.4063 23.6563,383.8906 Q23.6094,383.5313 23.4219,383.3438 Q23.0938,382.9688 22.4844,382.75 Q21.875,382.5313 21.25,382.5313 Q20.4844,382.5313 19.8516,382.8594 Q19.2188,383.1875 18.7266,383.9375 Q18.2344,384.6875 18.2344,385.7188 L18.2344,386.8125 Q18.2344,388.0469 19.125,388.8672 Q20.0156,389.6875 21.6094,389.6875 Q22.5469,389.6875 23.2031,389.4375 Q23.5938,389.2813 24.0156,388.8438 Q24.2813,388.5781 24.4297,388.5 Q24.5781,388.4219 24.7813,388.4219 Q25.1094,388.4219 25.3672,388.6797 Q25.625,388.9375 25.625,389.2813 Q25.625,389.625 25.2813,390.0313 Q24.7813,390.6094 23.9844,390.9375 Q22.9063,391.3906 21.6094,391.3906 Q20.0938,391.3906 18.8906,390.7656 Q17.9063,390.2656 17.2188,389.1953 Q16.5313,388.125 16.5313,386.8438 L16.5313,385.6875 Q16.5313,384.3594 17.1484,383.2109 Q17.7656,382.0625 18.8594,381.4453 Q19.9531,380.8281 21.1875,380.8281 Q21.9219,380.8281 22.5703,380.9922 Q23.2188,381.1563 23.7656,381.5156 Z "/><text fill="#000000" font-family="sans-serif" font-size="12" lengthAdjust="spacingAndGlyphs" textLength="71" x="35" y="390.5508">GETRequest</text><line style="stroke: #A80036; stroke-width: 1.5;" x1="7" x2="108" y1="401.6406" y2="401.6406"/><line style="stroke: #A80036; stroke-width: 1.5;" x1="7" x2="108" y1="409.6406" y2="409.6406"/><rect fill="#FEFECE" filter="url(#f1)" height="61.8359" style="stroke: #A80036; stroke-width: 1.5;" width="205" x="144" y="362.6406"/><ellipse cx="202.75" cy="378.6406" fill="#ADD1B2" rx="11" ry="11" style="stroke: #A80036; stroke-width: 1.0;"/><path d="M205.5156,374.5156 Q205.6719,374.2969 205.8594,374.1875 Q206.0469,374.0781 206.2656,374.0781 Q206.6406,374.0781 206.875,374.3359 Q207.1094,374.5938 207.1094,375.2031 L207.1094,376.6563 Q207.1094,377.2656 206.875,377.5313 Q206.6406,377.7969 206.2656,377.7969 Q205.9219,377.7969 205.7188,377.5938 Q205.5156,377.4063 205.4063,376.8906 Q205.3594,376.5313 205.1719,376.3438 Q204.8438,375.9688 204.2344,375.75 Q203.625,375.5313 203,375.5313 Q202.2344,375.5313 201.6016,375.8594 Q200.9688,376.1875 200.4766,376.9375 Q199.9844,377.6875 199.9844,378.7188 L199.9844,379.8125 Q199.9844,381.0469 200.875,381.8672 Q201.7656,382.6875 203.3594,382.6875 Q204.2969,382.6875 204.9531,382.4375 Q205.3438,382.2813 205.7656,381.8438 Q206.0313,381.5781 206.1797,381.5 Q206.3281,381.4219 206.5313,381.4219 Q206.8594,381.4219 207.1172,381.6797 Q207.375,381.9375 207.375,382.2813 Q207.375,382.625 207.0313,383.0313 Q206.5313,383.6094 205.7344,383.9375 Q204.6563,384.3906 203.3594,384.3906 Q201.8438,384.3906 200.6406,383.7656 Q199.6563,383.2656 198.9688,382.1953 Q198.2813,381.125 198.2813,379.8438 L198.2813,378.6875 Q198.2813,377.3594 198.8984,376.2109 Q199.5156,375.0625 200.6094,374.4453 Q201.7031,373.8281 202.9375,373.8281 Q203.6719,373.8281 204.3203,373.9922 Q204.9688,374.1563 205.5156,374.5156 Z "/><text fill="#000000" font-family="sans-serif" font-size="12" lengthAdjust="spacingAndGlyphs" textLength="79" x="223.25" y="383.5508">POSTRequest</text><line style="stroke: #A80036; stroke-width: 1.5;" x1="145" x2="348" y1="394.6406" y2="394.6406"/><ellipse cx="155" cy="407.0586" fill="none" rx="3" ry="3" style="stroke: #038048; stroke-width: 1.0;"/><text fill="#000000" font-family="sans-serif" font-size="11" lengthAdjust="spacingAndGlyphs" textLength="179" x="164" y="410.0596">nameValuePairs:Array[pairsCount][2]</text><line style="stroke: #A80036; stroke-width: 1.5;" x1="145" x2="348" y1="416.4766" y2="416.4766"/><rect fill="#FEFECE" filter="url(#f1)" height="103.3438" style="stroke: #A80036; stroke-width: 1.5;" width="239" x="32" y="30.6406"/><ellipse cx="103.75" cy="46.6406" fill="#B4A7E5" rx="11" ry="11" style="stroke: #A80036; stroke-width: 1.0;"/><path d="M104.7031,43.2813 L104.7031,49.9375 L106.4219,49.9375 Q107.0313,49.9375 107.2969,50.1719 Q107.5625,50.4063 107.5625,50.7969 Q107.5625,51.1719 107.2969,51.4063 Q107.0313,51.6406 106.4219,51.6406 L101.2813,51.6406 Q100.6719,51.6406 100.4063,51.4063 Q100.1406,51.1719 100.1406,50.7813 Q100.1406,50.4063 100.4063,50.1719 Q100.6719,49.9375 101.2813,49.9375 L103,49.9375 L103,43.2813 L101.2813,43.2813 Q100.6719,43.2813 100.4063,43.0469 Q100.1406,42.8125 100.1406,42.4219 Q100.1406,42.0469 100.4063,41.8125 Q100.6719,41.5781 101.2813,41.5781 L106.4219,41.5781 Q107.0313,41.5781 107.2969,41.8125 Q107.5625,42.0469 107.5625,42.4219 Q107.5625,42.8125 107.2969,43.0469 Q107.0313,43.2813 106.4219,43.2813 L104.7031,43.2813 Z "/><text fill="#000000" font-family="sans-serif" font-size="12" font-style="italic" lengthAdjust="spacingAndGlyphs" textLength="87" x="124.25" y="51.5508">RequestRunner</text><line style="stroke: #A80036; stroke-width: 1.5;" x1="33" x2="270" y1="62.6406" y2="62.6406"/><line style="stroke: #A80036; stroke-width: 1.5;" x1="33" x2="270" y1="70.6406" y2="70.6406"/><ellipse cx="43" cy="83.0586" fill="#84BE84" rx="3" ry="3" style="stroke: #038048; stroke-width: 1.0;"/><text fill="#000000" font-family="sans-serif" font-size="11" lengthAdjust="spacingAndGlyphs" textLength="149" x="52" y="86.0596">RequestRunner(delay:Number)</text><ellipse cx="43" cy="96.8945" fill="#84BE84" rx="3" ry="3" style="stroke: #038048; stroke-width: 1.0;"/><text fill="#000000" font-family="sans-serif" font-size="11" lengthAdjust="spacingAndGlyphs" textLength="139" x="52" y="99.8955">void setDelay(delay:Number)</text><ellipse cx="43" cy="110.7305" fill="#84BE84" rx="3" ry="3" style="stroke: #038048; stroke-width: 1.0;"/><text fill="#000000" font-family="sans-serif" font-size="11" lengthAdjust="spacingAndGlyphs" textLength="92" x="52" y="113.7314">void emptyQueue()</text><ellipse cx="43" cy="124.5664" fill="#84BE84" rx="3" ry="3" style="stroke: #038048; stroke-width: 1.0;"/><text fill="#000000" font-family="sans-serif" font-size="11" lengthAdjust="spacingAndGlyphs" textLength="213" x="52" y="127.5674">void addRequestToQueue(request:Request)</text><rect fill="#FEFECE" filter="url(#f1)" height="89.5078" style="stroke: #A80036; stroke-width: 1.5;" width="389" x="306" y="37.1406"/><ellipse cx="458.25" cy="53.1406" fill="#B4A7E5" rx="11" ry="11" style="stroke: #A80036; stroke-width: 1.0;"/><path d="M459.2031,49.7813 L459.2031,56.4375 L460.9219,56.4375 Q461.5313,56.4375 461.7969,56.6719 Q462.0625,56.9063 462.0625,57.2969 Q462.0625,57.6719 461.7969,57.9063 Q461.5313,58.1406 460.9219,58.1406 L455.7813,58.1406 Q455.1719,58.1406 454.9063,57.9063 Q454.6406,57.6719 454.6406,57.2813 Q454.6406,56.9063 454.9063,56.6719 Q455.1719,56.4375 455.7813,56.4375 L457.5,56.4375 L457.5,49.7813 L455.7813,49.7813 Q455.1719,49.7813 454.9063,49.5469 Q454.6406,49.3125 454.6406,48.9219 Q454.6406,48.5469 454.9063,48.3125 Q455.1719,48.0781 455.7813,48.0781 L460.9219,48.0781 Q461.5313,48.0781 461.7969,48.3125 Q462.0625,48.5469 462.0625,48.9219 Q462.0625,49.3125 461.7969,49.5469 Q461.5313,49.7813 460.9219,49.7813 L459.2031,49.7813 Z "/><text fill="#000000" font-family="sans-serif" font-size="12" font-style="italic" lengthAdjust="spacingAndGlyphs" textLength="76" x="478.75" y="58.0508">PhaseRunner</text><line style="stroke: #A80036; stroke-width: 1.5;" x1="307" x2="694" y1="69.1406" y2="69.1406"/><line style="stroke: #A80036; stroke-width: 1.5;" x1="307" x2="694" y1="77.1406" y2="77.1406"/><ellipse cx="317" cy="89.5586" fill="#84BE84" rx="3" ry="3" style="stroke: #038048; stroke-width: 1.0;"/><text fill="#000000" font-family="sans-serif" font-size="11" lengthAdjust="spacingAndGlyphs" textLength="363" x="326" y="92.5596">PhaseRunner(phases:Phase[], someInput:Result, callback:Function(Result))</text><ellipse cx="317" cy="103.3945" fill="#84BE84" rx="3" ry="3" style="stroke: #038048; stroke-width: 1.0;"/><text fill="#000000" font-family="sans-serif" font-size="11" lengthAdjust="spacingAndGlyphs" textLength="53" x="326" y="106.3955">void start()</text><ellipse cx="317" cy="117.2305" fill="#84BE84" rx="3" ry="3" style="stroke: #038048; stroke-width: 1.0;"/><text fill="#000000" font-family="sans-serif" font-size="11" lengthAdjust="spacingAndGlyphs" textLength="129" x="326" y="120.2314">void stopAndCallCallback()</text><rect fill="#FEFECE" filter="url(#f1)" height="75.6719" style="stroke: #A80036; stroke-width: 1.5;" width="276" x="362.5" y="218.6406"/><ellipse cx="478.75" cy="234.6406" fill="#B4A7E5" rx="11" ry="11" style="stroke: #A80036; stroke-width: 1.0;"/><path d="M479.7031,231.2813 L479.7031,237.9375 L481.4219,237.9375 Q482.0313,237.9375 482.2969,238.1719 Q482.5625,238.4063 482.5625,238.7969 Q482.5625,239.1719 482.2969,239.4063 Q482.0313,239.6406 481.4219,239.6406 L476.2813,239.6406 Q475.6719,239.6406 475.4063,239.4063 Q475.1406,239.1719 475.1406,238.7813 Q475.1406,238.4063 475.4063,238.1719 Q475.6719,237.9375 476.2813,237.9375 L478,237.9375 L478,231.2813 L476.2813,231.2813 Q475.6719,231.2813 475.4063,231.0469 Q475.1406,230.8125 475.1406,230.4219 Q475.1406,230.0469 475.4063,229.8125 Q475.6719,229.5781 476.2813,229.5781 L481.4219,229.5781 Q482.0313,229.5781 482.2969,229.8125 Q482.5625,230.0469 482.5625,230.4219 Q482.5625,230.8125 482.2969,231.0469 Q482.0313,231.2813 481.4219,231.2813 L479.7031,231.2813 Z "/><text fill="#000000" font-family="sans-serif" font-size="12" font-style="italic" lengthAdjust="spacingAndGlyphs" textLength="35" x="499.25" y="239.5508">Phase</text><line style="stroke: #A80036; stroke-width: 1.5;" x1="363.5" x2="637.5" y1="250.6406" y2="250.6406"/><line style="stroke: #A80036; stroke-width: 1.5;" x1="363.5" x2="637.5" y1="258.6406" y2="258.6406"/><ellipse cx="373.5" cy="271.0586" fill="#84BE84" rx="3" ry="3" style="stroke: #038048; stroke-width: 1.0;"/><text fill="#000000" font-family="sans-serif" font-size="11" lengthAdjust="spacingAndGlyphs" textLength="250" x="382.5" y="274.0596">Phase(prevResult:Result, callback:Function(Result))</text><ellipse cx="373.5" cy="284.8945" fill="#84BE84" rx="3" ry="3" style="stroke: #038048; stroke-width: 1.0;"/><text fill="#000000" font-family="sans-serif" font-size="11" lengthAdjust="spacingAndGlyphs" textLength="53" x="382.5" y="287.8955">void start()</text><rect fill="#FEFECE" filter="url(#f1)" height="61.8359" style="stroke: #A80036; stroke-width: 1.5;" width="77" x="730" y="51.1406"/><ellipse cx="749.5" cy="67.1406" fill="#B4A7E5" rx="11" ry="11" style="stroke: #A80036; stroke-width: 1.0;"/><path d="M750.4531,63.7813 L750.4531,70.4375 L752.1719,70.4375 Q752.7813,70.4375 753.0469,70.6719 Q753.3125,70.9063 753.3125,71.2969 Q753.3125,71.6719 753.0469,71.9063 Q752.7813,72.1406 752.1719,72.1406 L747.0313,72.1406 Q746.4219,72.1406 746.1563,71.9063 Q745.8906,71.6719 745.8906,71.2813 Q745.8906,70.9063 746.1563,70.6719 Q746.4219,70.4375 747.0313,70.4375 L748.75,70.4375 L748.75,63.7813 L747.0313,63.7813 Q746.4219,63.7813 746.1563,63.5469 Q745.8906,63.3125 745.8906,62.9219 Q745.8906,62.5469 746.1563,62.3125 Q746.4219,62.0781 747.0313,62.0781 L752.1719,62.0781 Q752.7813,62.0781 753.0469,62.3125 Q753.3125,62.5469 753.3125,62.9219 Q753.3125,63.3125 753.0469,63.5469 Q752.7813,63.7813 752.1719,63.7813 L750.4531,63.7813 Z "/><text fill="#000000" font-family="sans-serif" font-size="12" font-style="italic" lengthAdjust="spacingAndGlyphs" textLength="35" x="764.5" y="72.0508">Result</text><line style="stroke: #A80036; stroke-width: 1.5;" x1="731" x2="806" y1="83.1406" y2="83.1406"/><ellipse cx="741" cy="95.5586" fill="none" rx="3" ry="3" style="stroke: #038048; stroke-width: 1.0;"/><text fill="#000000" font-family="sans-serif" font-size="11" lengthAdjust="spacingAndGlyphs" textLength="51" x="750" y="98.5596">err:String[]</text><line style="stroke: #A80036; stroke-width: 1.5;" x1="731" x2="806" y1="104.9766" y2="104.9766"/><path d="M109.11,318.5206 C96.4764,336.6639 83.3944,355.4518 73.5624,369.5723 " fill="none" style="stroke: #A80036; stroke-width: 1.0;"/><polygon fill="none" points="103.5478,314.2576,120.721,301.8446,115.037,322.2576,103.5478,314.2576" style="stroke: #A80036; stroke-width: 1.0;"/><path d="M194.425,318.6396 C205.114,333.8293 216.115,349.462 225.236,362.4228 " fill="none" style="stroke: #A80036; stroke-width: 1.0;"/><polygon fill="none" points="188.392,322.2296,182.607,301.8446,199.841,314.1726,188.392,322.2296" style="stroke: #A80036; stroke-width: 1.0;"/><path d="M151.5,133.9636 C151.5,156.8766 151.5,183.8286 151.5,206.5336 " fill="none" style="stroke: #A80036; stroke-width: 1.0;"/><polygon fill="#A80036" points="151.5,211.6096,155.5,202.6096,151.5,206.6096,147.5,202.6096,151.5,211.6096" style="stroke: #A80036; stroke-width: 1.0;"/><text fill="#000000" font-family="sans-serif" font-size="13" lengthAdjust="spacingAndGlyphs" textLength="125" x="152.5" y="178.1357">at any times contains</text><text fill="#000000" font-family="sans-serif" font-size="13" lengthAdjust="spacingAndGlyphs" textLength="20" x="129.9063" y="200.7202">0..*</text><path d="M500.5,127.5636 C500.5,153.9546 500.5,187.2396 500.5,213.2626 " fill="none" style="stroke: #A80036; stroke-width: 1.0;"/><polygon fill="#A80036" points="500.5,218.3666,504.5,209.3666,500.5,213.3666,496.5,209.3666,500.5,218.3666" style="stroke: #A80036; stroke-width: 1.0;"/><text fill="#000000" font-family="sans-serif" font-size="13" lengthAdjust="spacingAndGlyphs" textLength="21" x="501.5" y="178.1357">has</text><text fill="#000000" font-family="sans-serif" font-size="13" lengthAdjust="spacingAndGlyphs" textLength="20" x="478.7188" y="207.6797">0..*</text></g></svg>